<?xml version="1.0" encoding="UTF-8" standalone="no"?>
<!DOCTYPE svg PUBLIC "-//W3C//DTD SVG 1.1//EN" "http://www.w3.org/Graphics/SVG/1.1/DTD/svg11.dtd">
<svg version="1.1" xmlns="http://www.w3.org/2000/svg" xmlns:dc="http://purl.org/dc/elements/1.1/" xmlns:xl="http://www.w3.org/1999/xlink" viewBox="0 0 1280 720" width="1280" height="720">
  <defs>
    <marker orient="auto" overflow="visible" markerUnits="strokeWidth" id="FilledArrow_Marker" stroke-linejoin="miter" stroke-miterlimit="10" viewBox="-1 -3 6 6" markerWidth="6" markerHeight="6" color="black">
      <g>
        <path d="M 3.2 0 L 0 -1.2 L 0 1.2 Z" fill="currentColor" stroke="currentColor" stroke-width="1"/>
      </g>
    </marker>
  </defs>
  <g id="03-user-logs-in" fill-opacity="1" stroke="none" fill="none" stroke-opacity="1" stroke-dasharray="none">
    <title>03-user-logs-in</title>
    <g id="03-user-logs-in_Layer_1">
      <title>Layer 1</title>
      <g id="Graphic_21">
        <title>Text</title>
        <text transform="translate(400.10425 38.8193)" fill="#102a43">
          <tspan font-family="Helvetica" font-size="34" fill="#102a43" x="0" y="33" xml:space="preserve">User Completes Browser Login</tspan>
        </text>
      </g>
      <g id="Graphic_17">
        <path d="M 540 285 L 739 285 C 748.9411 285 757 293.05887 757 303 L 757 412 C 757 421.94113 748.9411 430 739 430 L 540 430 C 530.0589 430 522 421.94113 522 412 L 522 303 C 522 293.05887 530.0589 285 540 285 Z" fill="#1e3a5f"/>
        <path d="M 540 285 L 739 285 C 748.9411 285 757 293.05887 757 303 L 757 412 C 757 421.94113 748.9411 430 739 430 L 540 430 C 530.0589 430 522 421.94113 522 412 L 522 303 C 522 293.05887 530.0589 285 540 285 Z" stroke="white" stroke-linecap="butt" stroke-linejoin="round" stroke-width="3"/>
        <text transform="translate(527 344.192)" fill="white">
          <tspan font-family="Helvetica Neue" font-size="22" fill="white" x="67.477" y="21" xml:space="preserve">Keycloak</tspan>
        </text>
      </g>
      <g id="Graphic_5">
        <title>Text</title>
        <text transform="translate(92 602.5996)" fill="#334155">
          <tspan font-family="Helvetica" font-size="20" fill="#334155" x="0" y="19" xml:space="preserve">-</tspan>
        </text>
      </g>
      <g id="Graphic_4">
        <title>Text</title>
        <text transform="translate(115 602.5996)" fill="#334155">
          <tspan font-family="Helvetica" font-size="20" fill="#334155" x="0" y="19" xml:space="preserve">The user opens the verification URL in a browser.</tspan>
        </text>
      </g>
      <g id="Graphic_3">
        <title>Text</title>
        <text transform="translate(92 632.5996)" fill="#334155">
          <tspan font-family="Helvetica" font-size="20" fill="#334155" x="0" y="19" xml:space="preserve">-</tspan>
        </text>
      </g>
      <g id="Graphic_2">
        <title>Text</title>
        <text transform="translate(115 632.5996)" fill="#334155">
          <tspan font-family="Helvetica" font-size="20" fill="#334155" x="0" y="19" xml:space="preserve">Keycloak authenticates the user there.</tspan>
        </text>
      </g>
      <g id="Graphic_54">
        <path d="M 98 285 L 297 285 C 306.94113 285 315 293.05887 315 303 L 315 412 C 315 421.94113 306.94113 430 297 430 L 98 430 C 88.05887 430 80 421.94113 80 412 L 80 303 C 80 293.05887 88.05887 285 98 285 Z" fill="#ffffc0"/>
        <path d="M 98 285 L 297 285 C 306.94113 285 315 293.05887 315 303 L 315 412 C 315 421.94113 306.94113 430 297 430 L 98 430 C 88.05887 430 80 421.94113 80 412 L 80 303 C 80 293.05887 88.05887 285 98 285 Z" stroke="#334155" stroke-linecap="butt" stroke-linejoin="round" stroke-width="3"/>
        <text transform="translate(85 344.192)" fill="black">
          <tspan font-family="Helvetica Neue" font-size="22" fill="black" x="46.093" y="21" xml:space="preserve">CLI or Device</tspan>
        </text>
      </g>
      <g id="Graphic_60">
        <path d="M 822.8914 251.23438 L 916.8914 251.23438 C 921.862 251.23438 925.8914 255.2638 925.8914 260.23438 L 925.8914 294.23438 C 925.8914 299.20494 921.862 303.23438 916.8914 303.23438 L 822.8914 303.23438 C 817.9209 303.23438 813.8914 299.20494 813.8914 294.23438 L 813.8914 260.23438 C 813.8914 255.2638 817.9209 251.23438 822.8914 251.23438 Z" fill="#eedc82"/>
        <path d="M 822.8914 251.23438 L 916.8914 251.23438 C 921.862 251.23438 925.8914 255.2638 925.8914 260.23438 L 925.8914 294.23438 C 925.8914 299.20494 921.862 303.23438 916.8914 303.23438 L 822.8914 303.23438 C 817.9209 303.23438 813.8914 299.20494 813.8914 294.23438 L 813.8914 260.23438 C 813.8914 255.2638 817.9209 251.23438 822.8914 251.23438 Z" stroke="#b34400" stroke-linecap="round" stroke-linejoin="round" stroke-width="3"/>
        <text transform="translate(818.8914 267.23438)" fill="#b34400">
          <tspan font-family="Helvetica" font-size="17" fill="#b34400" x="5.644531" y="16" xml:space="preserve">ABCD-1234</tspan>
        </text>
      </g>
      <g id="Line_65">
        <line x1="966.2069" y1="361.232" x2="774.5248" y2="361.232" marker-end="url(#FilledArrow_Marker)" stroke="black" stroke-linecap="round" stroke-linejoin="round" stroke-width="4"/>
      </g>
      <g id="Graphic_64">
        <rect x="785.5435" y="324" width="168.69591" height="34" fill="white"/>
        <clipPath id="clip_path">
          <rect x="0" y="0" width="168.69591" height="34" fill="white"/>
        </clipPath>
        <text clip-path="url(#clip_path)" transform="translate(785.5435 324)" fill="black">
          <tspan font-family="Helvetica" font-size="19" fill="black" x="38.40655" y="24" xml:space="preserve">User Login</tspan>
        </text>
      </g>
      <g id="Group_70">
        <g id="Graphic_72">
          <path d="M 983 284.99315 L 1182 284.99315 C 1191.9411 284.99315 1200 293.05203 1200 302.99315 L 1200 411 C 1200 420.94113 1191.9411 429 1182 429 L 983 429 C 973.0589 429 965 420.94113 965 411 L 965 302.99315 C 965 293.05203 973.0589 284.99315 983 284.99315 Z" fill="#e2e8f0"/>
          <path d="M 983 284.99315 L 1182 284.99315 C 1191.9411 284.99315 1200 293.05203 1200 302.99315 L 1200 411 C 1200 420.94113 1191.9411 429 1182 429 L 983 429 C 973.0589 429 965 420.94113 965 411 L 965 302.99315 C 965 293.05203 973.0589 284.99315 983 284.99315 Z" stroke="#334155" stroke-linecap="butt" stroke-linejoin="round" stroke-width="3"/>
          <text transform="translate(970 343.68858)" fill="black">
            <tspan font-family="Helvetica Neue" font-size="22" fill="black" x="71.778" y="21" xml:space="preserve">Browser</tspan>
          </text>
        </g>
        <g id="Graphic_71">
          <path d="M 974 284 L 1191 284 C 1195.9706 284 1200 288.02944 1200 293 L 1200 298.8356 C 1200 303.80618 1195.9706 307.8356 1191 307.8356 L 974 307.8356 C 969.0294 307.8356 965 303.80618 965 298.8356 L 965 293 C 965 288.02944 969.0294 284 974 284 Z" fill="#c0c0ff"/>
          <path d="M 974 284 L 1191 284 C 1195.9706 284 1200 288.02944 1200 293 L 1200 298.8356 C 1200 303.80618 1195.9706 307.8356 1191 307.8356 L 974 307.8356 C 969.0294 307.8356 965 303.80618 965 298.8356 L 965 293 C 965 288.02944 969.0294 284 974 284 Z" stroke="#003776" stroke-linecap="round" stroke-linejoin="round" stroke-width="3"/>
        </g>
      </g>
      <g id="Group_66">
        <g id="Graphic_69">
          <circle cx="981.2246" cy="296.0879" r="5.43164930422882" fill="red"/>
          <circle cx="981.2246" cy="296.0879" r="5.43164930422882" stroke="#003776" stroke-linecap="round" stroke-linejoin="round" stroke-width="1"/>
        </g>
        <g id="Graphic_68">
          <circle cx="997.3225" cy="296.0879" r="5.43164930422881" fill="#ffff80"/>
          <circle cx="997.3225" cy="296.0879" r="5.43164930422881" stroke="#003776" stroke-linecap="round" stroke-linejoin="round" stroke-width="1"/>
        </g>
        <g id="Graphic_67">
          <circle cx="1013.4204" cy="296.0879" r="5.43164930422882" fill="lime"/>
          <circle cx="1013.4204" cy="296.0879" r="5.43164930422882" stroke="#003776" stroke-linecap="round" stroke-linejoin="round" stroke-width="1"/>
        </g>
      </g>
    </g>
  </g>
</svg>
