<?xml version="1.0" encoding="UTF-8" standalone="no"?>
<!DOCTYPE svg PUBLIC "-//W3C//DTD SVG 1.1//EN" "http://www.w3.org/Graphics/SVG/1.1/DTD/svg11.dtd">
<svg version="1.1" xmlns="http://www.w3.org/2000/svg" xmlns:dc="http://purl.org/dc/elements/1.1/" xmlns:xl="http://www.w3.org/1999/xlink" viewBox="0 0 1280 720" width="1280" height="720">
  <defs>
    <marker orient="auto" overflow="visible" markerUnits="strokeWidth" id="FilledArrow_Marker" stroke-linejoin="miter" stroke-miterlimit="10" viewBox="-1 -3 6 6" markerWidth="6" markerHeight="6" color="black">
      <g>
        <path d="M 3.2 0 L 0 -1.2 L 0 1.2 Z" fill="currentColor" stroke="currentColor" stroke-width="1"/>
      </g>
    </marker>
    <filter id="Shadow" filterUnits="userSpaceOnUse" x="-128" y="-72">
      <feGaussianBlur in="SourceAlpha" result="blur" stdDeviation="1.308"/>
      <feOffset in="blur" result="offset" dx="0" dy="2"/>
      <feFlood flood-color="black" flood-opacity=".5" result="flood"/>
      <feComposite in="flood" in2="offset" operator="in" result="color"/>
      <feMerge>
        <feMergeNode in="color"/>
        <feMergeNode in="SourceGraphic"/>
      </feMerge>
    </filter>
  </defs>
  <g id="05-device-receives-tokens" fill-opacity="1" stroke="none" fill="none" stroke-opacity="1" stroke-dasharray="none">
    <title>05-device-receives-tokens</title>
    <g id="05-device-receives-tokens_Layer_1">
      <title>Layer 1</title>
      <g id="Graphic_21">
        <title>Text</title>
        <text transform="translate(460.10425 38.8193)" fill="#102a43">
          <tspan font-family="Helvetica" font-size="34" fill="#102a43" x="0" y="33" xml:space="preserve">Device Receives Tokens</tspan>
        </text>
      </g>
      <g id="Graphic_17">
        <path d="M 540 285 L 739 285 C 748.9411 285 757 293.05887 757 303 L 757 412 C 757 421.94113 748.9411 430 739 430 L 540 430 C 530.0589 430 522 421.94113 522 412 L 522 303 C 522 293.05887 530.0589 285 540 285 Z" fill="#1e3a5f"/>
        <path d="M 540 285 L 739 285 C 748.9411 285 757 293.05887 757 303 L 757 412 C 757 421.94113 748.9411 430 739 430 L 540 430 C 530.0589 430 522 421.94113 522 412 L 522 303 C 522 293.05887 530.0589 285 540 285 Z" stroke="white" stroke-linecap="butt" stroke-linejoin="round" stroke-width="3"/>
        <text transform="translate(527 344.192)" fill="white">
          <tspan font-family="Helvetica Neue" font-size="22" fill="white" x="67.477" y="21" xml:space="preserve">Keycloak</tspan>
        </text>
      </g>
      <g id="Graphic_5">
        <title>Text</title>
        <text transform="translate(92 602.5996)" fill="#334155">
          <tspan font-family="Helvetica" font-size="20" fill="#334155" x="0" y="19" xml:space="preserve">-</tspan>
        </text>
      </g>
      <g id="Graphic_4">
        <title>Text</title>
        <text transform="translate(115 602.5996)" fill="#334155">
          <tspan font-family="Helvetica" font-size="20" fill="#334155" x="0" y="19" xml:space="preserve">Keycloak returns tokens to the device.</tspan>
        </text>
      </g>
      <g id="Graphic_3">
        <title>Text</title>
        <text transform="translate(92 632.5996)" fill="#334155">
          <tspan font-family="Helvetica" font-size="20" fill="#334155" x="0" y="19" xml:space="preserve">-</tspan>
        </text>
      </g>
      <g id="Graphic_2">
        <title>Text</title>
        <text transform="translate(115 632.5996)" fill="#334155">
          <tspan font-family="Helvetica" font-size="20" fill="#334155" x="0" y="19" xml:space="preserve">The device can now call protected APIs.</tspan>
        </text>
      </g>
      <g id="Graphic_54">
        <path d="M 98 285 L 297 285 C 306.94113 285 315 293.05887 315 303 L 315 412 C 315 421.94113 306.94113 430 297 430 L 98 430 C 88.05887 430 80 421.94113 80 412 L 80 303 C 80 293.05887 88.05887 285 98 285 Z" fill="#ffffc0"/>
        <path d="M 98 285 L 297 285 C 306.94113 285 315 293.05887 315 303 L 315 412 C 315 421.94113 306.94113 430 297 430 L 98 430 C 88.05887 430 80 421.94113 80 412 L 80 303 C 80 293.05887 88.05887 285 98 285 Z" stroke="#334155" stroke-linecap="butt" stroke-linejoin="round" stroke-width="3"/>
        <text transform="translate(85 344.192)" fill="black">
          <tspan font-family="Helvetica Neue" font-size="22" fill="black" x="46.093" y="21" xml:space="preserve">CLI or Device</tspan>
        </text>
      </g>
      <g id="Line_58">
        <line x1="520.5" y1="357.5" x2="335.4" y2="357.5" marker-end="url(#FilledArrow_Marker)" stroke="black" stroke-linecap="round" stroke-linejoin="round" stroke-width="4"/>
      </g>
      <g id="Graphic_59">
        <rect x="352.8197" y="320.268" width="138.78966" height="34" fill="white"/>
        <clipPath id="clip_path">
          <rect x="0" y="0" width="138.78966" height="34" fill="white"/>
        </clipPath>
        <text clip-path="url(#clip_path)" transform="translate(352.8197 320.268)" fill="black">
          <tspan font-family="Helvetica" font-size="20" fill="black" x="37.71026" y="24" xml:space="preserve">Tokens</tspan>
        </text>
      </g>
      <g id="Group_68">
        <g id="Graphic_70">
          <path d="M 983 284.99315 L 1182 284.99315 C 1191.9411 284.99315 1200 293.05203 1200 302.99315 L 1200 411 C 1200 420.94113 1191.9411 429 1182 429 L 983 429 C 973.0589 429 965 420.94113 965 411 L 965 302.99315 C 965 293.05203 973.0589 284.99315 983 284.99315 Z" fill="#e2e8f0"/>
          <path d="M 983 284.99315 L 1182 284.99315 C 1191.9411 284.99315 1200 293.05203 1200 302.99315 L 1200 411 C 1200 420.94113 1191.9411 429 1182 429 L 983 429 C 973.0589 429 965 420.94113 965 411 L 965 302.99315 C 965 293.05203 973.0589 284.99315 983 284.99315 Z" stroke="#334155" stroke-linecap="butt" stroke-linejoin="round" stroke-width="3"/>
          <text transform="translate(970 343.68858)" fill="black">
            <tspan font-family="Helvetica Neue" font-size="22" fill="black" x="71.778" y="21" xml:space="preserve">Browser</tspan>
          </text>
        </g>
        <g id="Graphic_69">
          <path d="M 974 284 L 1191 284 C 1195.9706 284 1200 288.02944 1200 293 L 1200 298.8356 C 1200 303.80618 1195.9706 307.8356 1191 307.8356 L 974 307.8356 C 969.0294 307.8356 965 303.80618 965 298.8356 L 965 293 C 965 288.02944 969.0294 284 974 284 Z" fill="#c0c0ff"/>
          <path d="M 974 284 L 1191 284 C 1195.9706 284 1200 288.02944 1200 293 L 1200 298.8356 C 1200 303.80618 1195.9706 307.8356 1191 307.8356 L 974 307.8356 C 969.0294 307.8356 965 303.80618 965 298.8356 L 965 293 C 965 288.02944 969.0294 284 974 284 Z" stroke="#003776" stroke-linecap="round" stroke-linejoin="round" stroke-width="3"/>
        </g>
      </g>
      <g id="Group_64">
        <g id="Graphic_67">
          <circle cx="981.2246" cy="296.0879" r="5.43164930422882" fill="red"/>
          <circle cx="981.2246" cy="296.0879" r="5.43164930422882" stroke="#003776" stroke-linecap="round" stroke-linejoin="round" stroke-width="1"/>
        </g>
        <g id="Graphic_66">
          <circle cx="997.3225" cy="296.0879" r="5.43164930422881" fill="#ffff80"/>
          <circle cx="997.3225" cy="296.0879" r="5.43164930422881" stroke="#003776" stroke-linecap="round" stroke-linejoin="round" stroke-width="1"/>
        </g>
        <g id="Graphic_65">
          <circle cx="1013.4204" cy="296.0879" r="5.43164930422882" fill="lime"/>
          <circle cx="1013.4204" cy="296.0879" r="5.43164930422882" stroke="#003776" stroke-linecap="round" stroke-linejoin="round" stroke-width="1"/>
        </g>
      </g>
      <g id="Group_72">
        <g id="Group_76">
          <g id="Graphic_78" filter="url(#Shadow)">
            <title>Bézier</title>
            <path d="M 351.5234 192.36328 L 417.5234 192.36328 C 421.94167 192.36328 425.5234 195.945 425.5234 200.36328 L 425.5234 288.36328 C 425.5234 292.78156 421.94167 296.36328 417.5234 296.36328 L 351.5234 296.36328 C 347.1051 296.36328 343.5234 292.78156 343.5234 288.36328 L 343.5234 200.36328 C 343.5234 195.945 347.1051 192.36328 351.5234 192.36328 Z" fill="#f8fafc"/>
            <path d="M 351.5234 192.36328 L 417.5234 192.36328 C 421.94167 192.36328 425.5234 195.945 425.5234 200.36328 L 425.5234 288.36328 C 425.5234 292.78156 421.94167 296.36328 417.5234 296.36328 L 351.5234 296.36328 C 347.1051 296.36328 343.5234 292.78156 343.5234 288.36328 L 343.5234 200.36328 C 343.5234 195.945 347.1051 192.36328 351.5234 192.36328 Z" stroke="#011893" stroke-linecap="butt" stroke-linejoin="round" stroke-width="3"/>
          </g>
          <g id="Graphic_77">
            <title>Text</title>
            <text transform="translate(361.49263 212.36868)" fill="#011893">
              <tspan font-family="Helvetica" font-size="22" fill="#011893" x="0" y="21" xml:space="preserve">JWT</tspan>
            </text>
          </g>
        </g>
        <g id="Graphic_75">
          <rect x="359.3227" y="245.14645" width="50" height="10" fill="#c0c0ff"/>
          <rect x="359.3227" y="245.14645" width="50" height="10" stroke="#003776" stroke-linecap="round" stroke-linejoin="round" stroke-width="1"/>
        </g>
        <g id="Graphic_74">
          <rect x="359.5234" y="259.02417" width="50" height="10" fill="#c0ffff"/>
          <rect x="359.5234" y="259.02417" width="50" height="10" stroke="#003776" stroke-linecap="round" stroke-linejoin="round" stroke-width="1"/>
        </g>
        <g id="Graphic_73">
          <rect x="359.5234" y="272.9019" width="50" height="10" fill="#ffc0ff"/>
          <rect x="359.5234" y="272.9019" width="50" height="10" stroke="#003776" stroke-linecap="round" stroke-linejoin="round" stroke-width="1"/>
        </g>
      </g>
      <g id="Graphic_79">
        <path d="M 469.7615 263.80834 L 469.0046 270.65272 C 458.5385 269.4121 450.4175 260.47048 450.4175 249.61604 C 450.4175 244.91783 451.9447 240.58283 454.5217 237.07234 L 452.06783 234.60606 C 450.633 233.16406 451.1091 231.8001 453.1256 231.57475 L 462.5623 230.52068 C 464.5788 230.29533 466.0457 231.76987 465.8213 233.7965 L 464.7735 243.28183 C 464.54907 245.30847 463.1918 245.78738 461.75745 244.3454 L 459.4542 242.03033 C 458.0739 244.23017 457.26915 246.8282 457.26915 249.61628 C 457.26884 256.91038 462.73206 262.94342 469.7618 263.80818 Z M 489.37246 261.19566 C 491.9498 257.6848 493.4766 253.35017 493.4766 248.65196 C 493.4766 237.7405 485.2699 228.75873 474.72365 227.59375 L 473.9672 234.43813 C 481.0763 235.2271 486.62573 241.29885 486.62573 248.65196 C 486.62573 251.44034 485.8215 254.0383 484.44165 256.2379 L 482.13796 253.92285 C 480.7036 252.48085 479.3463 252.9593 479.1219 254.9864 L 478.0741 264.47173 C 477.8497 266.49837 479.3166 267.9729 481.3331 267.74756 L 490.7698 266.6935 C 492.7863 266.46814 493.26243 265.10418 491.8276 263.66218 Z" fill="#008f00"/>
      </g>
    </g>
  </g>
</svg>
