<?xml version="1.0" encoding="UTF-8" standalone="no"?>
<!DOCTYPE svg PUBLIC "-//W3C//DTD SVG 1.1//EN" "http://www.w3.org/Graphics/SVG/1.1/DTD/svg11.dtd">
<svg version="1.1" xmlns="http://www.w3.org/2000/svg" xmlns:dc="http://purl.org/dc/elements/1.1/" xmlns:xl="http://www.w3.org/1999/xlink" viewBox="0 0 1280 720" width="1280" height="720">
  <defs>
    <marker orient="auto" overflow="visible" markerUnits="strokeWidth" id="FilledArrow_Marker" stroke-linejoin="miter" stroke-miterlimit="10" viewBox="-1 -3 6 6" markerWidth="6" markerHeight="6" color="black">
      <g>
        <path d="M 3.2 0 L 0 -1.2 L 0 1.2 Z" fill="currentColor" stroke="currentColor" stroke-width="1"/>
      </g>
    </marker>
  </defs>
  <g id="01-oidc-start" fill-opacity="1" stroke="none" fill="none" stroke-opacity="1" stroke-dasharray="none">
    <title>01-oidc-start</title>
    <g id="01-oidc-start_Layer_1">
      <title>Layer 1</title>
      <g id="Graphic_25">
        <path d="M 540.5 285 L 739.5 285 C 749.4411 285 757.5 293.05887 757.5 303 L 757.5 412 C 757.5 421.94113 749.4411 430 739.5 430 L 540.5 430 C 530.5589 430 522.5 421.94113 522.5 412 L 522.5 303 C 522.5 293.05887 530.5589 285 540.5 285 Z" fill="#e2e8f0"/>
        <path d="M 540.5 285 L 739.5 285 C 749.4411 285 757.5 293.05887 757.5 303 L 757.5 412 C 757.5 421.94113 749.4411 430 739.5 430 L 540.5 430 C 530.5589 430 522.5 421.94113 522.5 412 L 522.5 303 C 522.5 293.05887 530.5589 285 540.5 285 Z" stroke="#334155" stroke-linecap="butt" stroke-linejoin="round" stroke-width="3"/>
        <text transform="translate(527.5 344.192)" fill="black">
          <tspan font-family="Helvetica Neue" font-size="22" fill="black" x="32.244" y="21" xml:space="preserve">Web Application</tspan>
        </text>
      </g>
      <g id="Graphic_21">
        <title>Text</title>
      </g>
      <g id="Graphic_20">
        <path d="M 98 285 L 297 285 C 306.94113 285 315 293.05887 315 303 L 315 412 C 315 421.94113 306.94113 430 297 430 L 98 430 C 88.05887 430 80 421.94113 80 412 L 80 303 C 80 293.05887 88.05887 285 98 285 Z" fill="#dcfce7"/>
        <path d="M 98 285 L 297 285 C 306.94113 285 315 293.05887 315 303 L 315 412 C 315 421.94113 306.94113 430 297 430 L 98 430 C 88.05887 430 80 421.94113 80 412 L 80 303 C 80 293.05887 88.05887 285 98 285 Z" stroke="#334155" stroke-linecap="butt" stroke-linejoin="round" stroke-width="3"/>
        <text transform="translate(85 344.192)" fill="black">
          <tspan font-family="Helvetica Neue" font-size="22" fill="black" x="84.186" y="21" xml:space="preserve">Client</tspan>
        </text>
      </g>
      <g id="Graphic_5">
        <title>Text</title>
        <text transform="translate(92 602.5996)" fill="#334155">
          <tspan font-family="Helvetica" font-size="20" fill="#334155" x="0" y="19" xml:space="preserve">-</tspan>
        </text>
      </g>
      <g id="Graphic_3">
        <title>Text</title>
        <text transform="translate(92 632.5996)" fill="#334155">
          <tspan font-family="Helvetica" font-size="20" fill="#334155" x="0" y="19" xml:space="preserve">-</tspan>
        </text>
      </g>
      <g id="Graphic_24">
        <title>Text</title>
        <text transform="translate(323.72504 38.819336)" fill="#102a43">
          <tspan font-family="Helvetica" font-size="34" fill="#102a43" x="0" y="33" xml:space="preserve">Client Makes Request to Web Application</tspan>
        </text>
      </g>
      <g id="Graphic_62">
        <path d="M 983 283.58752 L 1182 283.58752 C 1191.9411 283.58752 1200 291.6464 1200 301.5875 L 1200 410.5875 C 1200 420.52864 1191.9411 428.5875 1182 428.5875 L 983 428.5875 C 973.0589 428.5875 965 420.52864 965 410.5875 L 965 301.5875 C 965 291.6464 973.0589 283.58752 983 283.58752 Z" fill="#1e3a5f"/>
        <path d="M 983 283.58752 L 1182 283.58752 C 1191.9411 283.58752 1200 291.6464 1200 301.5875 L 1200 410.5875 C 1200 420.52864 1191.9411 428.5875 1182 428.5875 L 983 428.5875 C 973.0589 428.5875 965 420.52864 965 410.5875 L 965 301.5875 C 965 291.6464 973.0589 283.58752 983 283.58752 Z" stroke="white" stroke-linecap="butt" stroke-linejoin="round" stroke-width="3"/>
        <text transform="translate(970 342.7795)" fill="white">
          <tspan font-family="Helvetica Neue" font-size="22" fill="white" x="67.477" y="21" xml:space="preserve">Keycloak</tspan>
        </text>
      </g>
      <g id="Graphic_63">
        <path d="M 1160.6346 429.4819 C 1164.279 429.4891 1167.8439 428.4144 1170.8767 426.394 C 1173.91 424.3736 1176.2755 421.49837 1177.673 418.1329 C 1179.071 414.7672 1179.4386 411.06245 1178.7293 407.48755 C 1178.0201 403.91285 1176.2659 400.62885 1173.689 398.0517 C 1171.1121 395.47453 1167.828 393.72036 1164.2531 393.01143 C 1160.6783 392.30205 1156.9734 392.66973 1153.6078 394.06773 C 1150.2421 395.46556 1147.367 397.8309 1145.3467 400.86395 C 1143.3263 403.89723 1142.2516 407.4618 1142.2588 411.10613 C 1142.26 413.01205 1142.553 414.9065 1143.1276 416.7236 L 1126.2632 433.56416 C 1125.7887 434.03196 1125.5227 434.6712 1125.5254 435.33757 L 1125.5254 443.6686 C 1125.5126 444.3417 1125.7718 444.9916 1126.2447 445.47105 C 1126.7173 445.9503 1127.3633 446.21876 1128.0367 446.2155 L 1136.3677 446.2155 C 1137.0346 446.2186 1137.6752 445.95515 1138.1469 445.48345 C 1138.6186 445.01176 1138.882 444.37116 1138.8789 443.70424 L 1138.8789 439.52693 L 1143.0682 439.52693 C 1143.7332 439.52383 1144.3702 439.25825 1144.8405 438.78795 C 1145.3106 438.3176 1145.5762 437.6807 1145.5792 437.0157 L 1145.5792 432.8264 L 1149.7567 432.8264 C 1150.4231 432.82913 1151.0623 432.56317 1151.53 432.0886 L 1155.0171 428.61345 L 1155.0171 428.61326 C 1156.8343 429.1878 1158.7287 429.4809 1160.6346 429.48207 Z M 1164.8239 402.70367 C 1165.9356 402.70367 1167.0017 403.1457 1167.7876 403.93214 C 1168.5733 404.7186 1169.0142 405.78515 1169.0132 406.89704 C 1169.012 408.00873 1168.5693 409.0745 1167.782 409.8594 C 1166.9946 410.6445 1165.9276 411.0844 1164.816 411.0823 C 1163.7041 411.08015 1162.6389 410.63617 1161.8546 409.84815 C 1161.0703 409.06033 1160.6315 407.9928 1160.6346 406.8811 C 1160.6346 405.76477 1161.081 404.69512 1161.8749 403.91022 C 1162.6687 403.1255 1163.7434 402.691 1164.8596 402.7036 Z" fill="#eedc82"/>
        <path d="M 1160.6346 429.4819 C 1164.279 429.4891 1167.8439 428.4144 1170.8767 426.394 C 1173.91 424.3736 1176.2755 421.49837 1177.673 418.1329 C 1179.071 414.7672 1179.4386 411.06245 1178.7293 407.48755 C 1178.0201 403.91285 1176.2659 400.62885 1173.689 398.0517 C 1171.1121 395.47453 1167.828 393.72036 1164.2531 393.01143 C 1160.6783 392.30205 1156.9734 392.66973 1153.6078 394.06773 C 1150.2421 395.46556 1147.367 397.8309 1145.3467 400.86395 C 1143.3263 403.89723 1142.2516 407.4618 1142.2588 411.10613 C 1142.26 413.01205 1142.553 414.9065 1143.1276 416.7236 L 1126.2632 433.56416 C 1125.7887 434.03196 1125.5227 434.6712 1125.5254 435.33757 L 1125.5254 443.6686 C 1125.5126 444.3417 1125.7718 444.9916 1126.2447 445.47105 C 1126.7173 445.9503 1127.3633 446.21876 1128.0367 446.2155 L 1136.3677 446.2155 C 1137.0346 446.2186 1137.6752 445.95515 1138.1469 445.48345 C 1138.6186 445.01176 1138.882 444.37116 1138.8789 443.70424 L 1138.8789 439.52693 L 1143.0682 439.52693 C 1143.7332 439.52383 1144.3702 439.25825 1144.8405 438.78795 C 1145.3106 438.3176 1145.5762 437.6807 1145.5792 437.0157 L 1145.5792 432.8264 L 1149.7567 432.8264 C 1150.4231 432.82913 1151.0623 432.56317 1151.53 432.0886 L 1155.0171 428.61345 L 1155.0171 428.61326 C 1156.8343 429.1878 1158.7287 429.4809 1160.6346 429.48207 Z M 1164.8239 402.70367 C 1165.9356 402.70367 1167.0017 403.1457 1167.7876 403.93214 C 1168.5733 404.7186 1169.0142 405.78515 1169.0132 406.89704 C 1169.012 408.00873 1168.5693 409.0745 1167.782 409.8594 C 1166.9946 410.6445 1165.9276 411.0844 1164.816 411.0823 C 1163.7041 411.08015 1162.6389 410.63617 1161.8546 409.84815 C 1161.0703 409.06033 1160.6315 407.9928 1160.6346 406.8811 C 1160.6346 405.76477 1161.081 404.69512 1161.8749 403.91022 C 1162.6687 403.1255 1163.7434 402.691 1164.8596 402.7036 Z" stroke="black" stroke-linecap="butt" stroke-linejoin="round" stroke-width="2"/>
      </g>
      <g id="Graphic_64">
        <text transform="translate(1066.8711 451.2155)" fill="black">
          <tspan font-family="Helvetica" font-size="17" fill="black" x="0" y="16" xml:space="preserve">Private Signing Key</tspan>
        </text>
      </g>
      <g id="Line_65">
        <line x1="316.5" y1="357.5" x2="502.1" y2="357.5" marker-end="url(#FilledArrow_Marker)" stroke="black" stroke-linecap="round" stroke-linejoin="round" stroke-width="4"/>
      </g>
      <g id="Graphic_66">
        <rect x="376.5039" y="321.22443" width="84.49219" height="34" fill="white"/>
        <text transform="translate(381.5039 326.22443)" fill="black">
          <tspan font-family="Helvetica" font-size="20" fill="black" x="0" y="19" xml:space="preserve">Request</tspan>
        </text>
      </g>
    </g>
  </g>
</svg>
