<?xml version="1.0" encoding="UTF-8" standalone="no"?>
<!DOCTYPE svg PUBLIC "-//W3C//DTD SVG 1.1//EN" "http://www.w3.org/Graphics/SVG/1.1/DTD/svg11.dtd">
<svg version="1.1" xmlns="http://www.w3.org/2000/svg" xmlns:dc="http://purl.org/dc/elements/1.1/" xmlns:xl="http://www.w3.org/1999/xlink" viewBox="0 0 1280 720" width="1280" height="720">
  <defs>
    <marker orient="auto" overflow="visible" markerUnits="strokeWidth" id="FilledArrow_Marker" stroke-linejoin="miter" stroke-miterlimit="10" viewBox="-1 -3 6 6" markerWidth="6" markerHeight="6" color="black">
      <g>
        <path d="M 3.2 0 L 0 -1.2 L 0 1.2 Z" fill="currentColor" stroke="currentColor" stroke-width="1"/>
      </g>
    </marker>
    <filter id="Shadow" filterUnits="userSpaceOnUse" x="-128" y="-72">
      <feGaussianBlur in="SourceAlpha" result="blur" stdDeviation="1.308"/>
      <feOffset in="blur" result="offset" dx="0" dy="2"/>
      <feFlood flood-color="black" flood-opacity=".5" result="flood"/>
      <feComposite in="flood" in2="offset" operator="in" result="color"/>
      <feMerge>
        <feMergeNode in="color"/>
        <feMergeNode in="SourceGraphic"/>
      </feMerge>
    </filter>
  </defs>
  <g id="06-jwks-verification-key" fill-opacity="1" stroke="none" fill="none" stroke-opacity="1" stroke-dasharray="none">
    <title>06-jwks-verification-key</title>
    <g id="06-jwks-verification-key_Layer_1">
      <title>Layer 1</title>
      <g id="Graphic_25">
        <path d="M 540.5 285 L 739.5 285 C 749.4411 285 757.5 293.05887 757.5 303 L 757.5 412 C 757.5 421.94113 749.4411 430 739.5 430 L 540.5 430 C 530.5589 430 522.5 421.94113 522.5 412 L 522.5 303 C 522.5 293.05887 530.5589 285 540.5 285 Z" fill="#e2e8f0"/>
        <path d="M 540.5 285 L 739.5 285 C 749.4411 285 757.5 293.05887 757.5 303 L 757.5 412 C 757.5 421.94113 749.4411 430 739.5 430 L 540.5 430 C 530.5589 430 522.5 421.94113 522.5 412 L 522.5 303 C 522.5 293.05887 530.5589 285 540.5 285 Z" stroke="#334155" stroke-linecap="butt" stroke-linejoin="round" stroke-width="3"/>
        <text transform="translate(527.5 344.192)" fill="black">
          <tspan font-family="Helvetica Neue" font-size="22" fill="black" x="32.244" y="21" xml:space="preserve">Web Application</tspan>
        </text>
      </g>
      <g id="Graphic_21">
        <title>Text</title>
      </g>
      <g id="Graphic_20">
        <path d="M 98 285 L 297 285 C 306.94113 285 315 293.05887 315 303 L 315 412 C 315 421.94113 306.94113 430 297 430 L 98 430 C 88.05887 430 80 421.94113 80 412 L 80 303 C 80 293.05887 88.05887 285 98 285 Z" fill="#dcfce7"/>
        <path d="M 98 285 L 297 285 C 306.94113 285 315 293.05887 315 303 L 315 412 C 315 421.94113 306.94113 430 297 430 L 98 430 C 88.05887 430 80 421.94113 80 412 L 80 303 C 80 293.05887 88.05887 285 98 285 Z" stroke="#334155" stroke-linecap="butt" stroke-linejoin="round" stroke-width="3"/>
        <text transform="translate(85 344.192)" fill="black">
          <tspan font-family="Helvetica Neue" font-size="22" fill="black" x="84.186" y="21" xml:space="preserve">Client</tspan>
        </text>
      </g>
      <g id="Graphic_5">
        <title>Text</title>
        <text transform="translate(92 602.5996)" fill="#334155">
          <tspan font-family="Helvetica" font-size="20" fill="#334155" x="0" y="19" xml:space="preserve">-</tspan>
        </text>
      </g>
      <g id="Graphic_3">
        <title>Text</title>
        <text transform="translate(92 632.5996)" fill="#334155">
          <tspan font-family="Helvetica" font-size="20" fill="#334155" x="0" y="19" xml:space="preserve">-</tspan>
        </text>
      </g>
      <g id="Graphic_24">
        <title>Text</title>
        <text transform="translate(230.93088 38.819336)" fill="#102a43">
          <tspan font-family="Helvetica" font-size="34" fill="#102a43" x="0" y="33" xml:space="preserve">Web Application Retrieves Public Keys from JWKS</tspan>
        </text>
      </g>
      <g id="Graphic_62">
        <path d="M 983 283.58752 L 1182 283.58752 C 1191.9411 283.58752 1200 291.6464 1200 301.5875 L 1200 410.5875 C 1200 420.52864 1191.9411 428.5875 1182 428.5875 L 983 428.5875 C 973.0589 428.5875 965 420.52864 965 410.5875 L 965 301.5875 C 965 291.6464 973.0589 283.58752 983 283.58752 Z" fill="#1e3a5f"/>
        <path d="M 983 283.58752 L 1182 283.58752 C 1191.9411 283.58752 1200 291.6464 1200 301.5875 L 1200 410.5875 C 1200 420.52864 1191.9411 428.5875 1182 428.5875 L 983 428.5875 C 973.0589 428.5875 965 420.52864 965 410.5875 L 965 301.5875 C 965 291.6464 973.0589 283.58752 983 283.58752 Z" stroke="white" stroke-linecap="butt" stroke-linejoin="round" stroke-width="3"/>
        <text transform="translate(970 342.7795)" fill="white">
          <tspan font-family="Helvetica Neue" font-size="22" fill="white" x="67.477" y="21" xml:space="preserve">Keycloak</tspan>
        </text>
      </g>
      <g id="Graphic_63">
        <path d="M 1160.6346 429.4819 C 1164.279 429.4891 1167.8439 428.4144 1170.8767 426.394 C 1173.91 424.3736 1176.2755 421.49837 1177.673 418.1329 C 1179.071 414.7672 1179.4386 411.06245 1178.7293 407.48755 C 1178.0201 403.91285 1176.2659 400.62885 1173.689 398.0517 C 1171.1121 395.47453 1167.828 393.72036 1164.2531 393.01143 C 1160.6783 392.30205 1156.9734 392.66973 1153.6078 394.06773 C 1150.2421 395.46556 1147.367 397.8309 1145.3467 400.86395 C 1143.3263 403.89723 1142.2516 407.4618 1142.2588 411.10613 C 1142.26 413.01205 1142.553 414.9065 1143.1276 416.7236 L 1126.2632 433.56416 C 1125.7887 434.03196 1125.5227 434.6712 1125.5254 435.33757 L 1125.5254 443.6686 C 1125.5126 444.3417 1125.7718 444.9916 1126.2447 445.47105 C 1126.7173 445.9503 1127.3633 446.21876 1128.0367 446.2155 L 1136.3677 446.2155 C 1137.0346 446.2186 1137.6752 445.95515 1138.1469 445.48345 C 1138.6186 445.01176 1138.882 444.37116 1138.8789 443.70424 L 1138.8789 439.52693 L 1143.0682 439.52693 C 1143.7332 439.52383 1144.3702 439.25825 1144.8405 438.78795 C 1145.3106 438.3176 1145.5762 437.6807 1145.5792 437.0157 L 1145.5792 432.8264 L 1149.7567 432.8264 C 1150.4231 432.82913 1151.0623 432.56317 1151.53 432.0886 L 1155.0171 428.61345 L 1155.0171 428.61326 C 1156.8343 429.1878 1158.7287 429.4809 1160.6346 429.48207 Z M 1164.8239 402.70367 C 1165.9356 402.70367 1167.0017 403.1457 1167.7876 403.93214 C 1168.5733 404.7186 1169.0142 405.78515 1169.0132 406.89704 C 1169.012 408.00873 1168.5693 409.0745 1167.782 409.8594 C 1166.9946 410.6445 1165.9276 411.0844 1164.816 411.0823 C 1163.7041 411.08015 1162.6389 410.63617 1161.8546 409.84815 C 1161.0703 409.06033 1160.6315 407.9928 1160.6346 406.8811 C 1160.6346 405.76477 1161.081 404.69512 1161.8749 403.91022 C 1162.6687 403.1255 1163.7434 402.691 1164.8596 402.7036 Z" fill="#eedc82"/>
        <path d="M 1160.6346 429.4819 C 1164.279 429.4891 1167.8439 428.4144 1170.8767 426.394 C 1173.91 424.3736 1176.2755 421.49837 1177.673 418.1329 C 1179.071 414.7672 1179.4386 411.06245 1178.7293 407.48755 C 1178.0201 403.91285 1176.2659 400.62885 1173.689 398.0517 C 1171.1121 395.47453 1167.828 393.72036 1164.2531 393.01143 C 1160.6783 392.30205 1156.9734 392.66973 1153.6078 394.06773 C 1150.2421 395.46556 1147.367 397.8309 1145.3467 400.86395 C 1143.3263 403.89723 1142.2516 407.4618 1142.2588 411.10613 C 1142.26 413.01205 1142.553 414.9065 1143.1276 416.7236 L 1126.2632 433.56416 C 1125.7887 434.03196 1125.5227 434.6712 1125.5254 435.33757 L 1125.5254 443.6686 C 1125.5126 444.3417 1125.7718 444.9916 1126.2447 445.47105 C 1126.7173 445.9503 1127.3633 446.21876 1128.0367 446.2155 L 1136.3677 446.2155 C 1137.0346 446.2186 1137.6752 445.95515 1138.1469 445.48345 C 1138.6186 445.01176 1138.882 444.37116 1138.8789 443.70424 L 1138.8789 439.52693 L 1143.0682 439.52693 C 1143.7332 439.52383 1144.3702 439.25825 1144.8405 438.78795 C 1145.3106 438.3176 1145.5762 437.6807 1145.5792 437.0157 L 1145.5792 432.8264 L 1149.7567 432.8264 C 1150.4231 432.82913 1151.0623 432.56317 1151.53 432.0886 L 1155.0171 428.61345 L 1155.0171 428.61326 C 1156.8343 429.1878 1158.7287 429.4809 1160.6346 429.48207 Z M 1164.8239 402.70367 C 1165.9356 402.70367 1167.0017 403.1457 1167.7876 403.93214 C 1168.5733 404.7186 1169.0142 405.78515 1169.0132 406.89704 C 1169.012 408.00873 1168.5693 409.0745 1167.782 409.8594 C 1166.9946 410.6445 1165.9276 411.0844 1164.816 411.0823 C 1163.7041 411.08015 1162.6389 410.63617 1161.8546 409.84815 C 1161.0703 409.06033 1160.6315 407.9928 1160.6346 406.8811 C 1160.6346 405.76477 1161.081 404.69512 1161.8749 403.91022 C 1162.6687 403.1255 1163.7434 402.691 1164.8596 402.7036 Z" stroke="black" stroke-linecap="butt" stroke-linejoin="round" stroke-width="2"/>
      </g>
      <g id="Graphic_64">
        <text transform="translate(1066.8711 451.2155)" fill="black">
          <tspan font-family="Helvetica" font-size="17" fill="black" x="0" y="16" xml:space="preserve">Private Signing Key</tspan>
        </text>
      </g>
      <g id="Line_83">
        <line x1="757.5" y1="321.25" x2="946.1004" y2="319.96617" marker-end="url(#FilledArrow_Marker)" stroke="black" stroke-linecap="round" stroke-linejoin="round" stroke-width="4"/>
      </g>
      <g id="Line_84">
        <line x1="965" y1="392.3375" x2="776.3996" y2="393.62135" marker-end="url(#FilledArrow_Marker)" stroke="black" stroke-linecap="round" stroke-linejoin="round" stroke-width="4"/>
      </g>
      <g id="Group_92">
        <g id="Graphic_96" filter="url(#Shadow)">
          <path d="M 805.8516 409.2155 L 925.3516 409.2155 C 930.3221 409.2155 934.3516 413.24496 934.3516 418.2155 L 934.3516 504.2155 C 934.3516 509.1861 930.3221 513.2155 925.3516 513.2155 L 805.8516 513.2155 C 800.881 513.2155 796.8516 509.1861 796.8516 504.2155 L 796.8516 418.2155 C 796.8516 413.24496 800.881 409.2155 805.8516 409.2155 Z" fill="#ffc0c0"/>
          <path d="M 805.8516 409.2155 L 925.3516 409.2155 C 930.3221 409.2155 934.3516 413.24496 934.3516 418.2155 L 934.3516 504.2155 C 934.3516 509.1861 930.3221 513.2155 925.3516 513.2155 L 805.8516 513.2155 C 800.881 513.2155 796.8516 509.1861 796.8516 504.2155 L 796.8516 418.2155 C 796.8516 413.24496 800.881 409.2155 805.8516 409.2155 Z" stroke="#003776" stroke-linecap="round" stroke-linejoin="round" stroke-width="3"/>
          <text transform="translate(801.8516 429.2155)" fill="#003776">
            <tspan font-family="Helvetica" font-size="20" fill="#003776" x="35.97168" y="19" xml:space="preserve">JWKS</tspan>
          </text>
        </g>
        <g id="Graphic_95">
          <path d="M 835.632 480.17724 C 837.2652 480.18045 838.8627 479.69886 840.2218 478.79345 C 841.5811 477.88807 842.6412 476.5996 843.2674 475.09143 C 843.8939 473.5832 844.0586 471.92297 843.7408 470.32096 C 843.423 468.71904 842.6368 467.2474 841.4821 466.0925 C 840.3273 464.9376 838.8556 464.1515 837.2536 463.8338 C 835.6516 463.5159 833.9914 463.6807 832.4831 464.30717 C 830.9749 464.9336 829.6865 465.99356 828.7811 467.35274 C 827.8757 468.71204 827.3941 470.3094 827.3973 471.94255 C 827.3978 472.79664 827.5292 473.6456 827.7867 474.4599 L 820.2293 482.0066 C 820.0166 482.21624 819.8974 482.5027 819.8986 482.8013 L 819.8986 486.5347 C 819.8929 486.8363 820.0091 487.12757 820.221 487.3424 C 820.4328 487.5572 820.7223 487.6775 821.024 487.676 L 824.7574 487.676 C 825.0562 487.6774 825.3433 487.55935 825.5547 487.34797 C 825.7661 487.1366 825.8841 486.8495 825.8827 486.55065 L 825.8827 484.6787 L 827.7601 484.6787 C 828.0581 484.6773 828.3435 484.5583 828.5542 484.34753 C 828.7649 484.13676 828.8839 483.85135 828.8853 483.55335 L 828.8853 481.676 L 830.7574 481.676 C 831.056 481.6772 831.3424 481.55803 831.552 481.34536 L 833.1147 479.78806 L 833.1147 479.788 C 833.929 480.04544 834.778 480.1768 835.632 480.1773 Z M 837.5094 468.17717 C 838.0075 468.17717 838.4853 468.37526 838.8375 468.7277 C 839.1896 469.0801 839.3872 469.55807 839.3867 470.05634 C 839.3862 470.5545 839.1878 471.0321 838.835 471.38386 C 838.4821 471.7357 838.004 471.9328 837.5058 471.93186 C 837.0076 471.9309 836.5302 471.73194 836.1787 471.3788 C 835.8273 471.02577 835.6306 470.5474 835.632 470.0492 C 835.632 469.54893 835.8321 469.0696 836.1878 468.71786 C 836.5436 468.3662 837.0252 468.1715 837.5254 468.17715 Z" fill="#eedc82"/>
          <path d="M 835.632 480.17724 C 837.2652 480.18045 838.8627 479.69886 840.2218 478.79345 C 841.5811 477.88807 842.6412 476.5996 843.2674 475.09143 C 843.8939 473.5832 844.0586 471.92297 843.7408 470.32096 C 843.423 468.71904 842.6368 467.2474 841.4821 466.0925 C 840.3273 464.9376 838.8556 464.1515 837.2536 463.8338 C 835.6516 463.5159 833.9914 463.6807 832.4831 464.30717 C 830.9749 464.9336 829.6865 465.99356 828.7811 467.35274 C 827.8757 468.71204 827.3941 470.3094 827.3973 471.94255 C 827.3978 472.79664 827.5292 473.6456 827.7867 474.4599 L 820.2293 482.0066 C 820.0166 482.21624 819.8974 482.5027 819.8986 482.8013 L 819.8986 486.5347 C 819.8929 486.8363 820.0091 487.12757 820.221 487.3424 C 820.4328 487.5572 820.7223 487.6775 821.024 487.676 L 824.7574 487.676 C 825.0562 487.6774 825.3433 487.55935 825.5547 487.34797 C 825.7661 487.1366 825.8841 486.8495 825.8827 486.55065 L 825.8827 484.6787 L 827.7601 484.6787 C 828.0581 484.6773 828.3435 484.5583 828.5542 484.34753 C 828.7649 484.13676 828.8839 483.85135 828.8853 483.55335 L 828.8853 481.676 L 830.7574 481.676 C 831.056 481.6772 831.3424 481.55803 831.552 481.34536 L 833.1147 479.78806 L 833.1147 479.788 C 833.929 480.04544 834.778 480.1768 835.632 480.1773 Z M 837.5094 468.17717 C 838.0075 468.17717 838.4853 468.37526 838.8375 468.7277 C 839.1896 469.0801 839.3872 469.55807 839.3867 470.05634 C 839.3862 470.5545 839.1878 471.0321 838.835 471.38386 C 838.4821 471.7357 838.004 471.9328 837.5058 471.93186 C 837.0076 471.9309 836.5302 471.73194 836.1787 471.3788 C 835.8273 471.02577 835.6306 470.5474 835.632 470.0492 C 835.632 469.54893 835.8321 469.0696 836.1878 468.71786 C 836.5436 468.3662 837.0252 468.1715 837.5254 468.17715 Z" stroke="black" stroke-linecap="butt" stroke-linejoin="round" stroke-width="2"/>
        </g>
        <g id="Graphic_94">
          <path d="M 869.3351 480.17724 C 870.9683 480.18045 872.5658 479.69886 873.9249 478.79345 C 875.2842 477.88807 876.3443 476.5996 876.9705 475.09143 C 877.5969 473.5832 877.7617 471.92297 877.4438 470.32096 C 877.126 468.71904 876.3399 467.2474 875.1852 466.0925 C 874.0304 464.9376 872.5587 464.1515 870.9567 463.8338 C 869.3547 463.5159 867.6944 463.6807 866.1862 464.30717 C 864.678 464.9336 863.3895 465.99356 862.4842 467.35274 C 861.5788 468.71204 861.0972 470.3094 861.1004 471.94255 C 861.1009 472.79664 861.2323 473.6456 861.4897 474.4599 L 853.9324 482.0066 C 853.7197 482.21624 853.6005 482.5027 853.6017 482.8013 L 853.6017 486.5347 C 853.596 486.8363 853.7121 487.12757 853.924 487.3424 C 854.1358 487.5572 854.4253 487.6775 854.7271 487.676 L 858.4604 487.676 C 858.7593 487.6774 859.0464 487.55935 859.2578 487.34797 C 859.4691 487.1366 859.5872 486.8495 859.5858 486.55065 L 859.5858 484.6787 L 861.4631 484.6787 C 861.7611 484.6773 862.0466 484.5583 862.2573 484.34753 C 862.468 484.13676 862.587 483.85135 862.5884 483.55335 L 862.5884 481.676 L 864.4604 481.676 C 864.7591 481.6772 865.0455 481.55803 865.2551 481.34536 L 866.8178 479.78806 L 866.8178 479.788 C 867.6321 480.04544 868.481 480.1768 869.3351 480.1773 Z M 871.2124 468.17717 C 871.7106 468.17717 872.1884 468.37526 872.5406 468.7277 C 872.8927 469.0801 873.0902 469.55807 873.0898 470.05634 C 873.0893 470.5545 872.8909 471.0321 872.5381 471.38386 C 872.1852 471.7357 871.7071 471.9328 871.2089 471.93186 C 870.7106 471.9309 870.2333 471.73194 869.8818 471.3788 C 869.5303 471.02577 869.3337 470.5474 869.3351 470.0492 C 869.3351 469.54893 869.5352 469.0696 869.8909 468.71786 C 870.2467 468.3662 870.7283 468.1715 871.2284 468.17715 Z" fill="#eedc82"/>
          <path d="M 869.3351 480.17724 C 870.9683 480.18045 872.5658 479.69886 873.9249 478.79345 C 875.2842 477.88807 876.3443 476.5996 876.9705 475.09143 C 877.5969 473.5832 877.7617 471.92297 877.4438 470.32096 C 877.126 468.71904 876.3399 467.2474 875.1852 466.0925 C 874.0304 464.9376 872.5587 464.1515 870.9567 463.8338 C 869.3547 463.5159 867.6944 463.6807 866.1862 464.30717 C 864.678 464.9336 863.3895 465.99356 862.4842 467.35274 C 861.5788 468.71204 861.0972 470.3094 861.1004 471.94255 C 861.1009 472.79664 861.2323 473.6456 861.4897 474.4599 L 853.9324 482.0066 C 853.7197 482.21624 853.6005 482.5027 853.6017 482.8013 L 853.6017 486.5347 C 853.596 486.8363 853.7121 487.12757 853.924 487.3424 C 854.1358 487.5572 854.4253 487.6775 854.7271 487.676 L 858.4604 487.676 C 858.7593 487.6774 859.0464 487.55935 859.2578 487.34797 C 859.4691 487.1366 859.5872 486.8495 859.5858 486.55065 L 859.5858 484.6787 L 861.4631 484.6787 C 861.7611 484.6773 862.0466 484.5583 862.2573 484.34753 C 862.468 484.13676 862.587 483.85135 862.5884 483.55335 L 862.5884 481.676 L 864.4604 481.676 C 864.7591 481.6772 865.0455 481.55803 865.2551 481.34536 L 866.8178 479.78806 L 866.8178 479.788 C 867.6321 480.04544 868.481 480.1768 869.3351 480.1773 Z M 871.2124 468.17717 C 871.7106 468.17717 872.1884 468.37526 872.5406 468.7277 C 872.8927 469.0801 873.0902 469.55807 873.0898 470.05634 C 873.0893 470.5545 872.8909 471.0321 872.5381 471.38386 C 872.1852 471.7357 871.7071 471.9328 871.2089 471.93186 C 870.7106 471.9309 870.2333 471.73194 869.8818 471.3788 C 869.5303 471.02577 869.3337 470.5474 869.3351 470.0492 C 869.3351 469.54893 869.5352 469.0696 869.8909 468.71786 C 870.2467 468.3662 870.7283 468.1715 871.2284 468.17715 Z" stroke="black" stroke-linecap="butt" stroke-linejoin="round" stroke-width="2"/>
        </g>
        <g id="Graphic_93">
          <path d="M 903.0382 480.17724 C 904.6713 480.18045 906.2689 479.69886 907.628 478.79345 C 908.9873 477.88807 910.0473 476.5996 910.6736 475.09143 C 911.3 473.5832 911.4648 471.92297 911.1469 470.32096 C 910.8291 468.71904 910.043 467.2474 908.8882 466.0925 C 907.7335 464.9376 906.2618 464.1515 904.6598 463.8338 C 903.0578 463.5159 901.3975 463.6807 899.8893 464.30717 C 898.381 464.9336 897.0926 465.99356 896.1873 467.35274 C 895.2819 468.71204 894.8003 470.3094 894.8035 471.94255 C 894.804 472.79664 894.9353 473.6456 895.1928 474.4599 L 887.6354 482.0066 C 887.4228 482.21624 887.3036 482.5027 887.3048 482.8013 L 887.3048 486.5347 C 887.2991 486.8363 887.4152 487.12757 887.6271 487.3424 C 887.8389 487.5572 888.1284 487.6775 888.4302 487.676 L 892.1635 487.676 C 892.4624 487.6774 892.7495 487.55935 892.9608 487.34797 C 893.1722 487.1366 893.2903 486.8495 893.2889 486.55065 L 893.2889 484.6787 L 895.1662 484.6787 C 895.4642 484.6773 895.7497 484.5583 895.9604 484.34753 C 896.1711 484.13676 896.2901 483.85135 896.2915 483.55335 L 896.2915 481.676 L 898.1635 481.676 C 898.4622 481.6772 898.7486 481.55803 898.9582 481.34536 L 900.5208 479.78806 L 900.5208 479.788 C 901.3352 480.04544 902.1841 480.1768 903.0382 480.1773 Z M 904.9155 468.17717 C 905.4137 468.17717 905.8915 468.37526 906.2437 468.7277 C 906.5958 469.0801 906.7933 469.55807 906.7929 470.05634 C 906.7924 470.5545 906.5939 471.0321 906.2412 471.38386 C 905.8883 471.7357 905.4101 471.9328 904.912 471.93186 C 904.4137 471.9309 903.9364 471.73194 903.5849 471.3788 C 903.2334 471.02577 903.0368 470.5474 903.0382 470.0492 C 903.0382 469.54893 903.2383 469.0696 903.594 468.71786 C 903.9497 468.3662 904.4313 468.1715 904.9315 468.17715 Z" fill="#eedc82"/>
          <path d="M 903.0382 480.17724 C 904.6713 480.18045 906.2689 479.69886 907.628 478.79345 C 908.9873 477.88807 910.0473 476.5996 910.6736 475.09143 C 911.3 473.5832 911.4648 471.92297 911.1469 470.32096 C 910.8291 468.71904 910.043 467.2474 908.8882 466.0925 C 907.7335 464.9376 906.2618 464.1515 904.6598 463.8338 C 903.0578 463.5159 901.3975 463.6807 899.8893 464.30717 C 898.381 464.9336 897.0926 465.99356 896.1873 467.35274 C 895.2819 468.71204 894.8003 470.3094 894.8035 471.94255 C 894.804 472.79664 894.9353 473.6456 895.1928 474.4599 L 887.6354 482.0066 C 887.4228 482.21624 887.3036 482.5027 887.3048 482.8013 L 887.3048 486.5347 C 887.2991 486.8363 887.4152 487.12757 887.6271 487.3424 C 887.8389 487.5572 888.1284 487.6775 888.4302 487.676 L 892.1635 487.676 C 892.4624 487.6774 892.7495 487.55935 892.9608 487.34797 C 893.1722 487.1366 893.2903 486.8495 893.2889 486.55065 L 893.2889 484.6787 L 895.1662 484.6787 C 895.4642 484.6773 895.7497 484.5583 895.9604 484.34753 C 896.1711 484.13676 896.2901 483.85135 896.2915 483.55335 L 896.2915 481.676 L 898.1635 481.676 C 898.4622 481.6772 898.7486 481.55803 898.9582 481.34536 L 900.5208 479.78806 L 900.5208 479.788 C 901.3352 480.04544 902.1841 480.1768 903.0382 480.1773 Z M 904.9155 468.17717 C 905.4137 468.17717 905.8915 468.37526 906.2437 468.7277 C 906.5958 469.0801 906.7933 469.55807 906.7929 470.05634 C 906.7924 470.5545 906.5939 471.0321 906.2412 471.38386 C 905.8883 471.7357 905.4101 471.9328 904.912 471.93186 C 904.4137 471.9309 903.9364 471.73194 903.5849 471.3788 C 903.2334 471.02577 903.0368 470.5474 903.0382 470.0492 C 903.0382 469.54893 903.2383 469.0696 903.594 468.71786 C 903.9497 468.3662 904.4313 468.1715 904.9315 468.17715 Z" stroke="black" stroke-linecap="butt" stroke-linejoin="round" stroke-width="2"/>
        </g>
      </g>
    </g>
  </g>
</svg>
