<svg xmlns="http://www.w3.org/2000/svg" width="1280" height="720" viewBox="0 0 1280 720" role="img" aria-labelledby="title desc"><title id="title">Application session is created</title><desc id="desc">Stop-motion Keycloak flow diagram.</desc><defs><style>.bg{fill:#fff}.title{font:700 34px Arial,sans-serif;fill:#102a43}.small{font:20px Arial,sans-serif;fill:#334155}.note{font:700 22px Arial,sans-serif;fill:#1f4f6b}.warn{font:700 24px Arial,sans-serif;fill:#9a3412}.boxText{font:700 25px Arial,sans-serif;fill:#0f172a}.boxTextLight{font:700 25px Arial,sans-serif;fill:#fff}.actor{stroke:#334155;stroke-width:3}.browser{fill:#dbeafe}.app{fill:#5d87a1}.kc{fill:#1e3a5f}.api{fill:#e2e8f0}.service{fill:#dcfce7}.device{fill:#fef3c7}.danger{fill:#fff7ed}.arrow{stroke:#334155;stroke-width:6;fill:none;marker-end:url(#arrow)}.muted{stroke:#94a3b8;stroke-width:5;fill:none;stroke-dasharray:11 8;marker-end:url(#mutedArrow)}.bad{stroke:#b45309;stroke-width:6;fill:none;marker-end:url(#badArrow)}.token{fill:#f8fafc;stroke:#011893;stroke-width:3}.tokenTop{fill:#dbeafe}.refresh{fill:#dcfce7;stroke:#15803d;stroke-width:3}.code{fill:#fef3c7;stroke:#a16207;stroke-width:3}.xml{fill:#fff7ed;stroke:#9a3412;stroke-width:3}.key{fill:#b8c0cc;stroke:#475569;stroke-width:3}.cache{fill:#eef2ff;stroke:#4338ca;stroke-width:3}.lock{fill:#b8c0cc;stroke:#475569;stroke-width:3}.session{fill:#ecfccb;stroke:#4d7c0f;stroke-width:3}</style><marker id="arrow" viewBox="0 0 12 12" refX="9" refY="6" markerWidth="7" markerHeight="7" orient="auto-start-reverse"><path d="M0 1L11 6L0 11Z" fill="#334155"/></marker><marker id="mutedArrow" viewBox="0 0 12 12" refX="9" refY="6" markerWidth="7" markerHeight="7" orient="auto-start-reverse"><path d="M0 1L11 6L0 11Z" fill="#94a3b8"/></marker><marker id="badArrow" viewBox="0 0 12 12" refX="9" refY="6" markerWidth="7" markerHeight="7" orient="auto-start-reverse"><path d="M0 1L11 6L0 11Z" fill="#b45309"/></marker></defs><rect width="1280" height="720" class="bg"/><text x="640" y="72" text-anchor="middle" class="title">Application session is created</text><rect x="80" y="285" width="235" height="145" rx="18" class="actor browser"/><text x="197.5" y="365.5" text-anchor="middle" class="boxText">Browser</text><rect x="522" y="285" width="235" height="145" rx="18" class="actor app"/><text x="639.5" y="349.5" text-anchor="middle" class="boxTextLight">SAML service</text><text x="639.5" y="381.5" text-anchor="middle" class="boxTextLight">provider</text><rect x="965" y="285" width="235" height="145" rx="18" class="actor kc"/><text x="1082.5" y="349.5" text-anchor="middle" class="boxTextLight">Keycloak</text><text x="1082.5" y="381.5" text-anchor="middle" class="boxTextLight">SAML IdP</text><g transform="translate(584 455)"><rect width="116" height="58" rx="12" class="session"/><text x="58" y="36" text-anchor="middle" font-family="Arial,sans-serif" font-size="18" font-weight="700" fill="#365314">session</text></g><g transform="translate(594 175)"><path d="M23 42V30c0-14 10-24 25-24s25 10 25 24v12" fill="none" stroke="#475569" stroke-width="9" stroke-linecap="round"/><rect x="12" y="39" width="72" height="58" rx="10" class="lock"/><circle cx="48" cy="63" r="7" fill="#475569"/><path d="M48 69v15" stroke="#475569" stroke-width="6" stroke-linecap="round"/></g><text x="92" y="622" class="small">-</text><text x="115" y="622" class="small">The service provider creates an application session.</text><text x="92" y="652" class="small">-</text><text x="115" y="652" class="small">SAML uses signed XML assertions instead of JWTs.</text></svg>
