<?xml version="1.0" encoding="UTF-8" standalone="no"?>
<!DOCTYPE svg PUBLIC "-//W3C//DTD SVG 1.1//EN" "http://www.w3.org/Graphics/SVG/1.1/DTD/svg11.dtd">
<svg version="1.1" xmlns="http://www.w3.org/2000/svg" xmlns:dc="http://purl.org/dc/elements/1.1/" xmlns:xl="http://www.w3.org/1999/xlink" viewBox="0 0 1280 720" width="1280" height="720">
  <defs>
    <marker orient="auto" overflow="visible" markerUnits="strokeWidth" id="FilledArrow_Marker" stroke-linejoin="miter" stroke-miterlimit="10" viewBox="-1 -3 6 6" markerWidth="6" markerHeight="6" color="black">
      <g>
        <path d="M 3.2 0 L 0 -1.2 L 0 1.2 Z" fill="currentColor" stroke="currentColor" stroke-width="1"/>
      </g>
    </marker>
  </defs>
  <g id="02-credentials-validated" fill-opacity="1" stroke="none" fill="none" stroke-opacity="1" stroke-dasharray="none">
    <title>02-credentials-validated</title>
    <g id="02-credentials-validated_Layer_1">
      <title>Layer 1</title>
      <g id="Graphic_21">
        <title>Text</title>
        <text transform="translate(395.0913 38.8193)" fill="#102a43">
          <tspan font-family="Helvetica" font-size="34" fill="#102a43" x="0" y="33" xml:space="preserve">Client Credentials are Validated</tspan>
        </text>
      </g>
      <g id="Graphic_20">
        <path d="M 98 285 L 297 285 C 306.94113 285 315 293.05887 315 303 L 315 412 C 315 421.94113 306.94113 430 297 430 L 98 430 C 88.05887 430 80 421.94113 80 412 L 80 303 C 80 293.05887 88.05887 285 98 285 Z" fill="#dcfce7"/>
        <path d="M 98 285 L 297 285 C 306.94113 285 315 293.05887 315 303 L 315 412 C 315 421.94113 306.94113 430 297 430 L 98 430 C 88.05887 430 80 421.94113 80 412 L 80 303 C 80 293.05887 88.05887 285 98 285 Z" stroke="#334155" stroke-linecap="butt" stroke-linejoin="round" stroke-width="3"/>
        <text transform="translate(85 344.192)" fill="black">
          <tspan font-family="Helvetica Neue" font-size="22" fill="black" x="29.384" y="21" xml:space="preserve">Backend Service</tspan>
        </text>
      </g>
      <g id="Graphic_17">
        <path d="M 540 285 L 739 285 C 748.9411 285 757 293.05887 757 303 L 757 412 C 757 421.94113 748.9411 430 739 430 L 540 430 C 530.0589 430 522 421.94113 522 412 L 522 303 C 522 293.05887 530.0589 285 540 285 Z" fill="#1e3a5f"/>
        <path d="M 540 285 L 739 285 C 748.9411 285 757 293.05887 757 303 L 757 412 C 757 421.94113 748.9411 430 739 430 L 540 430 C 530.0589 430 522 421.94113 522 412 L 522 303 C 522 293.05887 530.0589 285 540 285 Z" stroke="white" stroke-linecap="butt" stroke-linejoin="round" stroke-width="3"/>
        <text transform="translate(527 344.192)" fill="white">
          <tspan font-family="Helvetica Neue" font-size="22" fill="white" x="67.477" y="21" xml:space="preserve">Keycloak</tspan>
        </text>
      </g>
      <g id="Graphic_15">
        <path d="M 983 285 L 1182 285 C 1191.9411 285 1200 293.05887 1200 303 L 1200 412 C 1200 421.94113 1191.9411 430 1182 430 L 983 430 C 973.0589 430 965 421.94113 965 412 L 965 303 C 965 293.05887 973.0589 285 983 285 Z" fill="#e2e8f0"/>
        <path d="M 983 285 L 1182 285 C 1191.9411 285 1200 293.05887 1200 303 L 1200 412 C 1200 421.94113 1191.9411 430 1182 430 L 983 430 C 973.0589 430 965 421.94113 965 412 L 965 303 C 965 293.05887 973.0589 285 983 285 Z" stroke="#334155" stroke-linecap="butt" stroke-linejoin="round" stroke-width="3"/>
        <text transform="translate(970 344.192)" fill="black">
          <tspan font-family="Helvetica Neue" font-size="22" fill="black" x="44.256" y="21" xml:space="preserve">Protected API</tspan>
        </text>
      </g>
      <g id="Graphic_11">
        <title>Text</title>
        <text transform="translate(365 314.31515)" fill="#1f4f6b">
          <tspan font-family="Helvetica" font-size="22" fill="#1f4f6b" x="0" y="21" xml:space="preserve">Access Token</tspan>
        </text>
      </g>
      <g id="Graphic_5">
        <title>Text</title>
        <text transform="translate(92 602.5996)" fill="#334155">
          <tspan font-family="Helvetica" font-size="20" fill="#334155" x="0" y="19" xml:space="preserve">-</tspan>
        </text>
      </g>
      <g id="Graphic_4">
        <title>Text</title>
        <text transform="translate(115 602.5996)" fill="#334155">
          <tspan font-family="Helvetica" font-size="20" fill="#334155" x="0" y="19" xml:space="preserve">Keycloak validates the client id and client secret.</tspan>
        </text>
      </g>
      <g id="Graphic_3">
        <title>Text</title>
        <text transform="translate(92 632.5996)" fill="#334155">
          <tspan font-family="Helvetica" font-size="20" fill="#334155" x="0" y="19" xml:space="preserve">-</tspan>
        </text>
      </g>
      <g id="Graphic_2">
        <title>Text</title>
        <text transform="translate(115 632.5996)" fill="#334155">
          <tspan font-family="Helvetica" font-size="20" fill="#334155" x="0" y="19" xml:space="preserve">The token represents machine-to-machine access.</tspan>
        </text>
      </g>
      <g id="Line_23">
        <line x1="520.5" y1="357.5" x2="335.4" y2="357.5" marker-end="url(#FilledArrow_Marker)" stroke="black" stroke-linecap="round" stroke-linejoin="round" stroke-width="4"/>
      </g>
      <g id="Graphic_52">
        <text transform="translate(527 540.01556)" fill="black">
          <tspan font-family="Helvetica" font-size="20" fill="black" x="0" y="19" xml:space="preserve">client credentials are valid</tspan>
        </text>
      </g>
      <g id="Graphic_53">
        <path d="M 639.5004 445.95547 C 625.7916 445.95547 614.5837 457.1545 614.5837 470.8677 L 614.5879 483.272 L 612.22834 483.272 C 610.1098 483.272 608.40656 484.9794 608.40656 487.0938 L 608.40656 525.8602 C 608.40656 527.97876 610.1098 529.68196 612.22834 529.68196 L 666.7675 529.6861 C 668.8861 529.6861 670.59344 527.97874 670.59344 525.86434 L 670.59344 487.09795 C 670.59344 484.9794 668.8861 483.27617 666.7675 483.27617 L 664.4121 483.272 L 664.4121 470.8677 C 664.4121 457.15894 653.2131 445.95547 639.5043 445.95547 Z M 639.5004 456.58556 C 647.5012 456.58556 653.7826 462.8624 653.7826 470.8677 L 653.7826 483.272 L 625.22356 483.272 L 625.22356 470.8677 C 625.22356 462.86693 631.5004 456.58556 639.5013 456.58556 Z M 639.6126 497.02157 L 639.6167 497.02157 C 641.4238 497.0631 643.04804 498.14316 643.7957 499.7882 C 644.855 502.13943 643.829 504.9061 641.4943 505.99445 L 641.4943 518.4439 C 641.4943 519.54895 640.6054 520.43374 639.5004 520.4379 C 638.39535 520.4379 637.51056 519.54895 637.51056 518.4439 L 637.51056 505.99445 C 636.4887 505.5167 635.6744 504.6942 635.20916 503.66815 C 634.1374 501.2961 635.19254 498.5087 637.56036 497.437 C 638.20425 497.14624 638.9063 497.005 639.6166 497.0216 Z" fill="#dadada"/>
        <path d="M 639.5004 445.95547 C 625.7916 445.95547 614.5837 457.1545 614.5837 470.8677 L 614.5879 483.272 L 612.22834 483.272 C 610.1098 483.272 608.40656 484.9794 608.40656 487.0938 L 608.40656 525.8602 C 608.40656 527.97876 610.1098 529.68196 612.22834 529.68196 L 666.7675 529.6861 C 668.8861 529.6861 670.59344 527.97874 670.59344 525.86434 L 670.59344 487.09795 C 670.59344 484.9794 668.8861 483.27617 666.7675 483.27617 L 664.4121 483.272 L 664.4121 470.8677 C 664.4121 457.15894 653.2131 445.95547 639.5043 445.95547 Z M 639.5004 456.58556 C 647.5012 456.58556 653.7826 462.8624 653.7826 470.8677 L 653.7826 483.272 L 625.22356 483.272 L 625.22356 470.8677 C 625.22356 462.86693 631.5004 456.58556 639.5013 456.58556 Z M 639.6126 497.02157 L 639.6167 497.02157 C 641.4238 497.0631 643.04804 498.14316 643.7957 499.7882 C 644.855 502.13943 643.829 504.9061 641.4943 505.99445 L 641.4943 518.4439 C 641.4943 519.54895 640.6054 520.43374 639.5004 520.4379 C 638.39535 520.4379 637.51056 519.54895 637.51056 518.4439 L 637.51056 505.99445 C 636.4887 505.5167 635.6744 504.6942 635.20916 503.66815 C 634.1374 501.2961 635.19254 498.5087 637.56036 497.437 C 638.20425 497.14624 638.9063 497.005 639.6166 497.0216 Z" stroke="black" stroke-linecap="butt" stroke-linejoin="round" stroke-width="2"/>
      </g>
    </g>
  </g>
</svg>
