<?xml version="1.0" encoding="UTF-8" standalone="no"?>
<!DOCTYPE svg PUBLIC "-//W3C//DTD SVG 1.1//EN" "http://www.w3.org/Graphics/SVG/1.1/DTD/svg11.dtd">
<svg version="1.1" xmlns="http://www.w3.org/2000/svg" xmlns:dc="http://purl.org/dc/elements/1.1/" xmlns:xl="http://www.w3.org/1999/xlink" viewBox="0 0 1280 720" width="1280" height="720">
  <defs>
    <filter id="Shadow" filterUnits="userSpaceOnUse" x="-128" y="-72">
      <feGaussianBlur in="SourceAlpha" result="blur" stdDeviation="1.308"/>
      <feOffset in="blur" result="offset" dx="0" dy="2"/>
      <feFlood flood-color="black" flood-opacity=".5" result="flood"/>
      <feComposite in="flood" in2="offset" operator="in" result="color"/>
      <feMerge>
        <feMergeNode in="color"/>
        <feMergeNode in="SourceGraphic"/>
      </feMerge>
    </filter>
    <marker orient="auto" overflow="visible" markerUnits="strokeWidth" id="FilledArrow_Marker" stroke-linejoin="miter" stroke-miterlimit="10" viewBox="-1 -3 6 6" markerWidth="6" markerHeight="6" color="black">
      <g>
        <path d="M 3.2 0 L 0 -1.2 L 0 1.2 Z" fill="currentColor" stroke="currentColor" stroke-width="1"/>
      </g>
    </marker>
  </defs>
  <g id="01-initial-tokens" fill-opacity="1" stroke="none" fill="none" stroke-opacity="1" stroke-dasharray="none">
    <title>01-initial-tokens</title>
    <g id="01-initial-tokens_Layer_1">
      <title>Layer 1</title>
      <g id="Graphic_25">
        <path d="M 540.5 285 L 739.5 285 C 749.4411 285 757.5 293.05887 757.5 303 L 757.5 412 C 757.5 421.94113 749.4411 430 739.5 430 L 540.5 430 C 530.5589 430 522.5 421.94113 522.5 412 L 522.5 303 C 522.5 293.05887 530.5589 285 540.5 285 Z" fill="#e2e8f0"/>
        <path d="M 540.5 285 L 739.5 285 C 749.4411 285 757.5 293.05887 757.5 303 L 757.5 412 C 757.5 421.94113 749.4411 430 739.5 430 L 540.5 430 C 530.5589 430 522.5 421.94113 522.5 412 L 522.5 303 C 522.5 293.05887 530.5589 285 540.5 285 Z" stroke="#334155" stroke-linecap="butt" stroke-linejoin="round" stroke-width="3"/>
        <text transform="translate(527.5 344.192)" fill="black">
          <tspan font-family="Helvetica Neue" font-size="22" fill="black" x="32.244" y="21" xml:space="preserve">Web Application</tspan>
        </text>
      </g>
      <g id="Graphic_21">
        <title>Text</title>
      </g>
      <g id="Graphic_20">
        <path d="M 98 285 L 297 285 C 306.94113 285 315 293.05887 315 303 L 315 412 C 315 421.94113 306.94113 430 297 430 L 98 430 C 88.05887 430 80 421.94113 80 412 L 80 303 C 80 293.05887 88.05887 285 98 285 Z" fill="#dcfce7"/>
        <path d="M 98 285 L 297 285 C 306.94113 285 315 293.05887 315 303 L 315 412 C 315 421.94113 306.94113 430 297 430 L 98 430 C 88.05887 430 80 421.94113 80 412 L 80 303 C 80 293.05887 88.05887 285 98 285 Z" stroke="#334155" stroke-linecap="butt" stroke-linejoin="round" stroke-width="3"/>
        <text transform="translate(85 344.192)" fill="black">
          <tspan font-family="Helvetica Neue" font-size="22" fill="black" x="84.186" y="21" xml:space="preserve">Client</tspan>
        </text>
      </g>
      <g id="Graphic_5">
        <title>Text</title>
        <text transform="translate(92 602.5996)" fill="#334155">
          <tspan font-family="Helvetica" font-size="20" fill="#334155" x="0" y="19" xml:space="preserve">-</tspan>
        </text>
      </g>
      <g id="Graphic_4">
        <title>Text</title>
        <text transform="translate(115 602.5996)" fill="#334155">
          <tspan font-family="Helvetica" font-size="20" fill="#334155" x="0" y="19" xml:space="preserve">The Web Application receives a request with a JWT Access Token</tspan>
        </text>
      </g>
      <g id="Graphic_3">
        <title>Text</title>
        <text transform="translate(92 632.5996)" fill="#334155">
          <tspan font-family="Helvetica" font-size="20" fill="#334155" x="0" y="19" xml:space="preserve">-</tspan>
        </text>
      </g>
      <g id="Graphic_2">
        <title>Text</title>
        <text transform="translate(115 632.5996)" fill="#334155">
          <tspan font-family="Helvetica" font-size="20" fill="#334155" x="0" y="19" xml:space="preserve">It must verify the token before trusting any claims</tspan>
        </text>
      </g>
      <g id="Graphic_24">
        <title>Text</title>
        <text transform="translate(454.6332 38.819336)" fill="#102a43">
          <tspan font-family="Helvetica" font-size="34" fill="#102a43" x="0" y="33" xml:space="preserve">Keycloak Issues Tokens</tspan>
        </text>
      </g>
      <g id="Graphic_62">
        <path d="M 983 283.58752 L 1182 283.58752 C 1191.9411 283.58752 1200 291.6464 1200 301.5875 L 1200 410.5875 C 1200 420.52864 1191.9411 428.5875 1182 428.5875 L 983 428.5875 C 973.0589 428.5875 965 420.52864 965 410.5875 L 965 301.5875 C 965 291.6464 973.0589 283.58752 983 283.58752 Z" fill="#1e3a5f"/>
        <path d="M 983 283.58752 L 1182 283.58752 C 1191.9411 283.58752 1200 291.6464 1200 301.5875 L 1200 410.5875 C 1200 420.52864 1191.9411 428.5875 1182 428.5875 L 983 428.5875 C 973.0589 428.5875 965 420.52864 965 410.5875 L 965 301.5875 C 965 291.6464 973.0589 283.58752 983 283.58752 Z" stroke="white" stroke-linecap="butt" stroke-linejoin="round" stroke-width="3"/>
        <text transform="translate(970 342.7795)" fill="white">
          <tspan font-family="Helvetica Neue" font-size="22" fill="white" x="67.477" y="21" xml:space="preserve">Keycloak</tspan>
        </text>
      </g>
      <g id="Group_55">
        <g id="Group_59">
          <g id="Graphic_61" filter="url(#Shadow)">
            <title>Bézier</title>
            <path d="M 828.25 173.82941 L 894.25 173.82941 C 898.6683 173.82941 902.25 177.41113 902.25 181.82941 L 902.25 269.8294 C 902.25 274.2477 898.6683 277.8294 894.25 277.8294 L 828.25 277.8294 C 823.8317 277.8294 820.25 274.2477 820.25 269.8294 L 820.25 181.82941 C 820.25 177.41113 823.8317 173.82941 828.25 173.82941 Z" fill="#f8fafc"/>
            <path d="M 828.25 173.82941 L 894.25 173.82941 C 898.6683 173.82941 902.25 177.41113 902.25 181.82941 L 902.25 269.8294 C 902.25 274.2477 898.6683 277.8294 894.25 277.8294 L 828.25 277.8294 C 823.8317 277.8294 820.25 274.2477 820.25 269.8294 L 820.25 181.82941 C 820.25 177.41113 823.8317 173.82941 828.25 173.82941 Z" stroke="#011893" stroke-linecap="butt" stroke-linejoin="round" stroke-width="3"/>
          </g>
          <g id="Graphic_60">
            <title>Text</title>
            <text transform="translate(838.2192 193.8348)" fill="#011893">
              <tspan font-family="Helvetica" font-size="22" fill="#011893" x="0" y="21" xml:space="preserve">JWT</tspan>
            </text>
          </g>
        </g>
        <g id="Graphic_58">
          <rect x="836.0493" y="226.61258" width="50" height="10" fill="#c0c0ff"/>
          <rect x="836.0493" y="226.61258" width="50" height="10" stroke="#003776" stroke-linecap="round" stroke-linejoin="round" stroke-width="1"/>
        </g>
        <g id="Graphic_57">
          <rect x="836.25" y="240.4903" width="50" height="10" fill="#c0ffff"/>
          <rect x="836.25" y="240.4903" width="50" height="10" stroke="#003776" stroke-linecap="round" stroke-linejoin="round" stroke-width="1"/>
        </g>
        <g id="Graphic_56">
          <rect x="836.25" y="254.36802" width="50" height="10" fill="#ffc0ff"/>
          <rect x="836.25" y="254.36802" width="50" height="10" stroke="#003776" stroke-linecap="round" stroke-linejoin="round" stroke-width="1"/>
        </g>
      </g>
      <g id="Line_54">
        <line x1="965" y1="331.92085" x2="776.3996" y2="333.2047" marker-end="url(#FilledArrow_Marker)" stroke="black" stroke-linecap="round" stroke-linejoin="round" stroke-width="4"/>
      </g>
      <g id="Line_53">
        <line x1="965" y1="380.2542" x2="776.3996" y2="381.538" marker-end="url(#FilledArrow_Marker)" stroke="black" stroke-linecap="round" stroke-linejoin="round" stroke-width="4"/>
      </g>
      <g id="Group_48">
        <g id="Group_50">
          <g id="Graphic_52" filter="url(#Shadow)">
            <title>Bézier</title>
            <path d="M 828.25 442.1706 L 894.25 442.1706 C 898.6683 442.1706 902.25 445.7523 902.25 450.1706 L 902.25 538.1706 C 902.25 542.58887 898.6683 546.1706 894.25 546.1706 L 828.25 546.1706 C 823.8317 546.1706 820.25 542.58887 820.25 538.1706 L 820.25 450.1706 C 820.25 445.7523 823.8317 442.1706 828.25 442.1706 Z" fill="#f8fafc"/>
            <path d="M 828.25 442.1706 L 894.25 442.1706 C 898.6683 442.1706 902.25 445.7523 902.25 450.1706 L 902.25 538.1706 C 902.25 542.58887 898.6683 546.1706 894.25 546.1706 L 828.25 546.1706 C 823.8317 546.1706 820.25 542.58887 820.25 538.1706 L 820.25 450.1706 C 820.25 445.7523 823.8317 442.1706 828.25 442.1706 Z" stroke="#011893" stroke-linecap="butt" stroke-linejoin="round" stroke-width="3"/>
          </g>
          <g id="Graphic_51">
            <title>Text</title>
            <text transform="translate(838.6484 453.8752)" fill="#011893">
              <tspan font-family="Helvetica" font-size="14" fill="#011893" x="0" y="14" xml:space="preserve">Refresh</tspan>
              <tspan font-family="Helvetica" font-size="14" fill="#011893" x="0" y="31" xml:space="preserve"> Token</tspan>
            </text>
          </g>
        </g>
        <g id="Graphic_49">
          <path d="M 859.4551 525.0844 L 858.8335 530.70536 C 850.2382 529.6865 843.5688 522.3432 843.5688 513.42896 C 843.5688 509.57056 844.8231 506.01044 846.9394 503.12744 L 844.9242 501.102 C 843.7458 499.91776 844.1368 498.7976 845.7929 498.61254 L 853.5427 497.7469 C 855.1988 497.5618 856.4035 498.7728 856.2192 500.43716 L 855.3587 508.227 C 855.1744 509.8914 854.0597 510.2847 852.8818 509.10044 L 850.9902 507.1992 C 849.8566 509.0058 849.1958 511.13946 849.1958 513.42916 C 849.1955 519.41945 853.6822 524.3741 859.4554 525.0843 Z M 875.5606 522.93874 C 877.6773 520.05544 878.9312 516.4956 878.9312 512.6372 C 878.9312 503.6762 872.1914 496.2999 863.5303 495.34314 L 862.909 500.9641 C 868.7474 501.61204 873.3049 506.59846 873.3049 512.6372 C 873.3049 514.9272 872.6444 517.06076 871.5112 518.8672 L 869.6193 516.96594 C 868.4413 515.7817 867.3266 516.1746 867.1424 517.8394 L 866.2818 525.6292 C 866.0975 527.2936 867.3022 528.50455 868.9583 528.3195 L 876.7082 527.45384 C 878.3642 527.26876 878.7553 526.1486 877.5769 524.9644 Z" fill="#008f00"/>
        </g>
      </g>
      <g id="Graphic_47">
        <rect x="803.2912" y="293.9349" width="126.88525" height="33" fill="white"/>
        <text transform="translate(808.2912 298.9349)" fill="black">
          <tspan font-family="Helvetica" font-size="19" fill="black" x="0" y="19" xml:space="preserve">Access Token</tspan>
        </text>
      </g>
      <g id="Graphic_46">
        <rect x="803.2476" y="383.6188" width="138.60352" height="34" fill="white"/>
        <text transform="translate(808.2476 388.6188)" fill="black">
          <tspan font-family="Helvetica" font-size="20" fill="black" x="0" y="19" xml:space="preserve">Refresh Token</tspan>
        </text>
      </g>
    </g>
  </g>
</svg>
