<svg xmlns="http://www.w3.org/2000/svg" width="1280" height="720" viewBox="0 0 1280 720" role="img" aria-labelledby="title desc"><title id="title">Access token expires</title><desc id="desc">Stop-motion Keycloak flow diagram.</desc><defs><style>.bg{fill:#fff}.title{font:700 34px Arial,sans-serif;fill:#102a43}.small{font:20px Arial,sans-serif;fill:#334155}.note{font:700 22px Arial,sans-serif;fill:#1f4f6b}.warn{font:700 24px Arial,sans-serif;fill:#9a3412}.boxText{font:700 25px Arial,sans-serif;fill:#0f172a}.boxTextLight{font:700 25px Arial,sans-serif;fill:#fff}.actor{stroke:#334155;stroke-width:3}.browser{fill:#dbeafe}.app{fill:#5d87a1}.kc{fill:#1e3a5f}.api{fill:#e2e8f0}.service{fill:#dcfce7}.device{fill:#fef3c7}.danger{fill:#fff7ed}.arrow{stroke:#334155;stroke-width:6;fill:none;marker-end:url(#arrow)}.muted{stroke:#94a3b8;stroke-width:5;fill:none;stroke-dasharray:11 8;marker-end:url(#mutedArrow)}.bad{stroke:#b45309;stroke-width:6;fill:none;marker-end:url(#badArrow)}.token{fill:#f8fafc;stroke:#011893;stroke-width:3}.tokenTop{fill:#dbeafe}.refresh{fill:#dcfce7;stroke:#15803d;stroke-width:3}.code{fill:#fef3c7;stroke:#a16207;stroke-width:3}.xml{fill:#fff7ed;stroke:#9a3412;stroke-width:3}.key{fill:#b8c0cc;stroke:#475569;stroke-width:3}.cache{fill:#eef2ff;stroke:#4338ca;stroke-width:3}.lock{fill:#b8c0cc;stroke:#475569;stroke-width:3}.session{fill:#ecfccb;stroke:#4d7c0f;stroke-width:3}</style><marker id="arrow" viewBox="0 0 12 12" refX="9" refY="6" markerWidth="7" markerHeight="7" orient="auto-start-reverse"><path d="M0 1L11 6L0 11Z" fill="#334155"/></marker><marker id="mutedArrow" viewBox="0 0 12 12" refX="9" refY="6" markerWidth="7" markerHeight="7" orient="auto-start-reverse"><path d="M0 1L11 6L0 11Z" fill="#94a3b8"/></marker><marker id="badArrow" viewBox="0 0 12 12" refX="9" refY="6" markerWidth="7" markerHeight="7" orient="auto-start-reverse"><path d="M0 1L11 6L0 11Z" fill="#b45309"/></marker></defs><rect width="1280" height="720" class="bg"/><text x="640" y="72" text-anchor="middle" class="title">Access token expires</text><rect x="80" y="285" width="235" height="145" rx="18" class="actor app"/><text x="197.5" y="349.5" text-anchor="middle" class="boxTextLight">Web</text><text x="197.5" y="381.5" text-anchor="middle" class="boxTextLight">application</text><rect x="522" y="285" width="235" height="145" rx="18" class="actor kc"/><text x="639.5" y="365.5" text-anchor="middle" class="boxTextLight">Keycloak</text><rect x="965" y="285" width="235" height="145" rx="18" class="actor api"/><text x="1082.5" y="349.5" text-anchor="middle" class="boxText">Protected</text><text x="1082.5" y="381.5" text-anchor="middle" class="boxText">API</text><g transform="translate(600 220)"><rect width="82" height="104" rx="8" class="token"/><rect width="82" height="24" rx="8" class="tokenTop"/><text x="41" y="60" text-anchor="middle" font-family="Arial,sans-serif" font-size="22" font-weight="700" fill="#011893">JWT</text><text x="41" y="88" text-anchor="middle" font-family="Arial,sans-serif" font-size="14" fill="#334155">access</text></g><line x1="590" y1="210" x2="700" y2="335" stroke="#b45309" stroke-width="8"/><line x1="700" y1="210" x2="590" y2="335" stroke="#b45309" stroke-width="8"/><text x="645" y="365" text-anchor="middle" class="warn">expired</text><g transform="translate(365 430)"><rect width="104" height="64" rx="10" class="refresh"/><path d="M31 28a18 18 0 0 1 30-9" stroke="#15803d" stroke-width="5" fill="none"/><path d="M69 36a18 18 0 0 1-30 9" stroke="#15803d" stroke-width="5" fill="none"/><text x="52" y="58" text-anchor="middle" font-family="Arial,sans-serif" font-size="13" font-weight="700" fill="#166534">refresh</text></g><text x="92" y="622" class="small">-</text><text x="115" y="622" class="small">The short-lived access token expires.</text><text x="92" y="652" class="small">-</text><text x="115" y="652" class="small">The refresh token still represents the longer-lived login.</text></svg>
