<?xml version="1.0" encoding="UTF-8" standalone="no"?>
<!DOCTYPE svg PUBLIC "-//W3C//DTD SVG 1.1//EN" "http://www.w3.org/Graphics/SVG/1.1/DTD/svg11.dtd">
<svg xmlns:dc="http://purl.org/dc/elements/1.1/" version="1.1" xmlns:xl="http://www.w3.org/1999/xlink" xmlns="http://www.w3.org/2000/svg" viewBox="0 0 112 136" width="112" height="136">
  <defs/>
  <g id="Canvas_1" stroke-dasharray="none" fill-opacity="1" stroke-opacity="1" fill="none" stroke="none">
    <title>Canvas 1</title>
    <g id="Canvas_1_Layer_1">
      <title>Layer 1</title>
      <g id="Graphic_2">
        <path d="M 18 6 L 68 6 L 94 32 L 94 120 C 94 126 89 131 83 131 L 18 131 C 12 131 7 126 7 120 L 7 17 C 7 11 12 6 18 6 Z" fill="#dadada"/>
        <path d="M 18 6 L 68 6 L 94 32 L 94 120 C 94 126 89 131 83 131 L 18 131 C 12 131 7 126 7 120 L 7 17 C 7 11 12 6 18 6 Z" stroke="#011893" stroke-linecap="butt" stroke-linejoin="round" stroke-width="4"/>
      </g>
      <g id="Graphic_3">
        <path d="M 68 6 L 68 32 L 94 32" fill="#dadada"/>
        <path d="M 68 6 L 68 32 L 94 32" stroke="#011893" stroke-linecap="butt" stroke-linejoin="round" stroke-width="4"/>
      </g>
      <g id="Graphic_4">
        <path d="M 26 58 L 86 58 C 90.41828 58 94 61.58172 94 66 L 94 84 C 94 88.41828 90.41828 92 86 92 L 26 92 C 21.581722 92 18 88.41828 18 84 L 18 66 C 18 61.58172 21.581722 58 26 58 Z" fill="#011893"/>
      </g>
      <g id="Graphic_5">
        <title>Text</title>
        <text transform="translate(33.398438 61.05957)" fill="white">
          <tspan font-family="Helvetica" font-size="22" fill="white" x="0" y="21" xml:space="preserve">JWT</tspan>
        </text>
      </g>
      <g id="Graphic_6">
        <path d="M 24 40 L 66 40 M 24 106 L 76 106" fill="black"/>
        <path d="M 24 40 L 66 40 M 24 106 L 76 106" stroke="#283450" stroke-linecap="round" stroke-linejoin="round" stroke-width="5"/>
      </g>
      <g id="Graphic_9">
        <rect x="87.5" y="58" width="6.5" height="34" fill="#011893"/>
        <rect x="87.5" y="58" width="6.5" height="34" stroke="gray" stroke-linecap="round" stroke-linejoin="round" stroke-width="0"/>
      </g>
    </g>
  </g>
</svg>
