<?xml version="1.0" encoding="UTF-8"?>
<svg xmlns="http://www.w3.org/2000/svg" width="128" height="128" viewBox="0 0 1200 1200" role="img" aria-labelledby="title">
 <title id="title">Private signing key</title>
 <path fill="none" stroke="#b8c0cc" stroke-width="150" stroke-linecap="round" stroke-linejoin="round" d="m1021.6 313.87 36.609-36.656 15.422-58.828-43.875-43.828-277.82 277.82c-9.375 9.375-24.562 9.375-33.938 0s-9.375-24.562 0-33.938l277.82-277.82-14.25-14.25-58.641 15.375-389.86 389.86c-8.0625 8.0625-20.391 9.1875-29.672 3.4219l-124.92-69c-6.375-3.2344-14.156-3.8438-21.891-2.4375l-0.70313 0.09375c-8.9531 1.7344-17.578 6.3281-24.094 12.797l-200.48 200.48c-5.1094 5.1094-7.6875 11.812-7.6875 18.469 0.09375 6.7031 2.625 13.453 7.6875 18.516l55.453 55.547c9.2812 9.375 9.2812 24.469-0.046874 33.797-9.6562 9.7031-14.484 22.547-14.484 35.344 0 12.891 4.8281 25.688 14.484 35.344l139.31 139.22c9.7031 9.7031 22.5 14.531 35.297 14.531 12.75 0.09375 25.594-4.8281 35.344-14.531 9.375-9.375 24.562-9.375 33.938 0l55.359 55.453c5.1562 5.0625 11.859 7.5938 18.562 7.5938 6.6562 0.09375 13.359-2.4844 18.469-7.5469l200.53-200.48c4.7812-4.7812 7.3125-13.312 7.875-22.641 0.75-12.141-1.7344-24.797-6.6562-33.656l-62.906-113.91c-5.25-9.5625-3.2812-21.141 4.0312-28.5l84.094-84.094-4.5-37.594c-1.125-9.3281-0.14062-18.469 2.8594-27.141 3-8.625 7.875-16.453 14.578-23.156 6.6562-6.7031 14.531-11.625 23.25-14.672 8.5312-3 17.719-4.0312 27.188-2.8594l18.656 2.25c0.14062-5.8125 0.79688-11.484 1.9219-17.016 3.4219-17.016 11.297-32.297 23.25-44.297 11.953-11.953 27.234-19.828 44.297-23.25 5.5312-1.125 11.203-1.7344 16.969-1.875l-2.25-18.703c-1.125-9.4688-0.1875-18.609 2.7656-27.141l1.0781-2.625c3.0469-7.6875 7.6406-14.625 13.594-20.625l1.5938-1.4531c6.3281-5.9062 13.641-10.312 21.609-13.078 8.6719-3 17.812-3.9844 27.141-2.8594l37.688 4.5469zm24.422-190.82 1.4062 1.4062 69.75 69.797c5.8125 5.8125 8.4844 14.438 6.2812 22.969l-20.438 77.906c-0.98438 4.1719-3.0938 8.1094-6.3281 11.344l-48.516 48.562c-5.0156 5.625-12.609 8.8125-20.672 7.875l-49.125-5.9062c-2.3438-0.28125-4.3594-0.14062-6 0.42188-1.3594 0.46875-2.7656 1.3125-4.125 2.5312l-0.75 0.79688c-1.3125 1.3125-2.2969 2.625-2.9062 3.8906l-0.32812 0.98438c-0.60938 1.7344-0.79688 3.7969-0.51562 6l5.9062 49.125c0.375 3.1406 0.14062 6.4219-0.84375 9.6562-3.75 12.703-17.156 19.922-29.812 16.125-10.078-3-19.734-3.5625-28.219-1.875-7.6406 1.5469-14.438 5.0156-19.734 10.312-5.25 5.25-8.7656 12.094-10.312 19.734-1.6406 8.2031-1.1719 17.531 1.5469 27.281 1.125 3.3281 1.5938 6.9375 1.125 10.641-1.5469 13.125-13.5 22.547-26.625 21l-49.125-5.9062c-2.2031-0.23438-4.2188-0.09375-6 0.51562-1.5469 0.42188-3.2344 1.5938-4.875 3.2344-1.6406 1.5469-2.7188 3.2344-3.2812 4.875-0.5625 1.5938-0.70312 3.6562-0.42188 6l5.8125 48.234c1.125 7.3125-1.0781 15.047-6.75 20.672l-79.594 79.594 54.188 98.156c9.0938 16.453 13.734 38.719 12.469 59.578-1.2656 20.297-8.0625 40.078-21.75 53.766l-200.48 200.48c-14.391 14.391-33.375 21.609-52.406 21.562-18.984 0.09375-37.969-7.125-52.406-21.562l-40.594-40.641c-15.375 9.1406-32.812 13.734-50.25 13.734-25.078 0.09375-50.156-9.4219-69.234-28.5l-139.22-139.22c-19.078-19.172-28.594-44.25-28.594-69.281 0-17.391 4.5938-34.828 13.828-50.25l-40.594-40.547c-14.438-14.438-21.703-33.469-21.703-52.406 0.09375-18.984 7.2656-38.062 21.656-52.406l200.48-200.48c13.078-13.078 30.75-22.266 49.125-25.828l0.98438-0.1875c17.859-3.2344 36.562-1.3125 53.016 7.3125l110.81 61.125 381.61-381.61c2.9531-2.8594 6.6562-5.1094 10.969-6.1875l76.5-20.062c8.4375-2.9062 18.141-1.0312 24.844 5.7188l40.219 40.219zm-397.92 365.34c9.375-9.375 24.562-9.375 33.938 0s9.375 24.562 0 33.938l-4.5469 4.5469c-9.375 9.375-24.562 9.375-33.938 0s-9.375-24.562 0-33.938zm-309.61 419.26-46.078-46.031c-16.547-16.547-24.891-38.484-24.844-60.422-0.09375-21.844 8.25-43.781 24.891-60.422s38.578-24.984 60.422-24.984c21.891 0.09375 43.828 8.3906 60.422 24.938l47.438 47.531c15.703 16.453 23.578 37.734 23.578 58.922 0 21.797-8.2969 43.641-24.938 60.281-16.641 16.734-38.578 25.078-60.469 25.078-21.844-0.09375-43.734-8.3906-60.375-24.938zm-12.141-79.969 46.031 46.031c7.2656 7.3125 16.875 10.969 26.484 10.969 9.6094-0.09375 19.266-3.75 26.484-10.969 7.2656-7.2188 10.875-16.828 10.875-26.484 0-9.2344-3.3281-18.469-9.9375-25.547l-47.016-46.969c-7.3125-7.3125-16.922-10.969-26.484-10.969-9.6094 0.09375-19.266 3.75-26.484 10.969-7.2656 7.2656-10.875 16.875-10.875 26.484-0.09375 9.5156 3.5625 19.172 10.875 26.484z"/>
 <path fill="#b8c0cc" stroke="#475569" stroke-width="22" stroke-linejoin="round" d="m1021.6 313.87 36.609-36.656 15.422-58.828-43.875-43.828-277.82 277.82c-9.375 9.375-24.562 9.375-33.938 0s-9.375-24.562 0-33.938l277.82-277.82-14.25-14.25-58.641 15.375-389.86 389.86c-8.0625 8.0625-20.391 9.1875-29.672 3.4219l-124.92-69c-6.375-3.2344-14.156-3.8438-21.891-2.4375l-0.70313 0.09375c-8.9531 1.7344-17.578 6.3281-24.094 12.797l-200.48 200.48c-5.1094 5.1094-7.6875 11.812-7.6875 18.469 0.09375 6.7031 2.625 13.453 7.6875 18.516l55.453 55.547c9.2812 9.375 9.2812 24.469-0.046874 33.797-9.6562 9.7031-14.484 22.547-14.484 35.344 0 12.891 4.8281 25.688 14.484 35.344l139.31 139.22c9.7031 9.7031 22.5 14.531 35.297 14.531 12.75 0.09375 25.594-4.8281 35.344-14.531 9.375-9.375 24.562-9.375 33.938 0l55.359 55.453c5.1562 5.0625 11.859 7.5938 18.562 7.5938 6.6562 0.09375 13.359-2.4844 18.469-7.5469l200.53-200.48c4.7812-4.7812 7.3125-13.312 7.875-22.641 0.75-12.141-1.7344-24.797-6.6562-33.656l-62.906-113.91c-5.25-9.5625-3.2812-21.141 4.0312-28.5l84.094-84.094-4.5-37.594c-1.125-9.3281-0.14062-18.469 2.8594-27.141 3-8.625 7.875-16.453 14.578-23.156 6.6562-6.7031 14.531-11.625 23.25-14.672 8.5312-3 17.719-4.0312 27.188-2.8594l18.656 2.25c0.14062-5.8125 0.79688-11.484 1.9219-17.016 3.4219-17.016 11.297-32.297 23.25-44.297 11.953-11.953 27.234-19.828 44.297-23.25 5.5312-1.125 11.203-1.7344 16.969-1.875l-2.25-18.703c-1.125-9.4688-0.1875-18.609 2.7656-27.141l1.0781-2.625c3.0469-7.6875 7.6406-14.625 13.594-20.625l1.5938-1.4531c6.3281-5.9062 13.641-10.312 21.609-13.078 8.6719-3 17.812-3.9844 27.141-2.8594l37.688 4.5469zm24.422-190.82 1.4062 1.4062 69.75 69.797c5.8125 5.8125 8.4844 14.438 6.2812 22.969l-20.438 77.906c-0.98438 4.1719-3.0938 8.1094-6.3281 11.344l-48.516 48.562c-5.0156 5.625-12.609 8.8125-20.672 7.875l-49.125-5.9062c-2.3438-0.28125-4.3594-0.14062-6 0.42188-1.3594 0.46875-2.7656 1.3125-4.125 2.5312l-0.75 0.79688c-1.3125 1.3125-2.2969 2.625-2.9062 3.8906l-0.32812 0.98438c-0.60938 1.7344-0.79688 3.7969-0.51562 6l5.9062 49.125c0.375 3.1406 0.14062 6.4219-0.84375 9.6562-3.75 12.703-17.156 19.922-29.812 16.125-10.078-3-19.734-3.5625-28.219-1.875-7.6406 1.5469-14.438 5.0156-19.734 10.312-5.25 5.25-8.7656 12.094-10.312 19.734-1.6406 8.2031-1.1719 17.531 1.5469 27.281 1.125 3.3281 1.5938 6.9375 1.125 10.641-1.5469 13.125-13.5 22.547-26.625 21l-49.125-5.9062c-2.2031-0.23438-4.2188-0.09375-6 0.51562-1.5469 0.42188-3.2344 1.5938-4.875 3.2344-1.6406 1.5469-2.7188 3.2344-3.2812 4.875-0.5625 1.5938-0.70312 3.6562-0.42188 6l5.8125 48.234c1.125 7.3125-1.0781 15.047-6.75 20.672l-79.594 79.594 54.188 98.156c9.0938 16.453 13.734 38.719 12.469 59.578-1.2656 20.297-8.0625 40.078-21.75 53.766l-200.48 200.48c-14.391 14.391-33.375 21.609-52.406 21.562-18.984 0.09375-37.969-7.125-52.406-21.562l-40.594-40.641c-15.375 9.1406-32.812 13.734-50.25 13.734-25.078 0.09375-50.156-9.4219-69.234-28.5l-139.22-139.22c-19.078-19.172-28.594-44.25-28.594-69.281 0-17.391 4.5938-34.828 13.828-50.25l-40.594-40.547c-14.438-14.438-21.703-33.469-21.703-52.406 0.09375-18.984 7.2656-38.062 21.656-52.406l200.48-200.48c13.078-13.078 30.75-22.266 49.125-25.828l0.98438-0.1875c17.859-3.2344 36.562-1.3125 53.016 7.3125l110.81 61.125 381.61-381.61c2.9531-2.8594 6.6562-5.1094 10.969-6.1875l76.5-20.062c8.4375-2.9062 18.141-1.0312 24.844 5.7188l40.219 40.219zm-397.92 365.34c9.375-9.375 24.562-9.375 33.938 0s9.375 24.562 0 33.938l-4.5469 4.5469c-9.375 9.375-24.562 9.375-33.938 0s-9.375-24.562 0-33.938zm-309.61 419.26-46.078-46.031c-16.547-16.547-24.891-38.484-24.844-60.422-0.09375-21.844 8.25-43.781 24.891-60.422s38.578-24.984 60.422-24.984c21.891 0.09375 43.828 8.3906 60.422 24.938l47.438 47.531c15.703 16.453 23.578 37.734 23.578 58.922 0 21.797-8.2969 43.641-24.938 60.281-16.641 16.734-38.578 25.078-60.469 25.078-21.844-0.09375-43.734-8.3906-60.375-24.938zm-12.141-79.969 46.031 46.031c7.2656 7.3125 16.875 10.969 26.484 10.969 9.6094-0.09375 19.266-3.75 26.484-10.969 7.2656-7.2188 10.875-16.828 10.875-26.484 0-9.2344-3.3281-18.469-9.9375-25.547l-47.016-46.969c-7.3125-7.3125-16.922-10.969-26.484-10.969-9.6094 0.09375-19.266 3.75-26.484 10.969-7.2656 7.2656-10.875 16.875-10.875 26.484-0.09375 9.5156 3.5625 19.172 10.875 26.484z"/>
</svg>
