<?xml version="1.0" encoding="UTF-8" standalone="no"?>
<!DOCTYPE svg PUBLIC "-//W3C//DTD SVG 1.1//EN" "http://www.w3.org/Graphics/SVG/1.1/DTD/svg11.dtd">
<svg version="1.1" xmlns="http://www.w3.org/2000/svg" xmlns:dc="http://purl.org/dc/elements/1.1/" xmlns:xl="http://www.w3.org/1999/xlink" viewBox="0 0 1280 720" width="1280" height="720">
  <defs>
    <filter id="Shadow" filterUnits="userSpaceOnUse" x="-128" y="-72">
      <feGaussianBlur in="SourceAlpha" result="blur" stdDeviation="1.308"/>
      <feOffset in="blur" result="offset" dx="0" dy="2"/>
      <feFlood flood-color="black" flood-opacity=".5" result="flood"/>
      <feComposite in="flood" in2="offset" operator="in" result="color"/>
      <feMerge>
        <feMergeNode in="color"/>
        <feMergeNode in="SourceGraphic"/>
      </feMerge>
    </filter>
  </defs>
  <g id="03-cached-jwks-verifies" fill-opacity="1" stroke="none" fill="none" stroke-opacity="1" stroke-dasharray="none">
    <title>03-cached-jwks-verifies</title>
    <g id="03-cached-jwks-verifies_Layer_1">
      <title>Layer 1</title>
      <g id="Graphic_33">
        <path d="M 983 285 L 1182 285 C 1191.9411 285 1200 293.05887 1200 303 L 1200 412 C 1200 421.94113 1191.9411 430 1182 430 L 983 430 C 973.0589 430 965 421.94113 965 412 L 965 303 C 965 293.05887 973.0589 285 983 285 Z" fill="#1e3a5f"/>
        <path d="M 983 285 L 1182 285 C 1191.9411 285 1200 293.05887 1200 303 L 1200 412 C 1200 421.94113 1191.9411 430 1182 430 L 983 430 C 973.0589 430 965 421.94113 965 412 L 965 303 C 965 293.05887 973.0589 285 983 285 Z" stroke="white" stroke-linecap="butt" stroke-linejoin="round" stroke-width="3"/>
        <text transform="translate(970 344.192)" fill="white">
          <tspan font-family="Helvetica Neue" font-size="22" fill="white" x="67.477" y="21" xml:space="preserve">Keycloak</tspan>
        </text>
      </g>
      <g id="Graphic_25">
        <path d="M 540.5 285 L 739.5 285 C 749.4411 285 757.5 293.05887 757.5 303 L 757.5 412 C 757.5 421.94113 749.4411 430 739.5 430 L 540.5 430 C 530.5589 430 522.5 421.94113 522.5 412 L 522.5 303 C 522.5 293.05887 530.5589 285 540.5 285 Z" fill="#e2e8f0"/>
        <path d="M 540.5 285 L 739.5 285 C 749.4411 285 757.5 293.05887 757.5 303 L 757.5 412 C 757.5 421.94113 749.4411 430 739.5 430 L 540.5 430 C 530.5589 430 522.5 421.94113 522.5 412 L 522.5 303 C 522.5 293.05887 530.5589 285 540.5 285 Z" stroke="#334155" stroke-linecap="butt" stroke-linejoin="round" stroke-width="3"/>
        <text transform="translate(527.5 344.192)" fill="black">
          <tspan font-family="Helvetica Neue" font-size="22" fill="black" x="32.244" y="21" xml:space="preserve">Web Application</tspan>
        </text>
      </g>
      <g id="Graphic_21">
        <title>Text</title>
      </g>
      <g id="Graphic_20">
        <path d="M 98 285 L 297 285 C 306.94113 285 315 293.05887 315 303 L 315 412 C 315 421.94113 306.94113 430 297 430 L 98 430 C 88.05887 430 80 421.94113 80 412 L 80 303 C 80 293.05887 88.05887 285 98 285 Z" fill="#dcfce7"/>
        <path d="M 98 285 L 297 285 C 306.94113 285 315 293.05887 315 303 L 315 412 C 315 421.94113 306.94113 430 297 430 L 98 430 C 88.05887 430 80 421.94113 80 412 L 80 303 C 80 293.05887 88.05887 285 98 285 Z" stroke="#334155" stroke-linecap="butt" stroke-linejoin="round" stroke-width="3"/>
        <text transform="translate(85 344.192)" fill="black">
          <tspan font-family="Helvetica Neue" font-size="22" fill="black" x="84.186" y="21" xml:space="preserve">Client</tspan>
        </text>
      </g>
      <g id="Graphic_5">
        <title>Text</title>
        <text transform="translate(92 602.5996)" fill="#334155">
          <tspan font-family="Helvetica" font-size="20" fill="#334155" x="0" y="19" xml:space="preserve">-</tspan>
        </text>
      </g>
      <g id="Graphic_4">
        <title>Text</title>
        <text transform="translate(115 602.0996)" fill="#334155">
          <tspan font-family="Helvetica" font-size="20" fill="#334155" x="0" y="20" xml:space="preserve">The API reads the JWT header and finds the </tspan>
          <tspan font-family="Source Code Pro" font-size="20" fill="#334155" y="20" xml:space="preserve">kid</tspan>
        </text>
      </g>
      <g id="Graphic_3">
        <title>Text</title>
        <text transform="translate(92 632.5996)" fill="#334155">
          <tspan font-family="Helvetica" font-size="20" fill="#334155" x="0" y="19" xml:space="preserve">-</tspan>
        </text>
      </g>
      <g id="Graphic_2">
        <title>Text</title>
        <text transform="translate(115 632.5996)" fill="#334155">
          <tspan font-family="Helvetica" font-size="20" fill="#334155" x="0" y="19" xml:space="preserve">The key id tells the verifier which signing key to use</tspan>
        </text>
      </g>
      <g id="Graphic_24">
        <title>Text</title>
        <text transform="translate(396.1916 38.819336)" fill="#102a43">
          <tspan font-family="Helvetica" font-size="34" fill="#102a43" x="0" y="33" xml:space="preserve">Cached JWKS Verifies the JWT</tspan>
        </text>
      </g>
      <g id="Group_26">
        <g id="Group_30">
          <g id="Graphic_32" filter="url(#Shadow)">
            <title>Bézier</title>
            <path d="M 683.5 451.65636 L 749.5 451.65636 C 753.9183 451.65636 757.5 455.2381 757.5 459.65636 L 757.5 547.65636 C 757.5 552.07464 753.9183 555.65636 749.5 555.65636 L 683.5 555.65636 C 679.0817 555.65636 675.5 552.07464 675.5 547.65636 L 675.5 459.65636 C 675.5 455.2381 679.0817 451.65636 683.5 451.65636 Z" fill="#f8fafc"/>
            <path d="M 683.5 451.65636 L 749.5 451.65636 C 753.9183 451.65636 757.5 455.2381 757.5 459.65636 L 757.5 547.65636 C 757.5 552.07464 753.9183 555.65636 749.5 555.65636 L 683.5 555.65636 C 679.0817 555.65636 675.5 552.07464 675.5 547.65636 L 675.5 459.65636 C 675.5 455.2381 679.0817 451.65636 683.5 451.65636 Z" stroke="#011893" stroke-linecap="butt" stroke-linejoin="round" stroke-width="3"/>
          </g>
          <g id="Graphic_31">
            <title>Text</title>
            <text transform="translate(693.4692 471.66176)" fill="#011893">
              <tspan font-family="Helvetica" font-size="22" fill="#011893" x="0" y="21" xml:space="preserve">JWT</tspan>
            </text>
          </g>
        </g>
        <g id="Graphic_29">
          <rect x="691.2993" y="504.43953" width="50" height="10" fill="#c0c0ff"/>
          <rect x="691.2993" y="504.43953" width="50" height="10" stroke="#003776" stroke-linecap="round" stroke-linejoin="round" stroke-width="1"/>
        </g>
        <g id="Graphic_28">
          <rect x="691.5" y="518.31725" width="50" height="10" fill="#c0ffff"/>
          <rect x="691.5" y="518.31725" width="50" height="10" stroke="#003776" stroke-linecap="round" stroke-linejoin="round" stroke-width="1"/>
        </g>
        <g id="Graphic_27">
          <rect x="691.5" y="532.195" width="50" height="10" fill="#ffc0ff"/>
          <rect x="691.5" y="532.195" width="50" height="10" stroke="#003776" stroke-linecap="round" stroke-linejoin="round" stroke-width="1"/>
        </g>
      </g>
      <g id="Graphic_36" filter="url(#Shadow)">
        <path d="M 531.5 451.65636 L 651 451.65636 C 655.9706 451.65636 660 455.6858 660 460.65636 L 660 546.65636 C 660 551.6269 655.9706 555.65636 651 555.65636 L 531.5 555.65636 C 526.52944 555.65636 522.5 551.6269 522.5 546.65636 L 522.5 460.65636 C 522.5 455.6858 526.52944 451.65636 531.5 451.65636 Z" fill="#ffc0c0"/>
        <path d="M 531.5 451.65636 L 651 451.65636 C 655.9706 451.65636 660 455.6858 660 460.65636 L 660 546.65636 C 660 551.6269 655.9706 555.65636 651 555.65636 L 531.5 555.65636 C 526.52944 555.65636 522.5 551.6269 522.5 546.65636 L 522.5 460.65636 C 522.5 455.6858 526.52944 451.65636 531.5 451.65636 Z" stroke="#003776" stroke-linecap="round" stroke-linejoin="round" stroke-width="3"/>
        <text transform="translate(527.5 471.65636)" fill="#003776">
          <tspan font-family="Helvetica" font-size="20" fill="#003776" x="35.97168" y="19" xml:space="preserve">JWKS</tspan>
        </text>
      </g>
      <g id="Graphic_37">
        <path d="M 561.28046 522.6181 C 562.9136 522.6213 564.51114 522.1397 565.87026 521.2343 C 567.22956 520.3289 568.2896 519.04044 568.9158 517.5323 C 569.5423 516.024 569.70706 514.3638 569.3892 512.7618 C 569.0714 511.1599 568.2853 509.68823 567.1305 508.53334 C 565.97575 507.37844 564.50405 506.59235 562.90204 506.27466 C 561.30003 505.95677 559.6398 506.12153 558.1316 506.748 C 556.6233 507.3744 555.3349 508.4344 554.42955 509.7936 C 553.5242 511.1529 553.04256 512.7503 553.04576 514.3834 C 553.0463 515.2375 553.1776 516.08645 553.4351 516.90074 L 545.8777 524.44745 C 545.66505 524.6571 545.54586 524.94354 545.5471 525.24216 L 545.5471 528.9755 C 545.54135 529.27716 545.6575 529.5684 545.8694 529.78326 C 546.0812 529.998 546.3707 530.1183 546.67244 530.11686 L 550.4058 530.11686 C 550.70466 530.11825 550.9917 530.0002 551.2031 529.7888 C 551.4145 529.57743 551.53253 529.29037 551.53116 528.9915 L 551.53116 527.1195 L 553.4085 527.1195 C 553.7065 527.11814 553.9919 526.9991 554.2027 526.7884 C 554.41336 526.5776 554.5324 526.2922 554.53375 525.9942 L 554.53375 524.11685 L 556.4058 524.11685 C 556.7044 524.11806 556.9909 523.9989 557.2004 523.7862 L 558.7631 522.2289 L 558.7631 522.2288 C 559.57745 522.4863 560.4264 522.6176 561.28046 522.61815 Z M 563.1578 510.618 C 563.656 510.618 564.13376 510.8161 564.48594 511.1685 C 564.838 511.52095 565.0356 511.9989 565.03517 512.4972 C 565.03464 512.99536 564.8362 513.47296 564.4834 513.8247 C 564.13056 514.1765 563.6524 514.37366 563.15427 514.3727 C 562.656 514.37175 562.17866 514.1728 561.8272 513.81965 C 561.4757 513.4666 561.2791 512.9882 561.28046 512.49005 C 561.28046 511.9898 561.48054 511.51044 561.8363 511.1587 C 562.192 510.80706 562.6736 510.61235 563.1738 510.618 Z" fill="#eedc82"/>
        <path d="M 561.28046 522.6181 C 562.9136 522.6213 564.51114 522.1397 565.87026 521.2343 C 567.22956 520.3289 568.2896 519.04044 568.9158 517.5323 C 569.5423 516.024 569.70706 514.3638 569.3892 512.7618 C 569.0714 511.1599 568.2853 509.68823 567.1305 508.53334 C 565.97575 507.37844 564.50405 506.59235 562.90204 506.27466 C 561.30003 505.95677 559.6398 506.12153 558.1316 506.748 C 556.6233 507.3744 555.3349 508.4344 554.42955 509.7936 C 553.5242 511.1529 553.04256 512.7503 553.04576 514.3834 C 553.0463 515.2375 553.1776 516.08645 553.4351 516.90074 L 545.8777 524.44745 C 545.66505 524.6571 545.54586 524.94354 545.5471 525.24216 L 545.5471 528.9755 C 545.54135 529.27716 545.6575 529.5684 545.8694 529.78326 C 546.0812 529.998 546.3707 530.1183 546.67244 530.11686 L 550.4058 530.11686 C 550.70466 530.11825 550.9917 530.0002 551.2031 529.7888 C 551.4145 529.57743 551.53253 529.29037 551.53116 528.9915 L 551.53116 527.1195 L 553.4085 527.1195 C 553.7065 527.11814 553.9919 526.9991 554.2027 526.7884 C 554.41336 526.5776 554.5324 526.2922 554.53375 525.9942 L 554.53375 524.11685 L 556.4058 524.11685 C 556.7044 524.11806 556.9909 523.9989 557.2004 523.7862 L 558.7631 522.2289 L 558.7631 522.2288 C 559.57745 522.4863 560.4264 522.6176 561.28046 522.61815 Z M 563.1578 510.618 C 563.656 510.618 564.13376 510.8161 564.48594 511.1685 C 564.838 511.52095 565.0356 511.9989 565.03517 512.4972 C 565.03464 512.99536 564.8362 513.47296 564.4834 513.8247 C 564.13056 514.1765 563.6524 514.37366 563.15427 514.3727 C 562.656 514.37175 562.17866 514.1728 561.8272 513.81965 C 561.4757 513.4666 561.2791 512.9882 561.28046 512.49005 C 561.28046 511.9898 561.48054 511.51044 561.8363 511.1587 C 562.192 510.80706 562.6736 510.61235 563.1738 510.618 Z" stroke="black" stroke-linecap="butt" stroke-linejoin="round" stroke-width="2"/>
      </g>
      <g id="Graphic_38">
        <path d="M 594.98354 522.6181 C 596.6167 522.6213 598.2142 522.1397 599.57334 521.2343 C 600.93264 520.3289 601.9927 519.04044 602.6189 517.5323 C 603.2454 516.024 603.41014 514.3638 603.0923 512.7618 C 602.7745 511.1599 601.98835 509.68823 600.8336 508.53334 C 599.6788 507.37844 598.2071 506.59235 596.6051 506.27466 C 595.0031 505.95677 593.3429 506.12153 591.83465 506.748 C 590.3264 507.3744 589.038 508.4344 588.1326 509.7936 C 587.22725 511.1529 586.74565 512.7503 586.74885 514.3834 C 586.7494 515.2375 586.8807 516.08645 587.1382 516.90074 L 579.5808 524.44745 C 579.3681 524.6571 579.24894 524.94354 579.25016 525.24216 L 579.25016 528.9755 C 579.2444 529.27716 579.3606 529.5684 579.5725 529.78326 C 579.7843 529.998 580.0738 530.1183 580.3755 530.11686 L 584.1089 530.11686 C 584.40774 530.11825 584.6948 530.0002 584.9062 529.7888 C 585.1176 529.57743 585.2356 529.29037 585.23424 528.9915 L 585.23424 527.1195 L 587.1116 527.1195 C 587.4096 527.11814 587.695 526.9991 587.90576 526.7884 C 588.11644 526.5776 588.23545 526.2922 588.2368 525.9942 L 588.2368 524.11685 L 590.1089 524.11685 C 590.4075 524.11806 590.69396 523.9989 590.9035 523.7862 L 592.4662 522.2289 L 592.4662 522.2288 C 593.2805 522.4863 594.1295 522.6176 594.98354 522.61815 Z M 596.8609 510.618 C 597.35906 510.618 597.83684 510.8161 598.189 511.1685 C 598.5411 511.52095 598.7387 511.9989 598.73825 512.4972 C 598.7377 512.99536 598.5393 513.47296 598.1865 513.8247 C 597.83364 514.1765 597.3555 514.37366 596.85735 514.3727 C 596.3591 514.37175 595.88174 514.1728 595.53025 513.81965 C 595.1788 513.4666 594.98216 512.9882 594.98354 512.49005 C 594.98354 511.9898 595.1836 511.51044 595.53936 511.1587 C 595.8951 510.80706 596.3767 510.61235 596.8769 510.618 Z" fill="#eedc82"/>
        <path d="M 594.98354 522.6181 C 596.6167 522.6213 598.2142 522.1397 599.57334 521.2343 C 600.93264 520.3289 601.9927 519.04044 602.6189 517.5323 C 603.2454 516.024 603.41014 514.3638 603.0923 512.7618 C 602.7745 511.1599 601.98835 509.68823 600.8336 508.53334 C 599.6788 507.37844 598.2071 506.59235 596.6051 506.27466 C 595.0031 505.95677 593.3429 506.12153 591.83465 506.748 C 590.3264 507.3744 589.038 508.4344 588.1326 509.7936 C 587.22725 511.1529 586.74565 512.7503 586.74885 514.3834 C 586.7494 515.2375 586.8807 516.08645 587.1382 516.90074 L 579.5808 524.44745 C 579.3681 524.6571 579.24894 524.94354 579.25016 525.24216 L 579.25016 528.9755 C 579.2444 529.27716 579.3606 529.5684 579.5725 529.78326 C 579.7843 529.998 580.0738 530.1183 580.3755 530.11686 L 584.1089 530.11686 C 584.40774 530.11825 584.6948 530.0002 584.9062 529.7888 C 585.1176 529.57743 585.2356 529.29037 585.23424 528.9915 L 585.23424 527.1195 L 587.1116 527.1195 C 587.4096 527.11814 587.695 526.9991 587.90576 526.7884 C 588.11644 526.5776 588.23545 526.2922 588.2368 525.9942 L 588.2368 524.11685 L 590.1089 524.11685 C 590.4075 524.11806 590.69396 523.9989 590.9035 523.7862 L 592.4662 522.2289 L 592.4662 522.2288 C 593.2805 522.4863 594.1295 522.6176 594.98354 522.61815 Z M 596.8609 510.618 C 597.35906 510.618 597.83684 510.8161 598.189 511.1685 C 598.5411 511.52095 598.7387 511.9989 598.73825 512.4972 C 598.7377 512.99536 598.5393 513.47296 598.1865 513.8247 C 597.83364 514.1765 597.3555 514.37366 596.85735 514.3727 C 596.3591 514.37175 595.88174 514.1728 595.53025 513.81965 C 595.1788 513.4666 594.98216 512.9882 594.98354 512.49005 C 594.98354 511.9898 595.1836 511.51044 595.53936 511.1587 C 595.8951 510.80706 596.3767 510.61235 596.8769 510.618 Z" stroke="black" stroke-linecap="butt" stroke-linejoin="round" stroke-width="2"/>
      </g>
      <g id="Graphic_39">
        <path d="M 628.6866 522.6181 C 630.3198 522.6213 631.9173 522.1397 633.2764 521.2343 C 634.6357 520.3289 635.6958 519.04044 636.322 517.5323 C 636.9485 516.024 637.1132 514.3638 636.79535 512.7618 C 636.47755 511.1599 635.6914 509.68823 634.5367 508.53334 C 633.3819 507.37844 631.9102 506.59235 630.3082 506.27466 C 628.7062 505.95677 627.046 506.12153 625.5377 506.748 C 624.0295 507.3744 622.74105 508.4344 621.8357 509.7936 C 620.9303 511.1529 620.4487 512.7503 620.4519 514.3834 C 620.45245 515.2375 620.5838 516.08645 620.84126 516.90074 L 613.2839 524.44745 C 613.0712 524.6571 612.952 524.94354 612.95324 525.24216 L 612.95324 528.9755 C 612.9475 529.27716 613.06366 529.5684 613.27555 529.78326 C 613.48736 529.998 613.7769 530.1183 614.0786 530.11686 L 617.81196 530.11686 C 618.1108 530.11825 618.3979 530.0002 618.6093 529.7888 C 618.82065 529.57743 618.9387 529.29037 618.9373 528.9915 L 618.9373 527.1195 L 620.81466 527.1195 C 621.1127 527.11814 621.3981 526.9991 621.60884 526.7884 C 621.8195 526.5776 621.9385 526.2922 621.9399 525.9942 L 621.9399 524.11685 L 623.812 524.11685 C 624.1106 524.11806 624.39704 523.9989 624.6066 523.7862 L 626.1693 522.2289 L 626.1693 522.2288 C 626.9836 522.4863 627.8326 522.6176 628.6866 522.61815 Z M 630.56396 510.618 C 631.06214 510.618 631.5399 510.8161 631.8921 511.1685 C 632.2442 511.52095 632.44175 511.9989 632.4413 512.4972 C 632.4408 512.99536 632.2424 513.47296 631.8896 513.8247 C 631.5367 514.1765 631.0586 514.37366 630.5604 514.3727 C 630.06216 514.37175 629.5848 514.1728 629.2333 513.81965 C 628.8819 513.4666 628.68524 512.9882 628.6866 512.49005 C 628.6866 511.9898 628.8867 511.51044 629.24244 511.1587 C 629.5982 510.80706 630.0798 510.61235 630.57996 510.618 Z" fill="#eedc82"/>
        <path d="M 628.6866 522.6181 C 630.3198 522.6213 631.9173 522.1397 633.2764 521.2343 C 634.6357 520.3289 635.6958 519.04044 636.322 517.5323 C 636.9485 516.024 637.1132 514.3638 636.79535 512.7618 C 636.47755 511.1599 635.6914 509.68823 634.5367 508.53334 C 633.3819 507.37844 631.9102 506.59235 630.3082 506.27466 C 628.7062 505.95677 627.046 506.12153 625.5377 506.748 C 624.0295 507.3744 622.74105 508.4344 621.8357 509.7936 C 620.9303 511.1529 620.4487 512.7503 620.4519 514.3834 C 620.45245 515.2375 620.5838 516.08645 620.84126 516.90074 L 613.2839 524.44745 C 613.0712 524.6571 612.952 524.94354 612.95324 525.24216 L 612.95324 528.9755 C 612.9475 529.27716 613.06366 529.5684 613.27555 529.78326 C 613.48736 529.998 613.7769 530.1183 614.0786 530.11686 L 617.81196 530.11686 C 618.1108 530.11825 618.3979 530.0002 618.6093 529.7888 C 618.82065 529.57743 618.9387 529.29037 618.9373 528.9915 L 618.9373 527.1195 L 620.81466 527.1195 C 621.1127 527.11814 621.3981 526.9991 621.60884 526.7884 C 621.8195 526.5776 621.9385 526.2922 621.9399 525.9942 L 621.9399 524.11685 L 623.812 524.11685 C 624.1106 524.11806 624.39704 523.9989 624.6066 523.7862 L 626.1693 522.2289 L 626.1693 522.2288 C 626.9836 522.4863 627.8326 522.6176 628.6866 522.61815 Z M 630.56396 510.618 C 631.06214 510.618 631.5399 510.8161 631.8921 511.1685 C 632.2442 511.52095 632.44175 511.9989 632.4413 512.4972 C 632.4408 512.99536 632.2424 513.47296 631.8896 513.8247 C 631.5367 514.1765 631.0586 514.37366 630.5604 514.3727 C 630.06216 514.37175 629.5848 514.1728 629.2333 513.81965 C 628.8819 513.4666 628.68524 512.9882 628.6866 512.49005 C 628.6866 511.9898 628.8867 511.51044 629.24244 511.1587 C 629.5982 510.80706 630.0798 510.61235 630.57996 510.618 Z" stroke="black" stroke-linecap="butt" stroke-linejoin="round" stroke-width="2"/>
      </g>
    </g>
  </g>
</svg>
