<?xml version="1.0" encoding="UTF-8" standalone="no"?>
<!DOCTYPE svg PUBLIC "-//W3C//DTD SVG 1.1//EN" "http://www.w3.org/Graphics/SVG/1.1/DTD/svg11.dtd">
<svg version="1.1" xmlns="http://www.w3.org/2000/svg" xmlns:dc="http://purl.org/dc/elements/1.1/" xmlns:xl="http://www.w3.org/1999/xlink" viewBox="0 0 1280 720" width="1280" height="720">
  <defs>
    <filter id="Shadow" filterUnits="userSpaceOnUse" x="-128" y="-72">
      <feGaussianBlur in="SourceAlpha" result="blur" stdDeviation="1.308"/>
      <feOffset in="blur" result="offset" dx="0" dy="2"/>
      <feFlood flood-color="black" flood-opacity=".5" result="flood"/>
      <feComposite in="flood" in2="offset" operator="in" result="color"/>
      <feMerge>
        <feMergeNode in="color"/>
        <feMergeNode in="SourceGraphic"/>
      </feMerge>
    </filter>
    <marker orient="auto" overflow="visible" markerUnits="strokeWidth" id="FilledArrow_Marker" stroke-linejoin="miter" stroke-miterlimit="10" viewBox="-5 -3 6 6" markerWidth="6" markerHeight="6" color="black">
      <g>
        <path d="M -3.2 0 L 0 1.2 L 0 -1.2 Z" fill="currentColor" stroke="currentColor" stroke-width="1"/>
      </g>
    </marker>
  </defs>
  <g id="05-refreshed-key-verifies" fill-opacity="1" stroke="none" fill="none" stroke-opacity="1" stroke-dasharray="none">
    <title>05-refreshed-key-verifies</title>
    <g id="05-refreshed-key-verifies_Layer_1">
      <title>Layer 1</title>
      <g id="Graphic_33">
        <path d="M 983 285 L 1182 285 C 1191.9411 285 1200 293.05887 1200 303 L 1200 412 C 1200 421.94113 1191.9411 430 1182 430 L 983 430 C 973.0589 430 965 421.94113 965 412 L 965 303 C 965 293.05887 973.0589 285 983 285 Z" fill="#1e3a5f"/>
        <path d="M 983 285 L 1182 285 C 1191.9411 285 1200 293.05887 1200 303 L 1200 412 C 1200 421.94113 1191.9411 430 1182 430 L 983 430 C 973.0589 430 965 421.94113 965 412 L 965 303 C 965 293.05887 973.0589 285 983 285 Z" stroke="white" stroke-linecap="butt" stroke-linejoin="round" stroke-width="3"/>
        <text transform="translate(970 344.192)" fill="white">
          <tspan font-family="Helvetica Neue" font-size="22" fill="white" x="67.477" y="21" xml:space="preserve">Keycloak</tspan>
        </text>
      </g>
      <g id="Graphic_25">
        <path d="M 540.5 285 L 739.5 285 C 749.4411 285 757.5 293.05887 757.5 303 L 757.5 412 C 757.5 421.94113 749.4411 430 739.5 430 L 540.5 430 C 530.5589 430 522.5 421.94113 522.5 412 L 522.5 303 C 522.5 293.05887 530.5589 285 540.5 285 Z" fill="#e2e8f0"/>
        <path d="M 540.5 285 L 739.5 285 C 749.4411 285 757.5 293.05887 757.5 303 L 757.5 412 C 757.5 421.94113 749.4411 430 739.5 430 L 540.5 430 C 530.5589 430 522.5 421.94113 522.5 412 L 522.5 303 C 522.5 293.05887 530.5589 285 540.5 285 Z" stroke="#334155" stroke-linecap="butt" stroke-linejoin="round" stroke-width="3"/>
        <text transform="translate(527.5 344.192)" fill="black">
          <tspan font-family="Helvetica Neue" font-size="22" fill="black" x="32.244" y="21" xml:space="preserve">Web Application</tspan>
        </text>
      </g>
      <g id="Graphic_21">
        <title>Text</title>
      </g>
      <g id="Graphic_20">
        <path d="M 98 285 L 297 285 C 306.94113 285 315 293.05887 315 303 L 315 412 C 315 421.94113 306.94113 430 297 430 L 98 430 C 88.05887 430 80 421.94113 80 412 L 80 303 C 80 293.05887 88.05887 285 98 285 Z" fill="#dcfce7"/>
        <path d="M 98 285 L 297 285 C 306.94113 285 315 293.05887 315 303 L 315 412 C 315 421.94113 306.94113 430 297 430 L 98 430 C 88.05887 430 80 421.94113 80 412 L 80 303 C 80 293.05887 88.05887 285 98 285 Z" stroke="#334155" stroke-linecap="butt" stroke-linejoin="round" stroke-width="3"/>
        <text transform="translate(85 344.192)" fill="black">
          <tspan font-family="Helvetica Neue" font-size="22" fill="black" x="84.186" y="21" xml:space="preserve">Client</tspan>
        </text>
      </g>
      <g id="Graphic_5">
        <title>Text</title>
        <text transform="translate(92 602.5996)" fill="#334155">
          <tspan font-family="Helvetica" font-size="20" fill="#334155" x="0" y="19" xml:space="preserve">-</tspan>
        </text>
      </g>
      <g id="Graphic_4">
        <title>Text</title>
        <text transform="translate(115 602.5996)" fill="#334155">
          <tspan font-family="Helvetica" font-size="20" fill="#334155" x="0" y="19" xml:space="preserve">The refreshed JWKS contains the needed public key</tspan>
        </text>
      </g>
      <g id="Graphic_3">
        <title>Text</title>
        <text transform="translate(92 632.5996)" fill="#334155">
          <tspan font-family="Helvetica" font-size="20" fill="#334155" x="0" y="19" xml:space="preserve">-</tspan>
        </text>
      </g>
      <g id="Graphic_2">
        <title>Text</title>
        <text transform="translate(115 632.5996)" fill="#334155">
          <tspan font-family="Helvetica" font-size="20" fill="#334155" x="0" y="19" xml:space="preserve">The Web Application validates the signature and uses the claims</tspan>
        </text>
      </g>
      <g id="Graphic_24">
        <title>Text</title>
        <text transform="translate(400.1916 38.819336)" fill="#102a43">
          <tspan font-family="Helvetica" font-size="34" fill="#102a43" x="0" y="33" xml:space="preserve">Refreshed Keys Verify the JWT</tspan>
        </text>
      </g>
      <g id="Group_40">
        <g id="Graphic_36" filter="url(#Shadow)">
          <path d="M 801.5 218.53527 L 921 218.53527 C 925.9706 218.53527 930 222.5647 930 227.53527 L 930 313.53527 C 930 318.50583 925.9706 322.53527 921 322.53527 L 801.5 322.53527 C 796.5294 322.53527 792.5 318.50583 792.5 313.53527 L 792.5 227.53527 C 792.5 222.5647 796.5294 218.53527 801.5 218.53527 Z" fill="#ffc0c0"/>
          <path d="M 801.5 218.53527 L 921 218.53527 C 925.9706 218.53527 930 222.5647 930 227.53527 L 930 313.53527 C 930 318.50583 925.9706 322.53527 921 322.53527 L 801.5 322.53527 C 796.5294 322.53527 792.5 318.50583 792.5 313.53527 L 792.5 227.53527 C 792.5 222.5647 796.5294 218.53527 801.5 218.53527 Z" stroke="#003776" stroke-linecap="round" stroke-linejoin="round" stroke-width="3"/>
          <text transform="translate(797.5 238.53527)" fill="#003776">
            <tspan font-family="Helvetica" font-size="20" fill="#003776" x="35.97168" y="19" xml:space="preserve">JWKS</tspan>
          </text>
        </g>
        <g id="Graphic_37">
          <path d="M 831.2805 289.497 C 832.9136 289.5002 834.5111 289.0186 835.8703 288.1132 C 837.2296 287.20782 838.2896 285.91935 838.9158 284.41118 C 839.5423 282.90293 839.7071 281.24272 839.3892 279.6407 C 839.0714 278.0388 838.2853 276.56714 837.1305 275.41224 C 835.9757 274.25735 834.5041 273.47125 832.902 273.15356 C 831.3 272.83567 829.6398 273.00044 828.1316 273.62692 C 826.6233 274.25332 825.3349 275.3133 824.42955 276.6725 C 823.5242 278.0318 823.0426 279.62918 823.0458 281.2623 C 823.0463 282.1164 823.1776 282.96535 823.4351 283.77965 L 815.8777 291.32635 C 815.66505 291.536 815.5459 291.82245 815.5471 292.12107 L 815.5471 295.85443 C 815.5413 296.15607 815.6575 296.4473 815.8694 296.66216 C 816.0812 296.87692 816.3707 296.99723 816.6724 296.99576 L 820.4058 296.99576 C 820.7047 296.99715 820.9917 296.8791 821.2031 296.66772 C 821.4145 296.45634 821.5325 296.16927 821.5312 295.8704 L 821.5312 293.99844 L 823.4085 293.99844 C 823.7065 293.99705 823.9919 293.87804 824.2027 293.66728 C 824.4134 293.4565 824.5324 293.1711 824.53375 292.8731 L 824.53375 290.99575 L 826.4058 290.99575 C 826.7044 290.99697 826.9909 290.8778 827.2004 290.6651 L 828.7631 289.1078 L 828.7631 289.10772 C 829.5774 289.3652 830.4264 289.49652 831.2805 289.49706 Z M 833.1578 277.49692 C 833.656 277.49692 834.1338 277.695 834.4859 278.04743 C 834.838 278.39986 835.0356 278.87782 835.0352 279.3761 C 835.0346 279.87427 834.8362 280.35187 834.4834 280.7036 C 834.1306 281.05543 833.6524 281.25256 833.1543 281.2516 C 832.656 281.25065 832.1787 281.0517 831.8272 280.69856 C 831.4757 280.3455 831.2791 279.86713 831.2805 279.36895 C 831.2805 278.8687 831.4805 278.38935 831.8363 278.0376 C 832.192 277.68597 832.6736 277.49125 833.1738 277.4969 Z" fill="#eedc82"/>
          <path d="M 831.2805 289.497 C 832.9136 289.5002 834.5111 289.0186 835.8703 288.1132 C 837.2296 287.20782 838.2896 285.91935 838.9158 284.41118 C 839.5423 282.90293 839.7071 281.24272 839.3892 279.6407 C 839.0714 278.0388 838.2853 276.56714 837.1305 275.41224 C 835.9757 274.25735 834.5041 273.47125 832.902 273.15356 C 831.3 272.83567 829.6398 273.00044 828.1316 273.62692 C 826.6233 274.25332 825.3349 275.3133 824.42955 276.6725 C 823.5242 278.0318 823.0426 279.62918 823.0458 281.2623 C 823.0463 282.1164 823.1776 282.96535 823.4351 283.77965 L 815.8777 291.32635 C 815.66505 291.536 815.5459 291.82245 815.5471 292.12107 L 815.5471 295.85443 C 815.5413 296.15607 815.6575 296.4473 815.8694 296.66216 C 816.0812 296.87692 816.3707 296.99723 816.6724 296.99576 L 820.4058 296.99576 C 820.7047 296.99715 820.9917 296.8791 821.2031 296.66772 C 821.4145 296.45634 821.5325 296.16927 821.5312 295.8704 L 821.5312 293.99844 L 823.4085 293.99844 C 823.7065 293.99705 823.9919 293.87804 824.2027 293.66728 C 824.4134 293.4565 824.5324 293.1711 824.53375 292.8731 L 824.53375 290.99575 L 826.4058 290.99575 C 826.7044 290.99697 826.9909 290.8778 827.2004 290.6651 L 828.7631 289.1078 L 828.7631 289.10772 C 829.5774 289.3652 830.4264 289.49652 831.2805 289.49706 Z M 833.1578 277.49692 C 833.656 277.49692 834.1338 277.695 834.4859 278.04743 C 834.838 278.39986 835.0356 278.87782 835.0352 279.3761 C 835.0346 279.87427 834.8362 280.35187 834.4834 280.7036 C 834.1306 281.05543 833.6524 281.25256 833.1543 281.2516 C 832.656 281.25065 832.1787 281.0517 831.8272 280.69856 C 831.4757 280.3455 831.2791 279.86713 831.2805 279.36895 C 831.2805 278.8687 831.4805 278.38935 831.8363 278.0376 C 832.192 277.68597 832.6736 277.49125 833.1738 277.4969 Z" stroke="black" stroke-linecap="butt" stroke-linejoin="round" stroke-width="2"/>
        </g>
        <g id="Graphic_38">
          <path d="M 864.9835 289.497 C 866.6167 289.5002 868.2142 289.0186 869.5733 288.1132 C 870.9326 287.20782 871.9927 285.91935 872.6189 284.41118 C 873.2454 282.90293 873.4101 281.24272 873.0923 279.6407 C 872.7745 278.0388 871.9884 276.56714 870.8336 275.41224 C 869.6788 274.25735 868.2071 273.47125 866.6051 273.15356 C 865.0031 272.83567 863.3429 273.00044 861.8347 273.62692 C 860.3264 274.25332 859.038 275.3133 858.1326 276.6725 C 857.2272 278.0318 856.7456 279.62918 856.7488 281.2623 C 856.7494 282.1164 856.8807 282.96535 857.1382 283.77965 L 849.5808 291.32635 C 849.3681 291.536 849.2489 291.82245 849.2502 292.12107 L 849.2502 295.85443 C 849.2444 296.15607 849.3606 296.4473 849.5725 296.66216 C 849.7843 296.87692 850.0738 296.99723 850.3755 296.99576 L 854.1089 296.99576 C 854.4077 296.99715 854.6948 296.8791 854.9062 296.66772 C 855.1176 296.45634 855.2356 296.16927 855.2342 295.8704 L 855.2342 293.99844 L 857.1116 293.99844 C 857.4096 293.99705 857.695 293.87804 857.9058 293.66728 C 858.1164 293.4565 858.2355 293.1711 858.2368 292.8731 L 858.2368 290.99575 L 860.1089 290.99575 C 860.4075 290.99697 860.694 290.8778 860.9035 290.6651 L 862.4662 289.1078 L 862.4662 289.10772 C 863.2805 289.3652 864.1295 289.49652 864.9835 289.49706 Z M 866.8609 277.49692 C 867.3591 277.49692 867.8368 277.695 868.189 278.04743 C 868.5411 278.39986 868.7387 278.87782 868.7382 279.3761 C 868.7377 279.87427 868.5393 280.35187 868.1865 280.7036 C 867.8336 281.05543 867.3555 281.25256 866.8573 281.2516 C 866.3591 281.25065 865.8817 281.0517 865.5303 280.69856 C 865.1788 280.3455 864.9822 279.86713 864.9835 279.36895 C 864.9835 278.8687 865.1836 278.38935 865.5394 278.0376 C 865.8951 277.68597 866.3767 277.49125 866.8769 277.4969 Z" fill="#eedc82"/>
          <path d="M 864.9835 289.497 C 866.6167 289.5002 868.2142 289.0186 869.5733 288.1132 C 870.9326 287.20782 871.9927 285.91935 872.6189 284.41118 C 873.2454 282.90293 873.4101 281.24272 873.0923 279.6407 C 872.7745 278.0388 871.9884 276.56714 870.8336 275.41224 C 869.6788 274.25735 868.2071 273.47125 866.6051 273.15356 C 865.0031 272.83567 863.3429 273.00044 861.8347 273.62692 C 860.3264 274.25332 859.038 275.3133 858.1326 276.6725 C 857.2272 278.0318 856.7456 279.62918 856.7488 281.2623 C 856.7494 282.1164 856.8807 282.96535 857.1382 283.77965 L 849.5808 291.32635 C 849.3681 291.536 849.2489 291.82245 849.2502 292.12107 L 849.2502 295.85443 C 849.2444 296.15607 849.3606 296.4473 849.5725 296.66216 C 849.7843 296.87692 850.0738 296.99723 850.3755 296.99576 L 854.1089 296.99576 C 854.4077 296.99715 854.6948 296.8791 854.9062 296.66772 C 855.1176 296.45634 855.2356 296.16927 855.2342 295.8704 L 855.2342 293.99844 L 857.1116 293.99844 C 857.4096 293.99705 857.695 293.87804 857.9058 293.66728 C 858.1164 293.4565 858.2355 293.1711 858.2368 292.8731 L 858.2368 290.99575 L 860.1089 290.99575 C 860.4075 290.99697 860.694 290.8778 860.9035 290.6651 L 862.4662 289.1078 L 862.4662 289.10772 C 863.2805 289.3652 864.1295 289.49652 864.9835 289.49706 Z M 866.8609 277.49692 C 867.3591 277.49692 867.8368 277.695 868.189 278.04743 C 868.5411 278.39986 868.7387 278.87782 868.7382 279.3761 C 868.7377 279.87427 868.5393 280.35187 868.1865 280.7036 C 867.8336 281.05543 867.3555 281.25256 866.8573 281.2516 C 866.3591 281.25065 865.8817 281.0517 865.5303 280.69856 C 865.1788 280.3455 864.9822 279.86713 864.9835 279.36895 C 864.9835 278.8687 865.1836 278.38935 865.5394 278.0376 C 865.8951 277.68597 866.3767 277.49125 866.8769 277.4969 Z" stroke="black" stroke-linecap="butt" stroke-linejoin="round" stroke-width="2"/>
        </g>
        <g id="Graphic_39">
          <path d="M 898.6866 289.497 C 900.3198 289.5002 901.9173 289.0186 903.2764 288.1132 C 904.6357 287.20782 905.6958 285.91935 906.322 284.41118 C 906.9485 282.90293 907.1132 281.24272 906.7954 279.6407 C 906.4776 278.0388 905.6914 276.56714 904.5367 275.41224 C 903.3819 274.25735 901.9102 273.47125 900.3082 273.15356 C 898.7062 272.83567 897.046 273.00044 895.5377 273.62692 C 894.0295 274.25332 892.741 275.3133 891.8357 276.6725 C 890.9303 278.0318 890.4487 279.62918 890.4519 281.2623 C 890.4524 282.1164 890.5838 282.96535 890.8413 283.77965 L 883.2839 291.32635 C 883.0712 291.536 882.952 291.82245 882.9532 292.12107 L 882.9532 295.85443 C 882.9475 296.15607 883.0637 296.4473 883.2756 296.66216 C 883.4874 296.87692 883.7769 296.99723 884.0786 296.99576 L 887.812 296.99576 C 888.1108 296.99715 888.3979 296.8791 888.6093 296.66772 C 888.8207 296.45634 888.9387 296.16927 888.9373 295.8704 L 888.9373 293.99844 L 890.8147 293.99844 C 891.1127 293.99705 891.3981 293.87804 891.6088 293.66728 C 891.8195 293.4565 891.9385 293.1711 891.9399 292.8731 L 891.9399 290.99575 L 893.812 290.99575 C 894.1106 290.99697 894.397 290.8778 894.6066 290.6651 L 896.1693 289.1078 L 896.1693 289.10772 C 896.9836 289.3652 897.8326 289.49652 898.6866 289.49706 Z M 900.564 277.49692 C 901.0621 277.49692 901.5399 277.695 901.8921 278.04743 C 902.2442 278.39986 902.4418 278.87782 902.4413 279.3761 C 902.4408 279.87427 902.2424 280.35187 901.8896 280.7036 C 901.5367 281.05543 901.0586 281.25256 900.5604 281.2516 C 900.0622 281.25065 899.5848 281.0517 899.2333 280.69856 C 898.8819 280.3455 898.6852 279.86713 898.6866 279.36895 C 898.6866 278.8687 898.8867 278.38935 899.2424 278.0376 C 899.5982 277.68597 900.0798 277.49125 900.58 277.4969 Z" fill="#eedc82"/>
          <path d="M 898.6866 289.497 C 900.3198 289.5002 901.9173 289.0186 903.2764 288.1132 C 904.6357 287.20782 905.6958 285.91935 906.322 284.41118 C 906.9485 282.90293 907.1132 281.24272 906.7954 279.6407 C 906.4776 278.0388 905.6914 276.56714 904.5367 275.41224 C 903.3819 274.25735 901.9102 273.47125 900.3082 273.15356 C 898.7062 272.83567 897.046 273.00044 895.5377 273.62692 C 894.0295 274.25332 892.741 275.3133 891.8357 276.6725 C 890.9303 278.0318 890.4487 279.62918 890.4519 281.2623 C 890.4524 282.1164 890.5838 282.96535 890.8413 283.77965 L 883.2839 291.32635 C 883.0712 291.536 882.952 291.82245 882.9532 292.12107 L 882.9532 295.85443 C 882.9475 296.15607 883.0637 296.4473 883.2756 296.66216 C 883.4874 296.87692 883.7769 296.99723 884.0786 296.99576 L 887.812 296.99576 C 888.1108 296.99715 888.3979 296.8791 888.6093 296.66772 C 888.8207 296.45634 888.9387 296.16927 888.9373 295.8704 L 888.9373 293.99844 L 890.8147 293.99844 C 891.1127 293.99705 891.3981 293.87804 891.6088 293.66728 C 891.8195 293.4565 891.9385 293.1711 891.9399 292.8731 L 891.9399 290.99575 L 893.812 290.99575 C 894.1106 290.99697 894.397 290.8778 894.6066 290.6651 L 896.1693 289.1078 L 896.1693 289.10772 C 896.9836 289.3652 897.8326 289.49652 898.6866 289.49706 Z M 900.564 277.49692 C 901.0621 277.49692 901.5399 277.695 901.8921 278.04743 C 902.2442 278.39986 902.4418 278.87782 902.4413 279.3761 C 902.4408 279.87427 902.2424 280.35187 901.8896 280.7036 C 901.5367 281.05543 901.0586 281.25256 900.5604 281.2516 C 900.0622 281.25065 899.5848 281.0517 899.2333 280.69856 C 898.8819 280.3455 898.6852 279.86713 898.6866 279.36895 C 898.6866 278.8687 898.8867 278.38935 899.2424 278.0376 C 899.5982 277.68597 900.0798 277.49125 900.58 277.4969 Z" stroke="black" stroke-linecap="butt" stroke-linejoin="round" stroke-width="2"/>
        </g>
      </g>
      <g id="Line_41">
        <line x1="777.9" y1="357.5" x2="963.5" y2="357.5" marker-start="url(#FilledArrow_Marker)" stroke="black" stroke-linecap="round" stroke-linejoin="round" stroke-width="4"/>
      </g>
      <g id="Graphic_42">
        <title>Text</title>
        <text transform="translate(785.0811 379.2578)" fill="#1f4f6b">
          <tspan font-family="Helvetica" font-size="22" fill="#1f4f6b" x="0" y="21" xml:space="preserve">Refreshed Keys</tspan>
        </text>
      </g>
      <g id="Graphic_43">
        <path d="M 640.0962 447.09766 C 625.3264 447.09766 613.25106 459.1635 613.25106 473.93806 L 613.2555 487.3024 L 610.7134 487.3024 C 608.4308 487.3024 606.5958 489.14193 606.5958 491.42 L 606.5958 533.1868 C 606.5958 535.46935 608.4308 537.3044 610.7134 537.3044 L 669.4737 537.30885 C 671.7563 537.30885 673.5958 535.46933 673.5958 533.1913 L 673.5958 491.42447 C 673.5958 489.1419 671.7563 487.3069 669.4737 487.3069 L 666.93606 487.3024 L 666.93606 473.93806 C 666.93606 459.16825 654.87024 447.09766 640.1004 447.09766 Z M 640.0962 458.5505 C 648.7163 458.5505 655.4838 465.31316 655.4838 473.93806 L 655.4838 487.3024 L 624.7144 487.3024 L 624.7144 473.93806 C 624.7144 465.318 631.47706 458.5505 640.0972 458.5505 Z M 640.2171 502.11615 L 640.22155 502.11615 C 642.1685 502.1609 643.91844 503.32454 644.724 505.09694 C 645.8653 507.6301 644.7598 510.6109 642.2445 511.7835 L 642.2445 525.19655 C 642.2445 526.3871 641.2867 527.34036 640.0962 527.34485 C 638.90564 527.34485 637.9524 526.3871 637.9524 525.19655 L 637.9524 511.7835 C 636.8514 511.2688 635.9741 510.3826 635.47285 509.27715 C 634.3181 506.72153 635.45495 503.7184 638.006 502.56376 C 638.69975 502.25047 639.4562 502.0983 640.22146 502.1162 Z" fill="#dadada"/>
        <path d="M 640.0962 447.09766 C 625.3264 447.09766 613.25106 459.1635 613.25106 473.93806 L 613.2555 487.3024 L 610.7134 487.3024 C 608.4308 487.3024 606.5958 489.14193 606.5958 491.42 L 606.5958 533.1868 C 606.5958 535.46935 608.4308 537.3044 610.7134 537.3044 L 669.4737 537.30885 C 671.7563 537.30885 673.5958 535.46933 673.5958 533.1913 L 673.5958 491.42447 C 673.5958 489.1419 671.7563 487.3069 669.4737 487.3069 L 666.93606 487.3024 L 666.93606 473.93806 C 666.93606 459.16825 654.87024 447.09766 640.1004 447.09766 Z M 640.0962 458.5505 C 648.7163 458.5505 655.4838 465.31316 655.4838 473.93806 L 655.4838 487.3024 L 624.7144 487.3024 L 624.7144 473.93806 C 624.7144 465.318 631.47706 458.5505 640.0972 458.5505 Z M 640.2171 502.11615 L 640.22155 502.11615 C 642.1685 502.1609 643.91844 503.32454 644.724 505.09694 C 645.8653 507.6301 644.7598 510.6109 642.2445 511.7835 L 642.2445 525.19655 C 642.2445 526.3871 641.2867 527.34036 640.0962 527.34485 C 638.90564 527.34485 637.9524 526.3871 637.9524 525.19655 L 637.9524 511.7835 C 636.8514 511.2688 635.9741 510.3826 635.47285 509.27715 C 634.3181 506.72153 635.45495 503.7184 638.006 502.56376 C 638.69975 502.25047 639.4562 502.0983 640.22146 502.1162 Z" stroke="black" stroke-linecap="butt" stroke-linejoin="round" stroke-width="2"/>
      </g>
      <g id="Graphic_44">
        <title>Text</title>
        <text transform="translate(487.08257 549.5039)" fill="#1f4f6b">
          <tspan font-family="Helvetica" font-size="22" fill="#1f4f6b" x="0" y="21" xml:space="preserve">Signatures and Claims Verified</tspan>
        </text>
      </g>
    </g>
  </g>
</svg>
