<?xml version="1.0" encoding="UTF-8" standalone="no"?>
<!DOCTYPE svg PUBLIC "-//W3C//DTD SVG 1.1//EN" "http://www.w3.org/Graphics/SVG/1.1/DTD/svg11.dtd">
<svg version="1.1" xmlns="http://www.w3.org/2000/svg" xmlns:dc="http://purl.org/dc/elements/1.1/" xmlns:xl="http://www.w3.org/1999/xlink" viewBox="0 0 1280 720" width="1280" height="720">
  <defs>
    <filter id="Shadow" filterUnits="userSpaceOnUse" x="-128" y="-72">
      <feGaussianBlur in="SourceAlpha" result="blur" stdDeviation="1.308"/>
      <feOffset in="blur" result="offset" dx="0" dy="2"/>
      <feFlood flood-color="black" flood-opacity=".5" result="flood"/>
      <feComposite in="flood" in2="offset" operator="in" result="color"/>
      <feMerge>
        <feMergeNode in="color"/>
        <feMergeNode in="SourceGraphic"/>
      </feMerge>
    </filter>
    <marker orient="auto" overflow="visible" markerUnits="strokeWidth" id="FilledArrow_Marker" stroke-linejoin="miter" stroke-miterlimit="10" viewBox="-1 -3 6 6" markerWidth="6" markerHeight="6" color="black">
      <g>
        <path d="M 3.2 0 L 0 -1.2 L 0 1.2 Z" fill="currentColor" stroke="currentColor" stroke-width="1"/>
      </g>
    </marker>
  </defs>
  <g id="01-token-from-keycloak" fill-opacity="1" stroke="none" fill="none" stroke-opacity="1" stroke-dasharray="none">
    <title>01-token-from-keycloak</title>
    <g id="01-token-from-keycloak_Layer_1">
      <title>Layer 1</title>
      <g id="Graphic_35">
        <path d="M 540.5 285 L 739.5 285 C 749.4411 285 757.5 293.05887 757.5 303 L 757.5 412 C 757.5 421.94113 749.4411 430 739.5 430 L 540.5 430 C 530.5589 430 522.5 421.94113 522.5 412 L 522.5 303 C 522.5 293.05887 530.5589 285 540.5 285 Z" fill="#1e3a5f"/>
        <path d="M 540.5 285 L 739.5 285 C 749.4411 285 757.5 293.05887 757.5 303 L 757.5 412 C 757.5 421.94113 749.4411 430 739.5 430 L 540.5 430 C 530.5589 430 522.5 421.94113 522.5 412 L 522.5 303 C 522.5 293.05887 530.5589 285 540.5 285 Z" stroke="white" stroke-linecap="butt" stroke-linejoin="round" stroke-width="3"/>
        <text transform="translate(527.5 344.192)" fill="white">
          <tspan font-family="Helvetica Neue" font-size="22" fill="white" x="67.477" y="21" xml:space="preserve">Keycloak</tspan>
        </text>
      </g>
      <g id="Graphic_36">
        <path d="M 983 287.5 L 1182 287.5 C 1191.9411 287.5 1200 295.55887 1200 305.5 L 1200 414.5 C 1200 424.44113 1191.9411 432.5 1182 432.5 L 983 432.5 C 973.0589 432.5 965 424.44113 965 414.5 L 965 305.5 C 965 295.55887 973.0589 287.5 983 287.5 Z" fill="#e2e8f0"/>
        <path d="M 983 287.5 L 1182 287.5 C 1191.9411 287.5 1200 295.55887 1200 305.5 L 1200 414.5 C 1200 424.44113 1191.9411 432.5 1182 432.5 L 983 432.5 C 973.0589 432.5 965 424.44113 965 414.5 L 965 305.5 C 965 295.55887 973.0589 287.5 983 287.5 Z" stroke="#334155" stroke-linecap="butt" stroke-linejoin="round" stroke-width="3"/>
        <text transform="translate(970 333.384)" fill="black">
          <tspan font-family="Helvetica Neue" font-size="22" fill="black" x="40.78" y="21" xml:space="preserve">Kafka or Other</tspan>
          <tspan font-family="Helvetica Neue" font-size="22" fill="black" x="76.046" y="47.616" xml:space="preserve">Service</tspan>
        </text>
      </g>
      <g id="Graphic_21">
        <title>Text</title>
      </g>
      <g id="Graphic_20">
        <path d="M 98 285 L 297 285 C 306.94113 285 315 293.05887 315 303 L 315 412 C 315 421.94113 306.94113 430 297 430 L 98 430 C 88.05887 430 80 421.94113 80 412 L 80 303 C 80 293.05887 88.05887 285 98 285 Z" fill="#dcfce7"/>
        <path d="M 98 285 L 297 285 C 306.94113 285 315 293.05887 315 303 L 315 412 C 315 421.94113 306.94113 430 297 430 L 98 430 C 88.05887 430 80 421.94113 80 412 L 80 303 C 80 293.05887 88.05887 285 98 285 Z" stroke="#334155" stroke-linecap="butt" stroke-linejoin="round" stroke-width="3"/>
        <text transform="translate(85 344.192)" fill="black">
          <tspan font-family="Helvetica Neue" font-size="22" fill="black" x="84.186" y="21" xml:space="preserve">Client</tspan>
        </text>
      </g>
      <g id="Graphic_11">
        <title>Text</title>
        <text transform="translate(341.33105 296.63546)" fill="#1f4f6b">
          <tspan font-family="Helvetica" font-size="22" fill="#1f4f6b" x="0" y="21" xml:space="preserve">Token Request</tspan>
        </text>
      </g>
      <g id="Graphic_5">
        <title>Text</title>
        <text transform="translate(92 602.5996)" fill="#334155">
          <tspan font-family="Helvetica" font-size="20" fill="#334155" x="0" y="19" xml:space="preserve">-</tspan>
        </text>
      </g>
      <g id="Graphic_4">
        <title>Text</title>
        <text transform="translate(115 602.5996)" fill="#334155">
          <tspan font-family="Helvetica" font-size="20" fill="#334155" x="0" y="19" xml:space="preserve">The client obtains and access token from Keycloak</tspan>
        </text>
      </g>
      <g id="Graphic_3">
        <title>Text</title>
        <text transform="translate(92 632.5996)" fill="#334155">
          <tspan font-family="Helvetica" font-size="20" fill="#334155" x="0" y="19" xml:space="preserve">-</tspan>
        </text>
      </g>
      <g id="Graphic_2">
        <title>Text</title>
        <text transform="translate(115 632.5996)" fill="#334155">
          <tspan font-family="Helvetica" font-size="20" fill="#334155" x="0" y="19" xml:space="preserve">The token is a JWT issued by Keycloak</tspan>
        </text>
      </g>
      <g id="Graphic_24">
        <title>Text</title>
        <text transform="translate(466.0327 38.8193)" fill="#102a43">
          <tspan font-family="Helvetica" font-size="34" fill="#102a43" x="0" y="33" xml:space="preserve">Client Obtains a Token</tspan>
        </text>
      </g>
      <g id="Group_26">
        <g id="Group_30">
          <g id="Graphic_32" filter="url(#Shadow)">
            <title>Bézier</title>
            <path d="M 394.76636 445.7345 L 460.76636 445.7345 C 465.18464 445.7345 468.76636 449.3162 468.76636 453.7345 L 468.76636 541.7345 C 468.76636 546.15277 465.18464 549.7345 460.76636 549.7345 L 394.76636 549.7345 C 390.3481 549.7345 386.76636 546.15277 386.76636 541.7345 L 386.76636 453.7345 C 386.76636 449.3162 390.3481 445.7345 394.76636 445.7345 Z" fill="#f8fafc"/>
            <path d="M 394.76636 445.7345 L 460.76636 445.7345 C 465.18464 445.7345 468.76636 449.3162 468.76636 453.7345 L 468.76636 541.7345 C 468.76636 546.15277 465.18464 549.7345 460.76636 549.7345 L 394.76636 549.7345 C 390.3481 549.7345 386.76636 546.15277 386.76636 541.7345 L 386.76636 453.7345 C 386.76636 449.3162 390.3481 445.7345 394.76636 445.7345 Z" stroke="#011893" stroke-linecap="butt" stroke-linejoin="round" stroke-width="3"/>
          </g>
          <g id="Graphic_31">
            <title>Text</title>
            <text transform="translate(404.7356 465.7399)" fill="#011893">
              <tspan font-family="Helvetica" font-size="22" fill="#011893" x="0" y="21" xml:space="preserve">JWT</tspan>
            </text>
          </g>
        </g>
        <g id="Graphic_29">
          <rect x="402.56567" y="498.51766" width="50" height="10" fill="#c0c0ff"/>
          <rect x="402.56567" y="498.51766" width="50" height="10" stroke="#003776" stroke-linecap="round" stroke-linejoin="round" stroke-width="1"/>
        </g>
        <g id="Graphic_28">
          <rect x="402.76636" y="512.3954" width="50" height="10" fill="#c0ffff"/>
          <rect x="402.76636" y="512.3954" width="50" height="10" stroke="#003776" stroke-linecap="round" stroke-linejoin="round" stroke-width="1"/>
        </g>
        <g id="Graphic_27">
          <rect x="402.76636" y="526.2731" width="50" height="10" fill="#ffc0ff"/>
          <rect x="402.76636" y="526.2731" width="50" height="10" stroke="#003776" stroke-linecap="round" stroke-linejoin="round" stroke-width="1"/>
        </g>
      </g>
      <g id="Line_37">
        <line x1="316.5" y1="333.33333" x2="502.1" y2="333.33333" marker-end="url(#FilledArrow_Marker)" stroke="black" stroke-linecap="round" stroke-linejoin="round" stroke-width="4"/>
      </g>
      <g id="Line_38">
        <line x1="522.5" y1="381.66667" x2="335.4" y2="381.66667" marker-end="url(#FilledArrow_Marker)" stroke="black" stroke-linecap="round" stroke-linejoin="round" stroke-width="4"/>
      </g>
      <g id="Graphic_39">
        <title>Text</title>
        <text transform="translate(349.9237 396.9792)" fill="#1f4f6b">
          <tspan font-family="Helvetica" font-size="22" fill="#1f4f6b" x="0" y="21" xml:space="preserve">Access Token</tspan>
        </text>
      </g>
    </g>
  </g>
</svg>
