<?xml version="1.0" encoding="UTF-8" standalone="no"?>
<!DOCTYPE svg PUBLIC "-//W3C//DTD SVG 1.1//EN" "http://www.w3.org/Graphics/SVG/1.1/DTD/svg11.dtd">
<svg version="1.1" xmlns="http://www.w3.org/2000/svg" xmlns:dc="http://purl.org/dc/elements/1.1/" xmlns:xl="http://www.w3.org/1999/xlink" viewBox="0 0 1280 720" width="1280" height="720">
  <defs>
    <marker orient="auto" overflow="visible" markerUnits="strokeWidth" id="FilledArrow_Marker" stroke-linejoin="miter" stroke-miterlimit="10" viewBox="-1 -3 6 6" markerWidth="6" markerHeight="6" color="black">
      <g>
        <path d="M 3.2 0 L 0 -1.2 L 0 1.2 Z" fill="currentColor" stroke="currentColor" stroke-width="1"/>
      </g>
    </marker>
  </defs>
  <g id="02-sasl-connection-starts" fill-opacity="1" stroke="none" fill="none" stroke-opacity="1" stroke-dasharray="none">
    <title>02-sasl-connection-starts</title>
    <g id="02-sasl-connection-starts_Layer_1">
      <title>Layer 1</title>
      <g id="Graphic_35">
        <path d="M 540.5 285 L 739.5 285 C 749.4411 285 757.5 293.05887 757.5 303 L 757.5 412 C 757.5 421.94113 749.4411 430 739.5 430 L 540.5 430 C 530.5589 430 522.5 421.94113 522.5 412 L 522.5 303 C 522.5 293.05887 530.5589 285 540.5 285 Z" fill="#1e3a5f"/>
        <path d="M 540.5 285 L 739.5 285 C 749.4411 285 757.5 293.05887 757.5 303 L 757.5 412 C 757.5 421.94113 749.4411 430 739.5 430 L 540.5 430 C 530.5589 430 522.5 421.94113 522.5 412 L 522.5 303 C 522.5 293.05887 530.5589 285 540.5 285 Z" stroke="white" stroke-linecap="butt" stroke-linejoin="round" stroke-width="3"/>
        <text transform="translate(527.5 344.192)" fill="white">
          <tspan font-family="Helvetica Neue" font-size="22" fill="white" x="67.477" y="21" xml:space="preserve">Keycloak</tspan>
        </text>
      </g>
      <g id="Graphic_36">
        <path d="M 983 287.5 L 1182 287.5 C 1191.9411 287.5 1200 295.55887 1200 305.5 L 1200 414.5 C 1200 424.44113 1191.9411 432.5 1182 432.5 L 983 432.5 C 973.0589 432.5 965 424.44113 965 414.5 L 965 305.5 C 965 295.55887 973.0589 287.5 983 287.5 Z" fill="#e2e8f0"/>
        <path d="M 983 287.5 L 1182 287.5 C 1191.9411 287.5 1200 295.55887 1200 305.5 L 1200 414.5 C 1200 424.44113 1191.9411 432.5 1182 432.5 L 983 432.5 C 973.0589 432.5 965 424.44113 965 414.5 L 965 305.5 C 965 295.55887 973.0589 287.5 983 287.5 Z" stroke="#334155" stroke-linecap="butt" stroke-linejoin="round" stroke-width="3"/>
        <text transform="translate(970 333.384)" fill="black">
          <tspan font-family="Helvetica Neue" font-size="22" fill="black" x="40.78" y="21" xml:space="preserve">Kafka or Other</tspan>
          <tspan font-family="Helvetica Neue" font-size="22" fill="black" x="76.046" y="47.616" xml:space="preserve">Service</tspan>
        </text>
      </g>
      <g id="Graphic_21">
        <title>Text</title>
      </g>
      <g id="Graphic_20">
        <path d="M 98 285 L 297 285 C 306.94113 285 315 293.05887 315 303 L 315 412 C 315 421.94113 306.94113 430 297 430 L 98 430 C 88.05887 430 80 421.94113 80 412 L 80 303 C 80 293.05887 88.05887 285 98 285 Z" fill="#dcfce7"/>
        <path d="M 98 285 L 297 285 C 306.94113 285 315 293.05887 315 303 L 315 412 C 315 421.94113 306.94113 430 297 430 L 98 430 C 88.05887 430 80 421.94113 80 412 L 80 303 C 80 293.05887 88.05887 285 98 285 Z" stroke="#334155" stroke-linecap="butt" stroke-linejoin="round" stroke-width="3"/>
        <text transform="translate(85 344.192)" fill="black">
          <tspan font-family="Helvetica Neue" font-size="22" fill="black" x="84.186" y="21" xml:space="preserve">Client</tspan>
        </text>
      </g>
      <g id="Graphic_11">
        <title>Text</title>
        <text transform="translate(562.2306 150.78)" fill="#1f4f6b">
          <tspan font-family="Helvetica" font-size="22" fill="#1f4f6b" x="0" y="21" xml:space="preserve">SASL Connection</tspan>
        </text>
      </g>
      <g id="Graphic_5">
        <title>Text</title>
        <text transform="translate(92 602.5996)" fill="#334155">
          <tspan font-family="Helvetica" font-size="20" fill="#334155" x="0" y="19" xml:space="preserve">-</tspan>
        </text>
      </g>
      <g id="Graphic_4">
        <title>Text</title>
        <text transform="translate(115 602.5996)" fill="#334155">
          <tspan font-family="Helvetica" font-size="20" fill="#334155" x="0" y="19" xml:space="preserve">The client opens a protocol connection to Kafka or another service.</tspan>
        </text>
      </g>
      <g id="Graphic_3">
        <title>Text</title>
        <text transform="translate(92 632.5996)" fill="#334155">
          <tspan font-family="Helvetica" font-size="20" fill="#334155" x="0" y="19" xml:space="preserve">-</tspan>
        </text>
      </g>
      <g id="Graphic_2">
        <title>Text</title>
        <text transform="translate(115 632.5996)" fill="#334155">
          <tspan font-family="Helvetica" font-size="20" fill="#334155" x="0" y="19" xml:space="preserve">SASL negotiates the authentication mechanism.</tspan>
        </text>
      </g>
      <g id="Graphic_24">
        <title>Text</title>
        <text transform="translate(466.0327 38.8193)" fill="#102a43">
          <tspan font-family="Helvetica" font-size="34" fill="#102a43" x="0" y="33" xml:space="preserve">Client Obtains a Token</tspan>
        </text>
      </g>
      <g id="Line_42">
        <path d="M 236.66667 285 C 236.66667 285 409.4673 195.29174 638 196 C 824.5755 196.57823 976.6706 257.19882 1026.2292 279.43846" marker-end="url(#FilledArrow_Marker)" stroke="black" stroke-linecap="round" stroke-linejoin="round" stroke-width="4"/>
      </g>
    </g>
  </g>
</svg>
