<?xml version="1.0" encoding="UTF-8" standalone="no"?>
<!DOCTYPE svg PUBLIC "-//W3C//DTD SVG 1.1//EN" "http://www.w3.org/Graphics/SVG/1.1/DTD/svg11.dtd">
<svg xmlns:dc="http://purl.org/dc/elements/1.1/" version="1.1" xmlns:xl="http://www.w3.org/1999/xlink" xmlns="http://www.w3.org/2000/svg" viewBox="0 0 1280 720" width="1280" height="720">
  <defs>
    <marker orient="auto" overflow="visible" markerUnits="strokeWidth" id="FilledArrow_Marker" stroke-linejoin="miter" stroke-miterlimit="10" viewBox="-1 -3 6 6" markerWidth="6" markerHeight="6" color="black">
      <g>
        <path d="M 3.2 0 L 0 -1.2 L 0 1.2 Z" fill="currentColor" stroke="currentColor" stroke-width="1"/>
      </g>
    </marker>
  </defs>
  <g id="Canvas_1" stroke-dasharray="none" fill-opacity="1" stroke-opacity="1" fill="none" stroke="none">
    <title>Canvas 1</title>
    <g id="Canvas_1_Layer_1">
      <title>Layer 1</title>
      <g id="Graphic_2">
        <rect x="0" y="0" width="1280" height="720" fill="white"/>
      </g>
      <g id="Graphic_3">
        <title>Text</title>
        <text transform="translate(463.9155 38.819336)" fill="#102a43">
          <tspan font-family="Helvetica" font-size="34" fill="#102a43" x="0" y="33" xml:space="preserve">SASL connection starts</tspan>
        </text>
      </g>
      <g id="Graphic_4">
        <path d="M 98 285 L 297 285 C 306.94113 285 315 293.05887 315 303 L 315 412 C 315 421.94113 306.94113 430 297 430 L 98 430 C 88.05887 430 80 421.94113 80 412 L 80 303 C 80 293.05887 88.05887 285 98 285 Z" fill="#dcfce7"/>
        <path d="M 98 285 L 297 285 C 306.94113 285 315 293.05887 315 303 L 315 412 C 315 421.94113 306.94113 430 297 430 L 98 430 C 88.05887 430 80 421.94113 80 412 L 80 303 C 80 293.05887 88.05887 285 98 285 Z" stroke="#334155" stroke-linecap="butt" stroke-linejoin="round" stroke-width="3"/>
      </g>
      <g id="Graphic_5">
        <title>Text</title>
        <text transform="translate(165.542 341.2495)" fill="#0f172a">
          <tspan font-family="Helvetica" font-size="25" fill="#0f172a" x="0" y="24" xml:space="preserve">Client</tspan>
        </text>
      </g>
      <g id="Graphic_6">
        <path d="M 540 285 L 739 285 C 748.9411 285 757 293.05887 757 303 L 757 412 C 757 421.94113 748.9411 430 739 430 L 540 430 C 530.0589 430 522 421.94113 522 412 L 522 303 C 522 293.05887 530.0589 285 540 285 Z" fill="#1e3a5f"/>
        <path d="M 540 285 L 739 285 C 748.9411 285 757 293.05887 757 303 L 757 412 C 757 421.94113 748.9411 430 739 430 L 540 430 C 530.0589 430 522 421.94113 522 412 L 522 303 C 522 293.05887 530.0589 285 540 285 Z" stroke="#334155" stroke-linecap="butt" stroke-linejoin="round" stroke-width="3"/>
      </g>
      <g id="Graphic_7">
        <title>Text</title>
        <text transform="translate(588.7798 341.2495)" fill="white">
          <tspan font-family="Helvetica" font-size="25" fill="white" x="0" y="24" xml:space="preserve">Keycloak</tspan>
        </text>
      </g>
      <g id="Graphic_8">
        <path d="M 983 285 L 1182 285 C 1191.9411 285 1200 293.05887 1200 303 L 1200 412 C 1200 421.94113 1191.9411 430 1182 430 L 983 430 C 973.0589 430 965 421.94113 965 412 L 965 303 C 965 293.05887 973.0589 285 983 285 Z" fill="#e2e8f0"/>
        <path d="M 983 285 L 1182 285 C 1191.9411 285 1200 293.05887 1200 303 L 1200 412 C 1200 421.94113 1191.9411 430 1182 430 L 983 430 C 973.0589 430 965 421.94113 965 412 L 965 303 C 965 293.05887 973.0589 285 983 285 Z" stroke="#334155" stroke-linecap="butt" stroke-linejoin="round" stroke-width="3"/>
      </g>
      <g id="Graphic_9">
        <title>Text</title>
        <text transform="translate(1035.9485 325.2495)" fill="#0f172a">
          <tspan font-family="Helvetica" font-size="25" fill="#0f172a" x="0" y="24" xml:space="preserve">Kafka or</tspan>
        </text>
      </g>
      <g id="Graphic_10">
        <title>Text</title>
        <text transform="translate(1042.9065 357.2495)" fill="#0f172a">
          <tspan font-family="Helvetica" font-size="25" fill="#0f172a" x="0" y="24" xml:space="preserve">service</tspan>
        </text>
      </g>
      <g id="Graphic_12">
        <path d="M 530 204 L 750 204 C 754.4183 204 758 207.58172 758 212 L 758 234 C 758 238.41828 754.4183 242 750 242 L 530 242 C 525.5817 242 522 238.41828 522 234 L 522 212 C 522 207.58172 525.5817 204 530 204 Z" fill="white"/>
      </g>
      <g id="Graphic_13">
        <title>Text</title>
        <text transform="translate(556.0122 178)" fill="#1f4f6b">
          <tspan font-family="Helvetica" font-size="22" fill="#1f4f6b" x="0" y="21" xml:space="preserve">SASL connection</tspan>
        </text>
      </g>
      <g id="Graphic_14">
        <title>Text</title>
        <text transform="translate(92 602.5996)" fill="#334155">
          <tspan font-family="Helvetica" font-size="20" fill="#334155" x="0" y="19" xml:space="preserve">-</tspan>
        </text>
      </g>
      <g id="Graphic_15">
        <title>Text</title>
        <text transform="translate(115 602.5996)" fill="#334155">
          <tspan font-family="Helvetica" font-size="20" fill="#334155" x="0" y="19" xml:space="preserve">The client opens a protocol connection to Kafka or another service.</tspan>
        </text>
      </g>
      <g id="Graphic_16">
        <title>Text</title>
        <text transform="translate(92 632.5996)" fill="#334155">
          <tspan font-family="Helvetica" font-size="20" fill="#334155" x="0" y="19" xml:space="preserve">-</tspan>
        </text>
      </g>
      <g id="Graphic_17">
        <title>Text</title>
        <text transform="translate(115 632.5996)" fill="#334155">
          <tspan font-family="Helvetica" font-size="20" fill="#334155" x="0" y="19" xml:space="preserve">SASL negotiates the authentication mechanism.</tspan>
        </text>
      </g>
      <g id="Line_18">
        <path d="M 312.8344 291.61676 C 390.2527 255.9067 501.5729 219 631 219 C 754.9715 219 866.7312 252.86092 948.0464 287.09753" marker-end="url(#FilledArrow_Marker)" stroke="black" stroke-linecap="round" stroke-linejoin="round" stroke-width="4"/>
      </g>
    </g>
  </g>
</svg>
