<?xml version="1.0" encoding="UTF-8" standalone="no"?>
<!DOCTYPE svg PUBLIC "-//W3C//DTD SVG 1.1//EN" "http://www.w3.org/Graphics/SVG/1.1/DTD/svg11.dtd">
<svg version="1.1" xmlns="http://www.w3.org/2000/svg" xmlns:dc="http://purl.org/dc/elements/1.1/" xmlns:xl="http://www.w3.org/1999/xlink" viewBox="0 0 1280 720" width="1280" height="720">
  <defs>
    <marker orient="auto" overflow="visible" markerUnits="strokeWidth" id="FilledArrow_Marker" stroke-linejoin="miter" stroke-miterlimit="10" viewBox="-1 -3 6 6" markerWidth="6" markerHeight="6" color="black">
      <g>
        <path d="M 3.2 0 L 0 -1.2 L 0 1.2 Z" fill="currentColor" stroke="currentColor" stroke-width="1"/>
      </g>
    </marker>
    <filter id="Shadow" filterUnits="userSpaceOnUse" x="-128" y="-72">
      <feGaussianBlur in="SourceAlpha" result="blur" stdDeviation="1.308"/>
      <feOffset in="blur" result="offset" dx="0" dy="2"/>
      <feFlood flood-color="black" flood-opacity=".5" result="flood"/>
      <feComposite in="flood" in2="offset" operator="in" result="color"/>
      <feMerge>
        <feMergeNode in="color"/>
        <feMergeNode in="SourceGraphic"/>
      </feMerge>
    </filter>
  </defs>
  <g id="04-service-verifies-token" fill-opacity="1" stroke="none" fill="none" stroke-opacity="1" stroke-dasharray="none">
    <title>04-service-verifies-token</title>
    <g id="04-service-verifies-token_Layer_1">
      <title>Layer 1</title>
      <g id="Graphic_35">
        <path d="M 540.5 285 L 739.5 285 C 749.4411 285 757.5 293.05887 757.5 303 L 757.5 412 C 757.5 421.94113 749.4411 430 739.5 430 L 540.5 430 C 530.5589 430 522.5 421.94113 522.5 412 L 522.5 303 C 522.5 293.05887 530.5589 285 540.5 285 Z" fill="#1e3a5f"/>
        <path d="M 540.5 285 L 739.5 285 C 749.4411 285 757.5 293.05887 757.5 303 L 757.5 412 C 757.5 421.94113 749.4411 430 739.5 430 L 540.5 430 C 530.5589 430 522.5 421.94113 522.5 412 L 522.5 303 C 522.5 293.05887 530.5589 285 540.5 285 Z" stroke="white" stroke-linecap="butt" stroke-linejoin="round" stroke-width="3"/>
        <text transform="translate(527.5 344.192)" fill="white">
          <tspan font-family="Helvetica Neue" font-size="22" fill="white" x="67.477" y="21" xml:space="preserve">Keycloak</tspan>
        </text>
      </g>
      <g id="Graphic_36">
        <path d="M 983 287.5 L 1182 287.5 C 1191.9411 287.5 1200 295.55887 1200 305.5 L 1200 414.5 C 1200 424.44113 1191.9411 432.5 1182 432.5 L 983 432.5 C 973.0589 432.5 965 424.44113 965 414.5 L 965 305.5 C 965 295.55887 973.0589 287.5 983 287.5 Z" fill="#e2e8f0"/>
        <path d="M 983 287.5 L 1182 287.5 C 1191.9411 287.5 1200 295.55887 1200 305.5 L 1200 414.5 C 1200 424.44113 1191.9411 432.5 1182 432.5 L 983 432.5 C 973.0589 432.5 965 424.44113 965 414.5 L 965 305.5 C 965 295.55887 973.0589 287.5 983 287.5 Z" stroke="#334155" stroke-linecap="butt" stroke-linejoin="round" stroke-width="3"/>
        <text transform="translate(970 333.384)" fill="black">
          <tspan font-family="Helvetica Neue" font-size="22" fill="black" x="40.78" y="21" xml:space="preserve">Kafka or Other</tspan>
          <tspan font-family="Helvetica Neue" font-size="22" fill="black" x="76.046" y="47.616" xml:space="preserve">Service</tspan>
        </text>
      </g>
      <g id="Graphic_21">
        <title>Text</title>
      </g>
      <g id="Graphic_20">
        <path d="M 98 285 L 297 285 C 306.94113 285 315 293.05887 315 303 L 315 412 C 315 421.94113 306.94113 430 297 430 L 98 430 C 88.05887 430 80 421.94113 80 412 L 80 303 C 80 293.05887 88.05887 285 98 285 Z" fill="#dcfce7"/>
        <path d="M 98 285 L 297 285 C 306.94113 285 315 293.05887 315 303 L 315 412 C 315 421.94113 306.94113 430 297 430 L 98 430 C 88.05887 430 80 421.94113 80 412 L 80 303 C 80 293.05887 88.05887 285 98 285 Z" stroke="#334155" stroke-linecap="butt" stroke-linejoin="round" stroke-width="3"/>
        <text transform="translate(85 344.192)" fill="black">
          <tspan font-family="Helvetica Neue" font-size="22" fill="black" x="84.186" y="21" xml:space="preserve">Client</tspan>
        </text>
      </g>
      <g id="Graphic_11">
        <title>Text</title>
        <text transform="translate(494.26483 127.78)" fill="#1f4f6b">
          <tspan font-family="Helvetica" font-size="22" fill="#1f4f6b" x="0" y="21" xml:space="preserve">OAuthBearer JWT Presented</tspan>
        </text>
      </g>
      <g id="Graphic_5">
        <title>Text</title>
        <text transform="translate(92 602.5996)" fill="#334155">
          <tspan font-family="Helvetica" font-size="20" fill="#334155" x="0" y="19" xml:space="preserve">-</tspan>
        </text>
      </g>
      <g id="Graphic_4">
        <title>Text</title>
        <text transform="translate(115 602.5996)" fill="#334155">
          <tspan font-family="Helvetica" font-size="20" fill="#334155" x="0" y="19" xml:space="preserve">The service verifies the JWT signature using JWKS</tspan>
        </text>
      </g>
      <g id="Graphic_3">
        <title>Text</title>
        <text transform="translate(92 632.5996)" fill="#334155">
          <tspan font-family="Helvetica" font-size="20" fill="#334155" x="0" y="19" xml:space="preserve">-</tspan>
        </text>
      </g>
      <g id="Graphic_2">
        <title>Text</title>
        <text transform="translate(115 632.5996)" fill="#334155">
          <tspan font-family="Helvetica" font-size="20" fill="#334155" x="0" y="19" xml:space="preserve">The connection is accepted and normal protocol traffic begins</tspan>
        </text>
      </g>
      <g id="Graphic_24">
        <title>Text</title>
        <text transform="translate(440.1577 38.8193)" fill="#102a43">
          <tspan font-family="Helvetica" font-size="34" fill="#102a43" x="0" y="33" xml:space="preserve">Service Verifies the Token</tspan>
        </text>
      </g>
      <g id="Line_42">
        <path d="M 236.66667 285 C 236.66667 285 409.4673 195.29174 638 196 C 824.5755 196.57823 976.6706 257.19882 1026.2292 279.43846" marker-end="url(#FilledArrow_Marker)" stroke="black" stroke-linecap="round" stroke-linejoin="round" stroke-width="4"/>
      </g>
      <g id="Group_43">
        <g id="Group_47">
          <g id="Graphic_49" filter="url(#Shadow)">
            <title>Bézier</title>
            <path d="M 606.6495 160.78 L 672.6495 160.78 C 677.0678 160.78 680.6495 164.36172 680.6495 168.78 L 680.6495 256.78 C 680.6495 261.19827 677.0678 264.78 672.6495 264.78 L 606.6495 264.78 C 602.23126 264.78 598.64954 261.19827 598.64954 256.78 L 598.64954 168.78 C 598.64954 164.36172 602.23126 160.78 606.6495 160.78 Z" fill="#f8fafc"/>
            <path d="M 606.6495 160.78 L 672.6495 160.78 C 677.0678 160.78 680.6495 164.36172 680.6495 168.78 L 680.6495 256.78 C 680.6495 261.19827 677.0678 264.78 672.6495 264.78 L 606.6495 264.78 C 602.23126 264.78 598.64954 261.19827 598.64954 256.78 L 598.64954 168.78 C 598.64954 164.36172 602.23126 160.78 606.6495 160.78 Z" stroke="#011893" stroke-linecap="butt" stroke-linejoin="round" stroke-width="3"/>
          </g>
          <g id="Graphic_48">
            <title>Text</title>
            <text transform="translate(616.6188 180.7854)" fill="#011893">
              <tspan font-family="Helvetica" font-size="22" fill="#011893" x="0" y="21" xml:space="preserve">JWT</tspan>
            </text>
          </g>
        </g>
        <g id="Graphic_46">
          <rect x="614.44885" y="213.56317" width="50" height="10" fill="#c0c0ff"/>
          <rect x="614.44885" y="213.56317" width="50" height="10" stroke="#003776" stroke-linecap="round" stroke-linejoin="round" stroke-width="1"/>
        </g>
        <g id="Graphic_45">
          <rect x="614.6495" y="227.44089" width="50" height="10" fill="#c0ffff"/>
          <rect x="614.6495" y="227.44089" width="50" height="10" stroke="#003776" stroke-linecap="round" stroke-linejoin="round" stroke-width="1"/>
        </g>
        <g id="Graphic_44">
          <rect x="614.6495" y="241.3186" width="50" height="10" fill="#ffc0ff"/>
          <rect x="614.6495" y="241.3186" width="50" height="10" stroke="#003776" stroke-linecap="round" stroke-linejoin="round" stroke-width="1"/>
        </g>
      </g>
      <g id="Graphic_51">
        <path d="M 1158.1382 454.28516 C 1143.3684 454.28516 1131.293 466.351 1131.293 481.12556 L 1131.2975 494.4899 L 1128.7553 494.4899 C 1126.4728 494.4899 1124.6377 496.32943 1124.6377 498.6075 L 1124.6377 540.3743 C 1124.6377 542.65685 1126.4728 544.4919 1128.7553 544.4919 L 1187.5157 544.49635 C 1189.7982 544.49635 1191.6377 542.65683 1191.6377 540.3788 L 1191.6377 498.61197 C 1191.6377 496.3294 1189.7982 494.4944 1187.5157 494.4944 L 1184.978 494.4899 L 1184.978 481.12556 C 1184.978 466.35575 1172.9122 454.28516 1158.1424 454.28516 Z M 1158.1382 465.738 C 1166.7582 465.738 1173.5258 472.50066 1173.5258 481.12556 L 1173.5258 494.4899 L 1142.7563 494.4899 L 1142.7563 481.12556 C 1142.7563 472.5055 1149.519 465.738 1158.1391 465.738 Z M 1158.259 509.30365 L 1158.2635 509.30365 C 1160.2104 509.3484 1161.9604 510.51204 1162.766 512.28444 C 1163.9072 514.8176 1162.8018 517.7984 1160.2864 518.971 L 1160.2864 532.38405 C 1160.2864 533.5746 1159.3287 534.52786 1158.1381 534.53235 C 1156.9476 534.53235 1155.9943 533.5746 1155.9943 532.38405 L 1155.9943 518.971 C 1154.8933 518.4563 1154.016 517.5701 1153.5148 516.46465 C 1152.36 513.90903 1153.4969 510.9059 1156.048 509.75126 C 1156.7417 509.43797 1157.4981 509.2858 1158.2634 509.3037 Z" fill="#dadada"/>
        <path d="M 1158.1382 454.28516 C 1143.3684 454.28516 1131.293 466.351 1131.293 481.12556 L 1131.2975 494.4899 L 1128.7553 494.4899 C 1126.4728 494.4899 1124.6377 496.32943 1124.6377 498.6075 L 1124.6377 540.3743 C 1124.6377 542.65685 1126.4728 544.4919 1128.7553 544.4919 L 1187.5157 544.49635 C 1189.7982 544.49635 1191.6377 542.65683 1191.6377 540.3788 L 1191.6377 498.61197 C 1191.6377 496.3294 1189.7982 494.4944 1187.5157 494.4944 L 1184.978 494.4899 L 1184.978 481.12556 C 1184.978 466.35575 1172.9122 454.28516 1158.1424 454.28516 Z M 1158.1382 465.738 C 1166.7582 465.738 1173.5258 472.50066 1173.5258 481.12556 L 1173.5258 494.4899 L 1142.7563 494.4899 L 1142.7563 481.12556 C 1142.7563 472.5055 1149.519 465.738 1158.1391 465.738 Z M 1158.259 509.30365 L 1158.2635 509.30365 C 1160.2104 509.3484 1161.9604 510.51204 1162.766 512.28444 C 1163.9072 514.8176 1162.8018 517.7984 1160.2864 518.971 L 1160.2864 532.38405 C 1160.2864 533.5746 1159.3287 534.52786 1158.1381 534.53235 C 1156.9476 534.53235 1155.9943 533.5746 1155.9943 532.38405 L 1155.9943 518.971 C 1154.8933 518.4563 1154.016 517.5701 1153.5148 516.46465 C 1152.36 513.90903 1153.4969 510.9059 1156.048 509.75126 C 1156.7417 509.43797 1157.4981 509.2858 1158.2634 509.3037 Z" stroke="black" stroke-linecap="butt" stroke-linejoin="round" stroke-width="2"/>
      </g>
      <g id="Graphic_50">
        <title>Text</title>
        <text transform="translate(990.6784 566.2815)" fill="#1f4f6b">
          <tspan font-family="Helvetica" font-size="22" fill="#1f4f6b" x="0" y="21" xml:space="preserve">JWT Verified Locally </tspan>
        </text>
      </g>
      <g id="Group_53">
        <g id="Graphic_57" filter="url(#Shadow)">
          <path d="M 982.3623 447.39075 L 1101.8623 447.39075 C 1106.8328 447.39075 1110.8623 451.4202 1110.8623 456.39075 L 1110.8623 542.39075 C 1110.8623 547.3613 1106.8328 551.39075 1101.8623 551.39075 L 982.3623 551.39075 C 977.3917 551.39075 973.3623 547.3613 973.3623 542.39075 L 973.3623 456.39075 C 973.3623 451.4202 977.3917 447.39075 982.3623 447.39075 Z" fill="#ffc0c0"/>
          <path d="M 982.3623 447.39075 L 1101.8623 447.39075 C 1106.8328 447.39075 1110.8623 451.4202 1110.8623 456.39075 L 1110.8623 542.39075 C 1110.8623 547.3613 1106.8328 551.39075 1101.8623 551.39075 L 982.3623 551.39075 C 977.3917 551.39075 973.3623 547.3613 973.3623 542.39075 L 973.3623 456.39075 C 973.3623 451.4202 977.3917 447.39075 982.3623 447.39075 Z" stroke="#003776" stroke-linecap="round" stroke-linejoin="round" stroke-width="3"/>
          <text transform="translate(978.3623 467.39075)" fill="#003776">
            <tspan font-family="Helvetica" font-size="20" fill="#003776" x="35.97168" y="19" xml:space="preserve">JWKS</tspan>
          </text>
        </g>
        <g id="Graphic_56">
          <path d="M 1012.1427 518.3525 C 1013.7759 518.3557 1015.3734 517.8741 1016.7325 516.9687 C 1018.0918 516.0633 1019.1519 514.77483 1019.7781 513.26667 C 1020.4046 511.7584 1020.5693 510.0982 1020.2514 508.4962 C 1019.9336 506.8943 1019.1475 505.4226 1017.9928 504.2677 C 1016.838 503.11283 1015.3663 502.32674 1013.7643 502.00905 C 1012.1623 501.69116 1010.5021 501.8559 1008.9938 502.4824 C 1007.4856 503.1088 1006.1971 504.1688 1005.2918 505.528 C 1004.3864 506.8873 1003.9048 508.48466 1003.908 510.1178 C 1003.9085 510.9719 1004.0399 511.82084 1004.2974 512.63513 L 996.74 520.18184 C 996.5273 520.3915 996.4081 520.67793 996.4093 520.97656 L 996.4093 524.7099 C 996.4036 525.01156 996.5198 525.3028 996.7316 525.51765 C 996.9435 525.7324 997.233 525.8527 997.5347 525.85125 L 1001.268 525.85125 C 1001.5669 525.85264 1001.854 525.7346 1002.0654 525.5232 C 1002.2767 525.3118 1002.3948 525.02476 1002.3934 524.7259 L 1002.3934 522.8539 L 1004.2708 522.8539 C 1004.5688 522.85253 1004.8542 522.7335 1005.065 522.52277 C 1005.2756 522.312 1005.3946 522.0266 1005.396 521.7286 L 1005.396 519.85124 L 1007.2681 519.85124 C 1007.5667 519.85245 1007.8531 519.7333 1008.0627 519.5206 L 1009.6254 517.9633 L 1009.6254 517.9632 C 1010.4397 518.2207 1011.2887 518.352 1012.1427 518.35254 Z M 1014.02 506.3524 C 1014.5182 506.3524 1014.996 506.5505 1015.3482 506.9029 C 1015.7003 507.25535 1015.8978 507.7333 1015.8974 508.2316 C 1015.8969 508.72975 1015.6985 509.20736 1015.3457 509.5591 C 1014.9928 509.9109 1014.5147 510.10805 1014.0165 510.1071 C 1013.5183 510.10614 1013.0409 509.9072 1012.6894 509.55405 C 1012.338 509.201 1012.1413 508.7226 1012.1427 508.22444 C 1012.1427 507.7242 1012.3428 507.24483 1012.6985 506.8931 C 1013.0543 506.54145 1013.5359 506.34674 1014.036 506.3524 Z" fill="#eedc82"/>
          <path d="M 1012.1427 518.3525 C 1013.7759 518.3557 1015.3734 517.8741 1016.7325 516.9687 C 1018.0918 516.0633 1019.1519 514.77483 1019.7781 513.26667 C 1020.4046 511.7584 1020.5693 510.0982 1020.2514 508.4962 C 1019.9336 506.8943 1019.1475 505.4226 1017.9928 504.2677 C 1016.838 503.11283 1015.3663 502.32674 1013.7643 502.00905 C 1012.1623 501.69116 1010.5021 501.8559 1008.9938 502.4824 C 1007.4856 503.1088 1006.1971 504.1688 1005.2918 505.528 C 1004.3864 506.8873 1003.9048 508.48466 1003.908 510.1178 C 1003.9085 510.9719 1004.0399 511.82084 1004.2974 512.63513 L 996.74 520.18184 C 996.5273 520.3915 996.4081 520.67793 996.4093 520.97656 L 996.4093 524.7099 C 996.4036 525.01156 996.5198 525.3028 996.7316 525.51765 C 996.9435 525.7324 997.233 525.8527 997.5347 525.85125 L 1001.268 525.85125 C 1001.5669 525.85264 1001.854 525.7346 1002.0654 525.5232 C 1002.2767 525.3118 1002.3948 525.02476 1002.3934 524.7259 L 1002.3934 522.8539 L 1004.2708 522.8539 C 1004.5688 522.85253 1004.8542 522.7335 1005.065 522.52277 C 1005.2756 522.312 1005.3946 522.0266 1005.396 521.7286 L 1005.396 519.85124 L 1007.2681 519.85124 C 1007.5667 519.85245 1007.8531 519.7333 1008.0627 519.5206 L 1009.6254 517.9633 L 1009.6254 517.9632 C 1010.4397 518.2207 1011.2887 518.352 1012.1427 518.35254 Z M 1014.02 506.3524 C 1014.5182 506.3524 1014.996 506.5505 1015.3482 506.9029 C 1015.7003 507.25535 1015.8978 507.7333 1015.8974 508.2316 C 1015.8969 508.72975 1015.6985 509.20736 1015.3457 509.5591 C 1014.9928 509.9109 1014.5147 510.10805 1014.0165 510.1071 C 1013.5183 510.10614 1013.0409 509.9072 1012.6894 509.55405 C 1012.338 509.201 1012.1413 508.7226 1012.1427 508.22444 C 1012.1427 507.7242 1012.3428 507.24483 1012.6985 506.8931 C 1013.0543 506.54145 1013.5359 506.34674 1014.036 506.3524 Z" stroke="black" stroke-linecap="butt" stroke-linejoin="round" stroke-width="2"/>
        </g>
        <g id="Graphic_55">
          <path d="M 1045.8458 518.3525 C 1047.479 518.3557 1049.0765 517.8741 1050.4356 516.9687 C 1051.7949 516.0633 1052.855 514.77483 1053.4812 513.26667 C 1054.1076 511.7584 1054.2724 510.0982 1053.9545 508.4962 C 1053.6367 506.8943 1052.8506 505.4226 1051.6959 504.2677 C 1050.5411 503.11283 1049.0694 502.32674 1047.4674 502.00905 C 1045.8654 501.69116 1044.2051 501.8559 1042.6969 502.4824 C 1041.1887 503.1088 1039.9002 504.1688 1038.9949 505.528 C 1038.0895 506.8873 1037.6079 508.48466 1037.6111 510.1178 C 1037.6116 510.9719 1037.743 511.82084 1038.0004 512.63513 L 1030.4431 520.18184 C 1030.2304 520.3915 1030.1112 520.67793 1030.1124 520.97656 L 1030.1124 524.7099 C 1030.1067 525.01156 1030.2228 525.3028 1030.4347 525.51765 C 1030.6465 525.7324 1030.936 525.8527 1031.2378 525.85125 L 1034.9711 525.85125 C 1035.27 525.85264 1035.5571 525.7346 1035.7684 525.5232 C 1035.9798 525.3118 1036.0979 525.02476 1036.0965 524.7259 L 1036.0965 522.8539 L 1037.9738 522.8539 C 1038.2718 522.85253 1038.5573 522.7335 1038.768 522.52277 C 1038.9787 522.312 1039.0977 522.0266 1039.0991 521.7286 L 1039.0991 519.85124 L 1040.9711 519.85124 C 1041.2698 519.85245 1041.5562 519.7333 1041.7658 519.5206 L 1043.3284 517.9633 L 1043.3284 517.9632 C 1044.1428 518.2207 1044.9917 518.352 1045.8458 518.35254 Z M 1047.7231 506.3524 C 1048.2213 506.3524 1048.6991 506.5505 1049.0513 506.9029 C 1049.4034 507.25535 1049.6009 507.7333 1049.6005 508.2316 C 1049.6 508.72975 1049.4015 509.20736 1049.0488 509.5591 C 1048.6959 509.9109 1048.2178 510.10805 1047.7196 510.1071 C 1047.2213 510.10614 1046.744 509.9072 1046.3925 509.55405 C 1046.041 509.201 1045.8444 508.7226 1045.8458 508.22444 C 1045.8458 507.7242 1046.0459 507.24483 1046.4016 506.8931 C 1046.7574 506.54145 1047.239 506.34674 1047.7391 506.3524 Z" fill="#eedc82"/>
          <path d="M 1045.8458 518.3525 C 1047.479 518.3557 1049.0765 517.8741 1050.4356 516.9687 C 1051.7949 516.0633 1052.855 514.77483 1053.4812 513.26667 C 1054.1076 511.7584 1054.2724 510.0982 1053.9545 508.4962 C 1053.6367 506.8943 1052.8506 505.4226 1051.6959 504.2677 C 1050.5411 503.11283 1049.0694 502.32674 1047.4674 502.00905 C 1045.8654 501.69116 1044.2051 501.8559 1042.6969 502.4824 C 1041.1887 503.1088 1039.9002 504.1688 1038.9949 505.528 C 1038.0895 506.8873 1037.6079 508.48466 1037.6111 510.1178 C 1037.6116 510.9719 1037.743 511.82084 1038.0004 512.63513 L 1030.4431 520.18184 C 1030.2304 520.3915 1030.1112 520.67793 1030.1124 520.97656 L 1030.1124 524.7099 C 1030.1067 525.01156 1030.2228 525.3028 1030.4347 525.51765 C 1030.6465 525.7324 1030.936 525.8527 1031.2378 525.85125 L 1034.9711 525.85125 C 1035.27 525.85264 1035.5571 525.7346 1035.7684 525.5232 C 1035.9798 525.3118 1036.0979 525.02476 1036.0965 524.7259 L 1036.0965 522.8539 L 1037.9738 522.8539 C 1038.2718 522.85253 1038.5573 522.7335 1038.768 522.52277 C 1038.9787 522.312 1039.0977 522.0266 1039.0991 521.7286 L 1039.0991 519.85124 L 1040.9711 519.85124 C 1041.2698 519.85245 1041.5562 519.7333 1041.7658 519.5206 L 1043.3284 517.9633 L 1043.3284 517.9632 C 1044.1428 518.2207 1044.9917 518.352 1045.8458 518.35254 Z M 1047.7231 506.3524 C 1048.2213 506.3524 1048.6991 506.5505 1049.0513 506.9029 C 1049.4034 507.25535 1049.6009 507.7333 1049.6005 508.2316 C 1049.6 508.72975 1049.4015 509.20736 1049.0488 509.5591 C 1048.6959 509.9109 1048.2178 510.10805 1047.7196 510.1071 C 1047.2213 510.10614 1046.744 509.9072 1046.3925 509.55405 C 1046.041 509.201 1045.8444 508.7226 1045.8458 508.22444 C 1045.8458 507.7242 1046.0459 507.24483 1046.4016 506.8931 C 1046.7574 506.54145 1047.239 506.34674 1047.7391 506.3524 Z" stroke="black" stroke-linecap="butt" stroke-linejoin="round" stroke-width="2"/>
        </g>
        <g id="Graphic_54">
          <path d="M 1079.5489 518.3525 C 1081.182 518.3557 1082.7796 517.8741 1084.1387 516.9687 C 1085.498 516.0633 1086.558 514.77483 1087.1843 513.26667 C 1087.8107 511.7584 1087.9755 510.0982 1087.6576 508.4962 C 1087.3398 506.8943 1086.5537 505.4226 1085.3989 504.2677 C 1084.2442 503.11283 1082.7725 502.32674 1081.1705 502.00905 C 1079.5685 501.69116 1077.9082 501.8559 1076.4 502.4824 C 1074.8917 503.1088 1073.6033 504.1688 1072.698 505.528 C 1071.7926 506.8873 1071.311 508.48466 1071.3142 510.1178 C 1071.3147 510.9719 1071.446 511.82084 1071.7035 512.63513 L 1064.1461 520.18184 C 1063.9335 520.3915 1063.8143 520.67793 1063.8155 520.97656 L 1063.8155 524.7099 C 1063.8098 525.01156 1063.9259 525.3028 1064.1378 525.51765 C 1064.3496 525.7324 1064.6391 525.8527 1064.9409 525.85125 L 1068.6742 525.85125 C 1068.9731 525.85264 1069.2602 525.7346 1069.4715 525.5232 C 1069.6829 525.3118 1069.801 525.02476 1069.7996 524.7259 L 1069.7996 522.8539 L 1071.6769 522.8539 C 1071.9749 522.85253 1072.2603 522.7335 1072.4711 522.52277 C 1072.6818 522.312 1072.8008 522.0266 1072.8022 521.7286 L 1072.8022 519.85124 L 1074.6742 519.85124 C 1074.9729 519.85245 1075.2593 519.7333 1075.4689 519.5206 L 1077.0315 517.9633 L 1077.0315 517.9632 C 1077.8459 518.2207 1078.6948 518.352 1079.5489 518.35254 Z M 1081.4262 506.3524 C 1081.9244 506.3524 1082.4022 506.5505 1082.7544 506.9029 C 1083.1065 507.25535 1083.304 507.7333 1083.3036 508.2316 C 1083.3031 508.72975 1083.1046 509.20736 1082.7519 509.5591 C 1082.399 509.9109 1081.9208 510.10805 1081.4227 510.1071 C 1080.9244 510.10614 1080.4471 509.9072 1080.0956 509.55405 C 1079.7441 509.201 1079.5475 508.7226 1079.5489 508.22444 C 1079.5489 507.7242 1079.749 507.24483 1080.1047 506.8931 C 1080.4604 506.54145 1080.942 506.34674 1081.4422 506.3524 Z" fill="#eedc82"/>
          <path d="M 1079.5489 518.3525 C 1081.182 518.3557 1082.7796 517.8741 1084.1387 516.9687 C 1085.498 516.0633 1086.558 514.77483 1087.1843 513.26667 C 1087.8107 511.7584 1087.9755 510.0982 1087.6576 508.4962 C 1087.3398 506.8943 1086.5537 505.4226 1085.3989 504.2677 C 1084.2442 503.11283 1082.7725 502.32674 1081.1705 502.00905 C 1079.5685 501.69116 1077.9082 501.8559 1076.4 502.4824 C 1074.8917 503.1088 1073.6033 504.1688 1072.698 505.528 C 1071.7926 506.8873 1071.311 508.48466 1071.3142 510.1178 C 1071.3147 510.9719 1071.446 511.82084 1071.7035 512.63513 L 1064.1461 520.18184 C 1063.9335 520.3915 1063.8143 520.67793 1063.8155 520.97656 L 1063.8155 524.7099 C 1063.8098 525.01156 1063.9259 525.3028 1064.1378 525.51765 C 1064.3496 525.7324 1064.6391 525.8527 1064.9409 525.85125 L 1068.6742 525.85125 C 1068.9731 525.85264 1069.2602 525.7346 1069.4715 525.5232 C 1069.6829 525.3118 1069.801 525.02476 1069.7996 524.7259 L 1069.7996 522.8539 L 1071.6769 522.8539 C 1071.9749 522.85253 1072.2603 522.7335 1072.4711 522.52277 C 1072.6818 522.312 1072.8008 522.0266 1072.8022 521.7286 L 1072.8022 519.85124 L 1074.6742 519.85124 C 1074.9729 519.85245 1075.2593 519.7333 1075.4689 519.5206 L 1077.0315 517.9633 L 1077.0315 517.9632 C 1077.8459 518.2207 1078.6948 518.352 1079.5489 518.35254 Z M 1081.4262 506.3524 C 1081.9244 506.3524 1082.4022 506.5505 1082.7544 506.9029 C 1083.1065 507.25535 1083.304 507.7333 1083.3036 508.2316 C 1083.3031 508.72975 1083.1046 509.20736 1082.7519 509.5591 C 1082.399 509.9109 1081.9208 510.10805 1081.4227 510.1071 C 1080.9244 510.10614 1080.4471 509.9072 1080.0956 509.55405 C 1079.7441 509.201 1079.5475 508.7226 1079.5489 508.22444 C 1079.5489 507.7242 1079.749 507.24483 1080.1047 506.8931 C 1080.4604 506.54145 1080.942 506.34674 1081.4422 506.3524 Z" stroke="black" stroke-linecap="butt" stroke-linejoin="round" stroke-width="2"/>
        </g>
      </g>
    </g>
  </g>
</svg>
