<?xml version="1.0" encoding="UTF-8" standalone="no"?>
<!DOCTYPE svg PUBLIC "-//W3C//DTD SVG 1.1//EN" "http://www.w3.org/Graphics/SVG/1.1/DTD/svg11.dtd">
<svg version="1.1" xmlns="http://www.w3.org/2000/svg" xmlns:dc="http://purl.org/dc/elements/1.1/" xmlns:xl="http://www.w3.org/1999/xlink" viewBox="0 0 1280 720" width="1280" height="720">
  <defs>
    <filter id="Shadow" filterUnits="userSpaceOnUse" x="-128" y="-72">
      <feGaussianBlur in="SourceAlpha" result="blur" stdDeviation="1.308"/>
      <feOffset in="blur" result="offset" dx="0" dy="2"/>
      <feFlood flood-color="black" flood-opacity=".5" result="flood"/>
      <feComposite in="flood" in2="offset" operator="in" result="color"/>
      <feMerge>
        <feMergeNode in="color"/>
        <feMergeNode in="SourceGraphic"/>
      </feMerge>
    </filter>
    <marker orient="auto" overflow="visible" markerUnits="strokeWidth" id="FilledArrow_Marker" stroke-linejoin="miter" stroke-miterlimit="10" viewBox="-1 -3 6 6" markerWidth="6" markerHeight="6" color="black">
      <g>
        <path d="M 3.2 0 L 0 -1.2 L 0 1.2 Z" fill="currentColor" stroke="currentColor" stroke-width="1"/>
      </g>
    </marker>
  </defs>
  <g id="01-password-flow-caution" fill-opacity="1" stroke="none" fill="none" stroke-opacity="1" stroke-dasharray="none">
    <title>01-password-flow-caution</title>
    <g id="01-password-flow-caution_Layer_1">
      <title>Layer 1</title>
      <g id="Graphic_43">
        <path d="M 540.5 285 L 739.5 285 C 749.4411 285 757.5 293.05887 757.5 303 L 757.5 412 C 757.5 421.94113 749.4411 430 739.5 430 L 540.5 430 C 530.5589 430 522.5 421.94113 522.5 412 L 522.5 303 C 522.5 293.05887 530.5589 285 540.5 285 Z" fill="#e2e8f0"/>
        <path d="M 540.5 285 L 739.5 285 C 749.4411 285 757.5 293.05887 757.5 303 L 757.5 412 C 757.5 421.94113 749.4411 430 739.5 430 L 540.5 430 C 530.5589 430 522.5 421.94113 522.5 412 L 522.5 303 C 522.5 293.05887 530.5589 285 540.5 285 Z" stroke="#334155" stroke-linecap="butt" stroke-linejoin="round" stroke-width="3"/>
        <text transform="translate(527.5 344.192)" fill="black">
          <tspan font-family="Helvetica Neue" font-size="22" fill="black" x="32.244" y="21" xml:space="preserve">Web Application</tspan>
        </text>
      </g>
      <g id="Graphic_33">
        <path d="M 983 284 L 1182 284 C 1191.9411 284 1200 292.05887 1200 302 L 1200 411 C 1200 420.94113 1191.9411 429 1182 429 L 983 429 C 973.0589 429 965 420.94113 965 411 L 965 302 C 965 292.05887 973.0589 284 983 284 Z" fill="#1e3a5f"/>
        <path d="M 983 284 L 1182 284 C 1191.9411 284 1200 292.05887 1200 302 L 1200 411 C 1200 420.94113 1191.9411 429 1182 429 L 983 429 C 973.0589 429 965 420.94113 965 411 L 965 302 C 965 292.05887 973.0589 284 983 284 Z" stroke="white" stroke-linecap="butt" stroke-linejoin="round" stroke-width="3"/>
        <text transform="translate(970 343.192)" fill="white">
          <tspan font-family="Helvetica Neue" font-size="22" fill="white" x="67.477" y="21" xml:space="preserve">Keycloak</tspan>
        </text>
      </g>
      <g id="Graphic_21">
        <title>Text</title>
      </g>
      <g id="Graphic_5">
        <title>Text</title>
        <text transform="translate(92 602.5996)" fill="#334155">
          <tspan font-family="Helvetica" font-size="20" fill="#334155" x="0" y="19" xml:space="preserve">-</tspan>
        </text>
      </g>
      <g id="Graphic_4">
        <title>Text</title>
        <text transform="translate(115 603.27246)" fill="black">
          <tspan font-family="Arial" font-size="20" fill="black" x="0" y="18" xml:space="preserve">The client collects the user password directly</tspan>
        </text>
      </g>
      <g id="Graphic_3">
        <title>Text</title>
        <text transform="translate(92 632.5996)" fill="#334155">
          <tspan font-family="Helvetica" font-size="20" fill="#334155" x="0" y="19" xml:space="preserve">-</tspan>
        </text>
      </g>
      <g id="Graphic_2">
        <title>Text</title>
        <text transform="translate(115 633.27246)" fill="black">
          <tspan font-family="Arial" font-size="20" fill="black" x="0" y="18" xml:space="preserve">Avoid this for new systems; prefer redirect-based login, device authorization, or client credentials.</tspan>
        </text>
      </g>
      <g id="Graphic_24">
        <title>Text</title>
        <text transform="translate(467.5327 38.819336)" fill="#102a43">
          <tspan font-family="Helvetica" font-size="34" fill="#102a43" x="0" y="33" xml:space="preserve">Device Asks for a Code</tspan>
        </text>
      </g>
      <g id="Graphic_40" filter="url(#Shadow)">
        <path d="M 474.2448 532.17576 L 445.4639 477.767 C 442.8762 472.8922 436.8287 471.0378 431.9538 473.62534 C 430.18987 474.56246 428.749 476.0031 427.81213 477.767 L 399.03126 532.17576 C 396.4693 537.0344 398.3301 543.053 403.19206 545.6148 C 404.62965 546.374 406.23536 546.7682 407.8602 546.76164 L 465.41547 546.76164 C 470.9074 546.7778 475.3752 542.3391 475.39137 536.8439 C 475.3977 535.21576 475.0037 533.61335 474.24453 532.17576 Z M 436.6381 537.07 C 433.96333 537.07 431.7923 534.899 431.7923 532.2242 C 431.7923 529.54946 433.96333 527.3784 436.6381 527.3784 C 439.31284 527.3784 441.4839 529.54946 441.4839 532.2242 C 441.4839 534.899 439.31284 537.07 436.6381 537.07 Z M 438.35027 520.9173 L 434.9226 520.9173 C 434.0698 520.9173 433.3624 520.25507 433.31063 519.4023 L 431.8958 496.7885 C 431.8375 495.858 432.57724 495.073 433.50776 495.073 L 439.76215 495.073 C 440.6924 495.073 441.4322 495.8579 441.3741 496.7885 L 439.959 519.4023 C 439.90753 520.25507 439.20313 520.9173 438.35034 520.9173 Z" fill="red"/>
      </g>
      <g id="Graphic_41">
        <text transform="translate(486.9237 502.2617)" fill="#b1001c">
          <tspan font-family="Helvetica" font-size="20" fill="#b1001c" x="0" y="19" xml:space="preserve">Do not design new systems around this flow</tspan>
        </text>
      </g>
      <g id="Graphic_42">
        <path d="M 98 285 L 297 285 C 306.94113 285 315 293.05887 315 303 L 315 412 C 315 421.94113 306.94113 430 297 430 L 98 430 C 88.05887 430 80 421.94113 80 412 L 80 303 C 80 293.05887 88.05887 285 98 285 Z" fill="#dcfce7"/>
        <path d="M 98 285 L 297 285 C 306.94113 285 315 293.05887 315 303 L 315 412 C 315 421.94113 306.94113 430 297 430 L 98 430 C 88.05887 430 80 421.94113 80 412 L 80 303 C 80 293.05887 88.05887 285 98 285 Z" stroke="#334155" stroke-linecap="butt" stroke-linejoin="round" stroke-width="3"/>
        <text transform="translate(85 344.192)" fill="black">
          <tspan font-family="Helvetica Neue" font-size="22" fill="black" x="84.186" y="21" xml:space="preserve">Client</tspan>
        </text>
      </g>
      <g id="Line_45">
        <line x1="316.5" y1="357.5" x2="502.1" y2="357.5" marker-end="url(#FilledArrow_Marker)" stroke="black" stroke-linecap="round" stroke-linejoin="round" stroke-width="4"/>
      </g>
      <g id="Line_46">
        <line x1="759" y1="357.49277" x2="944.6002" y2="356.5983" marker-end="url(#FilledArrow_Marker)" stroke="black" stroke-linecap="round" stroke-linejoin="round" stroke-width="4"/>
      </g>
      <g id="Graphic_47">
        <rect x="369.84375" y="319.63087" width="97.8125" height="32.654297" fill="white"/>
        <text transform="translate(374.84375 324.63087)" fill="black">
          <tspan font-family="Arial" font-size="20" fill="black" x="0" y="18" xml:space="preserve">Password</tspan>
        </text>
      </g>
      <g id="Graphic_48">
        <rect x="784.5557" y="319.63087" width="153.38867" height="32.654297" fill="white"/>
        <text transform="translate(789.5557 324.63087)" fill="black">
          <tspan font-family="Arial" font-size="20" fill="black" x="0" y="18" xml:space="preserve">Password Grant</tspan>
        </text>
      </g>
    </g>
  </g>
</svg>
